RobotoMono-Italic.ufo
<glyph name="exclam" format="2">
  <advance width="1202"/>
  <unicode hex="0021"/>
  <outline>
    <contour>
      <point x="648" y="471" type="line"/>
      <point x="466" y="471" type="line"/>
      <point x="637" y="1456" type="line"/>
      <point x="819" y="1456" type="line"/>
    </contour>
    <contour>
      <point x="384" y="94" type="qcurve" smooth="yes"/>
      <point x="385" y="119"/>
      <point x="402" y="163"/>
      <point x="418" y="178" type="qcurve" smooth="yes"/>
      <point x="432" y="192"/>
      <point x="472" y="209"/>
      <point x="496" y="210" type="qcurve" smooth="yes"/>
      <point x="520" y="211"/>
      <point x="562" y="195"/>
      <point x="577" y="180" type="qcurve" smooth="yes" name="inserted"/>
      <point x="592" y="165"/>
      <point x="608" y="124"/>
      <point x="608" y="100" type="qcurve"/>
      <point x="608" y="76"/>
      <point x="591" y="37"/>
      <point x="577" y="22" type="qcurve" smooth="yes"/>
      <point x="562" y="7"/>
      <point x="520" y="-11"/>
      <point x="495" y="-12" type="qcurve" smooth="yes"/>
      <point x="471" y="-13"/>
      <point x="430" y="2"/>
      <point x="416" y="16" type="qcurve" smooth="yes" name="inserted"/>
      <point x="401" y="30"/>
      <point x="384" y="70"/>
    </contour>
  </outline>
</glyph>
<glyph name="numbersign" format="2">
  <advance width="1202"/>
  <unicode hex="0023"/>
  <outline>
    <contour>
      <point x="651" y="410" type="line"/>
      <point x="400" y="410" type="line"/>
      <point x="251" y="0" type="line"/>
      <point x="106" y="0" type="line"/>
      <point x="256" y="410" type="line"/>
      <point x="26" y="410" type="line"/>
      <point x="50" y="547" type="line"/>
      <point x="304" y="547" type="line"/>
      <point x="433" y="901" type="line"/>
      <point x="184" y="901" type="line"/>
      <point x="209" y="1040" type="line"/>
      <point x="483" y="1040" type="line"/>
      <point x="635" y="1456" type="line"/>
      <point x="780" y="1456" type="line"/>
      <point x="627" y="1040" type="line"/>
      <point x="877" y="1040" type="line"/>
      <point x="1030" y="1456" type="line"/>
      <point x="1174" y="1456" type="line"/>
      <point x="1022" y="1040" type="line"/>
      <point x="1219" y="1040" type="line"/>
      <point x="1195" y="901" type="line"/>
      <point x="972" y="901" type="line"/>
      <point x="844" y="547" type="line"/>
      <point x="1061" y="547" type="line"/>
      <point x="1037" y="410" type="line"/>
      <point x="795" y="410" type="line"/>
      <point x="646" y="0" type="line"/>
      <point x="501" y="0" type="line"/>
    </contour>
    <contour>
      <point x="449" y="547" type="line"/>
      <point x="699" y="547" type="line"/>
      <point x="828" y="901" type="line"/>
      <point x="577" y="901" type="line"/>
    </contour>
  </outline>
</glyph>
<glyph name="dollar" format="2">
  <advance width="1202"/>
  <unicode hex="0024"/>
  <outline>
    <contour>
      <point x="844" y="382" type="qcurve" smooth="yes"/>
      <point x="850" y="436"/>
      <point x="817" y="518"/>
      <point x="785.0" y="549.5" type="qcurve" smooth="yes" name="inserted"/>
      <point x="753" y="581"/>
      <point x="669" y="627"/>
      <point x="624" y="644" type="qcurve" smooth="yes"/>
      <point x="550" y="673"/>
      <point x="422" y="749"/>
      <point x="375.5" y="800.5" type="qcurve" smooth="yes" name="inserted"/>
      <point x="329" y="852"/>
      <point x="281" y="985"/>
      <point x="287" y="1072" type="qcurve" smooth="yes"/>
      <point x="298.94372873501277" y="1245.1840666576843"/>
      <point x="521.2047439461551" y="1451.9053266602564"/>
      <point x="690" y="1472" type="qcurve"/>
      <point x="729" y="1692" type="line"/>
      <point x="875" y="1692" type="line"/>
      <point x="835" y="1470" type="line"/>
      <point x="1007.0" y="1436.0"/>
      <point x="1124.0" y="1165.9999999999998"/>
      <point x="1114" y="1008" type="qcurve"/>
      <point x="934" y="1008" type="line"/>
      <point x="940.0270134233333" y="1110.459228196666"/>
      <point x="866.4377806002182" y="1311.0178482349136"/>
      <point x="741" y="1315" type="qcurve" smooth="yes"/>
      <point x="627.3091496184246" y="1317.0301937568136"/>
      <point x="478.8241471182631" y="1183.3880152507452"/>
      <point x="467" y="1075" type="qcurve" smooth="yes"/>
      <point x="461" y="1018"/>
      <point x="495" y="935"/>
      <point x="527.5" y="904.0" type="qcurve" smooth="yes" name="inserted"/>
      <point x="560" y="873"/>
      <point x="646" y="827"/>
      <point x="693" y="809" type="qcurve" smooth="yes"/>
      <point x="766" y="779"/>
      <point x="893" y="704"/>
      <point x="938.5" y="653.5" type="qcurve" smooth="yes" name="inserted"/>
      <point x="984" y="603"/>
      <point x="1031" y="471"/>
      <point x="1025" y="384" type="qcurve" smooth="yes"/>
      <point x="1012.8874277245167" y="198.27389177592056"/>
      <point x="766.4161797594761" y="1.8342513701777285"/>
      <point x="596" y="-16" type="qcurve"/>
      <point x="561" y="-208" type="line"/>
      <point x="415" y="-208" type="line"/>
      <point x="450" y="-15" type="line"/>
      <point x="275.03527810164593" y="10.847061189529583"/>
      <point x="118.94047712227172" y="257.9881110786193"/>
      <point x="129" y="429" type="qcurve"/>
      <point x="310" y="429" type="line"/>
      <point x="302.0" y="311.0"/>
      <point x="404.0" y="142.0"/>
      <point x="534" y="140" type="qcurve" smooth="yes"/>
      <point x="649.3471514533767" y="136.02251201884906"/>
      <point x="829.9203109533682" y="261.31695102887113"/>
    </contour>
  </outline>
</glyph>
<glyph name="ampersand" format="2">
  <advance width="1202"/>
  <unicode hex="0026"/>
  <outline>
    <contour>
      <point x="69" y="366" type="qcurve" smooth="yes"/>
      <point x="75" y="441"/>
      <point x="134" y="563"/>
      <point x="180" y="615" type="qcurve" smooth="yes" name="inserted"/>
      <point x="218" y="658"/>
      <point x="311" y="731"/>
      <point x="360" y="763" type="qcurve"/>
      <point x="398" y="788" type="line"/>
      <point x="379" y="827"/>
      <point x="343" y="907"/>
      <point x="331" y="948" type="qcurve" smooth="yes" name="inserted"/>
      <point x="318" y="989"/>
      <point x="305" y="1074"/>
      <point x="308" y="1119" type="qcurve" smooth="yes"/>
      <point x="319.878900227926" y="1277.3853363723467"/>
      <point x="529.3108777279638" y="1481.0411981041962"/>
      <point x="695" y="1477" type="qcurve" smooth="yes"/>
      <point x="819.0834736157217" y="1472.9973073027186"/>
      <point x="973.9946218463073" y="1299.916638617762"/>
      <point x="966" y="1176" type="qcurve" smooth="yes"/>
      <point x="959.9617382465037" y="1061.2730266835695"/>
      <point x="811.4584879336189" y="911.6096075800508"/>
      <point x="726" y="850" type="qcurve" smooth="yes"/>
      <point x="612" y="763" type="line"/>
      <point x="842" y="367" type="line"/>
      <point x="892" y="437"/>
      <point x="952" y="587"/>
      <point x="966" y="672" type="qcurve"/>
      <point x="1126" y="672" type="line"/>
      <point x="1113" y="545"/>
      <point x="1014" y="326"/>
      <point x="925" y="235" type="qcurve"/>
      <point x="1058" y="0" type="line"/>
      <point x="856" y="0" type="line"/>
      <point x="795" y="108" type="line"/>
      <point x="717" y="49"/>
      <point x="540" y="-21"/>
      <point x="440" y="-19" type="qcurve" smooth="yes"/>
      <point x="273" y="-17"/>
      <point x="57" y="193"/>
    </contour>
    <contour>
      <point x="446" y="131" type="qcurve" smooth="yes"/>
      <point x="522" y="129"/>
      <point x="657" y="189"/>
      <point x="718" y="231" type="qcurve"/>
      <point x="478" y="661" type="line"/>
      <point x="447" y="636" type="line"/>
      <point x="415" y="611"/>
      <point x="350" y="552"/>
      <point x="322.5" y="518.0" type="qcurve" smooth="yes" name="inserted"/>
      <point x="295" y="484"/>
      <point x="257" y="407"/>
      <point x="251" y="365" type="qcurve" smooth="yes"/>
      <point x="239.09420317283823" y="265.7850264403186"/>
      <point x="343.1865006610702" y="133.01595096743"/>
    </contour>
    <contour>
      <point x="485" y="1121" type="qcurve" smooth="yes"/>
      <point x="481" y="1091"/>
      <point x="487" y="1031"/>
      <point x="494.5" y="1002.5" type="qcurve" smooth="yes" name="inserted"/>
      <point x="502" y="974"/>
      <point x="525" y="918"/>
      <point x="537" y="891" type="qcurve"/>
      <point x="665" y="983" type="line" smooth="yes"/>
      <point x="715" y="1020"/>
      <point x="787" y="1112"/>
      <point x="793" y="1177" type="qcurve" smooth="yes"/>
      <point x="799.065674584123" y="1231.591071257107"/>
      <point x="744.3359007774808" y="1326.0"/>
      <point x="683" y="1326" type="qcurve" smooth="yes"/>
      <point x="596.2584406894994" y="1328.0172455653603"/>
      <point x="492.9321872084864" y="1198.3388252827424"/>
    </contour>
  </outline>
</glyph>
<glyph name="quotesingle" format="2">
  <advance width="1202"/>
  <unicode hex="0027"/>
  <outline>
    <contour>
      <point x="762" y="1416" type="line"/>
      <point x="686" y="1057" type="line"/>
      <point x="550" y="1056" type="line"/>
      <point x="611" y="1439" type="line"/>
      <point x="627" y="1536" type="line"/>
      <point x="781" y="1536" type="line"/>
    </contour>
  </outline>
</glyph>
<glyph name="parenright" format="2">
  <advance width="1202"/>
  <unicode hex="0029"/>
  <outline>
    <contour>
      <point x="821" y="585" type="line" smooth="yes"/>
      <point x="800.0606751565477" y="438.424726095834"/>
      <point x="702.4371834286225" y="124.82190484581031"/>
      <point x="627" y="-17" type="qcurve" smooth="yes"/>
      <point x="549.3797048898726" y="-160.29900635715813"/>
      <point x="330.849397116589" y="-400.32714037389803"/>
      <point x="188" y="-471" type="qcurve"/>
      <point x="160" y="-356" type="line"/>
      <point x="271" y="-275"/>
      <point x="432" y="-60"/>
      <point x="489" y="63" type="qcurve" smooth="yes" name="inserted"/>
      <point x="546" y="185"/>
      <point x="618" y="449"/>
      <point x="638" y="580" type="qcurve" smooth="yes"/>
      <point x="640" y="595" type="line" smooth="yes"/>
      <point x="650" y="666"/>
      <point x="664" y="830"/>
      <point x="663" y="916" type="qcurve" smooth="yes" name="inserted"/>
      <point x="662" y="1002"/>
      <point x="641" y="1176"/>
      <point x="617" y="1257" type="qcurve" smooth="yes" name="inserted"/>
      <point x="593" y="1337"/>
      <point x="514" y="1477"/>
      <point x="455" y="1531" type="qcurve"/>
      <point x="501" y="1643" type="line"/>
      <point x="580" y="1588"/>
      <point x="696" y="1438"/>
      <point x="736" y="1351" type="qcurve" smooth="yes" name="inserted"/>
      <point x="775" y="1263"/>
      <point x="821" y="1071"/>
      <point x="831" y="973" type="qcurve" smooth="yes" name="inserted"/>
      <point x="840" y="875"/>
      <point x="835" y="683"/>
      <point x="823" y="596" type="qcurve" smooth="yes"/>
    </contour>
  </outline>
</glyph>
<glyph name="asterisk" format="2">
  <advance width="1202"/>
  <unicode hex="002A"/>
  <outline>
    <contour>
      <point x="567" y="918" type="line"/>
      <point x="217" y="1014" type="line"/>
      <point x="294" y="1184" type="line"/>
      <point x="629" y="1031" type="line"/>
      <point x="671" y="1456" type="line"/>
      <point x="845" y="1456" type="line"/>
      <point x="751" y="1034" type="line"/>
      <point x="1122" y="1182" type="line"/>
      <point x="1147" y="998" type="line"/>
      <point x="760" y="904" type="line"/>
      <point x="960" y="576" type="line"/>
      <point x="808" y="471" type="line"/>
      <point x="657" y="835" type="line"/>
      <point x="398" y="484" type="line"/>
      <point x="265" y="595" type="line"/>
    </contour>
  </outline>
</glyph>
<glyph name="plus" format="2">
  <advance width="1202"/>
  <unicode hex="002B"/>
  <outline>
    <contour>
      <point x="721" y="781" type="line"/>
      <point x="1116" y="781" type="line"/>
      <point x="1084" y="597" type="line"/>
      <point x="689" y="597" type="line"/>
      <point x="611" y="146" type="line"/>
      <point x="430" y="146" type="line"/>
      <point x="509" y="597" type="line"/>
      <point x="114" y="597" type="line"/>
      <point x="147" y="781" type="line"/>
      <point x="540" y="781" type="line"/>
      <point x="614" y="1206" type="line"/>
      <point x="795" y="1206" type="line"/>
    </contour>
  </outline>
</glyph>
<glyph name="comma" format="2">
  <advance width="1202"/>
  <unicode hex="002C"/>
  <outline>
    <contour>
      <point x="530" y="44" type="line" smooth="yes"/>
      <point x="520" y="-16"/>
      <point x="476" y="-130"/>
      <point x="444" y="-180" type="qcurve" smooth="yes"/>
      <point x="416" y="-224"/>
      <point x="345" y="-303"/>
      <point x="304" y="-336" type="qcurve"/>
      <point x="194" y="-271" type="line"/>
      <point x="247" y="-201"/>
      <point x="316" y="-47"/>
      <point x="331" y="40" type="qcurve" smooth="yes"/>
      <point x="363" y="219" type="line"/>
      <point x="559" y="219" type="line"/>
    </contour>
  </outline>
</glyph>
<glyph name="hyphen" format="2">
  <advance width="1202"/>
  <unicode hex="002D"/>
  <outline>
    <contour>
      <point x="947" y="561" type="line"/>
      <point x="204" y="561" type="line"/>
      <point x="231" y="713" type="line"/>
      <point x="974" y="713" type="line"/>
    </contour>
  </outline>
</glyph>
<glyph name="period" format="2">
  <advance width="1202"/>
  <unicode hex="002E"/>
  <outline>
    <contour>
      <point x="398" y="115" type="qcurve" smooth="yes"/>
      <point x="398.0" y="176.23699642315393"/>
      <point x="476.19250860378526" y="264.0"/>
      <point x="541" y="264" type="qcurve" smooth="yes"/>
      <point x="602.1952326959458" y="265.97403976438534"/>
      <point x="682.0" y="187.82621606784383"/>
      <point x="682" y="125" type="qcurve" smooth="yes"/>
      <point x="682.0" y="60.14710028946334"/>
      <point x="598.1952037336248" y="-20.0"/>
      <point x="537" y="-20" type="qcurve" smooth="yes"/>
      <point x="476.15540746113044" y="-20.0"/>
      <point x="398.0" y="55.821465744251846"/>
    </contour>
  </outline>
</glyph>
<glyph name="slash" format="2">
  <advance width="1202"/>
  <unicode hex="002F"/>
  <unicode hex="2215"/>
  <outline>
    <contour>
      <point x="285" y="-125" type="line"/>
      <point x="114" y="-125" type="line"/>
      <point x="978" y="1456" type="line"/>
      <point x="1148" y="1456" type="line"/>
    </contour>
  </outline>
</glyph>
<glyph name="zero" format="2">
  <advance width="1202"/>
  <unicode hex="0030"/>
  <outline>
    <contour>
      <point x="1051" y="559" type="line" smooth="yes"/>
      <point x="1040" y="485"/>
      <point x="998" y="340"/>
      <point x="966" y="276" type="qcurve" smooth="yes"/>
      <point x="927" y="198"/>
      <point x="814" y="68"/>
      <point x="739" y="29" type="qcurve" smooth="yes"/>
      <point x="690" y="4"/>
      <point x="575" y="-22"/>
      <point x="508" y="-20" type="qcurve" smooth="yes"/>
      <point x="428" y="-18"/>
      <point x="305" y="31"/>
      <point x="261" y="72" type="qcurve" smooth="yes" name="inserted"/>
      <point x="216" y="113"/>
      <point x="160" y="223"/>
      <point x="146" y="287" type="qcurve" smooth="yes" name="inserted"/>
      <point x="131" y="350"/>
      <point x="127" y="488"/>
      <point x="136" y="557" type="qcurve" smooth="yes"/>
      <point x="190" y="898" type="line" smooth="yes"/>
      <point x="201" y="972"/>
      <point x="243" y="1117"/>
      <point x="276" y="1182" type="qcurve" smooth="yes" name="inserted"/>
      <point x="308" y="1247"/>
      <point x="396" y="1357"/>
      <point x="453" y="1397" type="qcurve" smooth="yes" name="inserted"/>
      <point x="509" y="1436"/>
      <point x="649" y="1479"/>
      <point x="734" y="1477" type="qcurve" smooth="yes"/>
      <point x="843" y="1474"/>
      <point x="993" y="1389"/>
      <point x="1036" y="1319" type="qcurve" smooth="yes"/>
      <point x="1072" y="1262"/>
      <point x="1110" y="1118"/>
      <point x="1112" y="1047" type="qcurve" smooth="yes"/>
      <point x="1113" y="1015"/>
      <point x="1110" y="935"/>
      <point x="1105" y="898" type="qcurve" smooth="yes"/>
    </contour>
    <contour>
      <point x="725" y="1325" type="qcurve" smooth="yes"/>
      <point x="667" y="1327"/>
      <point x="573" y="1297"/>
      <point x="537" y="1269" type="qcurve" smooth="yes"/>
      <point x="502.30922745936" y="1240.81374731073"/>
      <point x="447.4164112059744" y="1164.5448971766714"/>
      <point x="427" y="1120" type="qcurve" smooth="yes"/>
      <point x="409" y="1078"/>
      <point x="385" y="986"/>
      <point x="378" y="939" type="qcurve" smooth="yes"/>
      <point x="334" y="673" type="line" smooth="yes"/>
      <point x="329" y="644"/>
      <point x="326" y="618"/>
      <point x="322" y="602" type="qcurve"/>
      <point x="944" y="1034" type="line"/>
      <point x="945" y="1091"/>
      <point x="925" y="1195"/>
      <point x="900" y="1235" type="qcurve" smooth="yes" name="inserted"/>
      <point x="874" y="1275"/>
      <point x="789" y="1323"/>
    </contour>
    <contour>
      <point x="517" y="130" type="qcurve" smooth="yes"/>
      <point x="566" y="128"/>
      <point x="649" y="150"/>
      <point x="682" y="171" type="qcurve" smooth="yes"/>
      <point x="728.153940191638" y="199.8462126197737"/>
      <point x="795.166712651387" y="289.9167816284675"/>
      <point x="816" y="342" type="qcurve" smooth="yes"/>
      <point x="833" y="383"/>
      <point x="856" y="473"/>
      <point x="863" y="518" type="qcurve" smooth="yes"/>
      <point x="898" y="731" type="line" smooth="yes"/>
      <point x="903" y="763"/>
      <point x="911" y="806"/>
      <point x="917" y="844" type="qcurve"/>
      <point x="298" y="416" type="line"/>
      <point x="297" y="360"/>
      <point x="318" y="258"/>
      <point x="344" y="219" type="qcurve" smooth="yes" name="inserted"/>
      <point x="369" y="180"/>
      <point x="454" y="132"/>
    </contour>
  </outline>
</glyph>
<glyph name="one" format="2">
  <advance width="1202"/>
  <unicode hex="0031"/>
  <outline>
    <contour>
      <point x="648" y="0" type="line"/>
      <point x="467" y="0" type="line"/>
      <point x="678" y="1215" type="line"/>
      <point x="282" y="1071" type="line"/>
      <point x="314" y="1248" type="line"/>
      <point x="876" y="1456" type="line"/>
      <point x="895" y="1456" type="line"/>
    </contour>
  </outline>
</glyph>
<glyph name="five" format="2">
  <advance width="1202"/>
  <unicode hex="0035"/>
  <outline>
    <contour>
      <point x="254" y="733" type="line"/>
      <point x="451" y="1456" type="line"/>
      <point x="1178" y="1456" type="line"/>
      <point x="1146" y="1276" type="line"/>
      <point x="575" y="1276" type="line"/>
      <point x="459" y="887" type="line"/>
      <point x="514.0" y="919.5" name="inserted"/>
      <point x="633.0" y="951.0"/>
      <point x="697" y="950" type="qcurve" smooth="yes"/>
      <point x="798" y="948"/>
      <point x="939" y="866"/>
      <point x="981.5" y="798.5" type="qcurve" smooth="yes" name="inserted"/>
      <point x="1024" y="731"/>
      <point x="1056" y="560"/>
      <point x="1047" y="470" type="qcurve" smooth="yes"/>
      <point x="1037" y="365"/>
      <point x="957" y="183"/>
      <point x="891.0" y="117.0" type="qcurve" smooth="yes" name="inserted"/>
      <point x="825" y="51"/>
      <point x="645" y="-23"/>
      <point x="535" y="-20" type="qcurve" smooth="yes"/>
      <point x="445" y="-18"/>
      <point x="302" y="42"/>
      <point x="251.5" y="95.5" type="qcurve" smooth="yes" name="inserted"/>
      <point x="201" y="149"/>
      <point x="146" y="296"/>
      <point x="143" y="384" type="qcurve"/>
      <point x="312" y="384" type="line"/>
      <point x="315" y="330"/>
      <point x="345" y="239"/>
      <point x="373.5" y="205.0" type="qcurve" smooth="yes" name="inserted"/>
      <point x="402" y="171"/>
      <point x="487" y="132"/>
      <point x="544" y="130" type="qcurve" smooth="yes"/>
      <point x="617" y="128"/>
      <point x="731" y="184"/>
      <point x="770.5" y="232.0" type="qcurve" smooth="yes" name="inserted"/>
      <point x="810" y="280"/>
      <point x="857" y="404"/>
      <point x="865" y="470" type="qcurve" smooth="yes"/>
      <point x="871" y="528"/>
      <point x="853" y="639"/>
      <point x="827.0" y="682.5" type="qcurve" smooth="yes" name="inserted"/>
      <point x="801" y="726"/>
      <point x="711" y="782"/>
      <point x="646" y="784" type="qcurve" smooth="yes"/>
      <point x="573" y="786"/>
      <point x="459" y="737"/>
      <point x="403" y="694" type="qcurve"/>
    </contour>
  </outline>
</glyph>
<glyph name="six" format="2">
  <advance width="1202"/>
  <unicode hex="0036"/>
  <outline>
    <contour>
      <point x="960" y="1458" type="line"/>
      <point x="943" y="1292" type="line"/>
      <point x="931" y="1292" type="line"/>
      <point x="849" y="1293"/>
      <point x="709" y="1259"/>
      <point x="650" y="1228" type="qcurve" smooth="yes"/>
      <point x="590" y="1193"/>
      <point x="489" y="1097"/>
      <point x="450" y="1037" type="qcurve" smooth="yes"/>
      <point x="418" y="988"/>
      <point x="366" y="872"/>
      <point x="346" y="809" type="qcurve"/>
      <point x="376" y="840"/>
      <point x="445" y="893"/>
      <point x="482" y="912" type="qcurve" smooth="yes"/>
      <point x="524" y="933"/>
      <point x="616" y="956"/>
      <point x="665" y="955" type="qcurve" smooth="yes"/>
      <point x="763" y="953"/>
      <point x="901" y="870"/>
      <point x="943" y="804" type="qcurve" smooth="yes" name="inserted"/>
      <point x="985" y="737"/>
      <point x="1017" y="569"/>
      <point x="1009" y="482" type="qcurve" smooth="yes"/>
      <point x="1000" y="380"/>
      <point x="923" y="196"/>
      <point x="859" y="127" type="qcurve" smooth="yes" name="inserted"/>
      <point x="795" y="57"/>
      <point x="619" y="-23"/>
      <point x="510" y="-20" type="qcurve" smooth="yes"/>
      <point x="399" y="-17"/>
      <point x="244" y="85"/>
      <point x="197" y="165" type="qcurve" smooth="yes" name="inserted"/>
      <point x="150" y="245"/>
      <point x="117" y="441"/>
      <point x="128" y="538" type="qcurve" smooth="yes"/>
      <point x="140" y="625" type="line" smooth="yes"/>
      <point x="156" y="738"/>
      <point x="218" y="950"/>
      <point x="265" y="1043" type="qcurve" smooth="yes" name="inserted"/>
      <point x="312" y="1135"/>
      <point x="441" y="1287"/>
      <point x="525" y="1342" type="qcurve" smooth="yes" name="inserted"/>
      <point x="608" y="1397"/>
      <point x="815" y="1458"/>
      <point x="940" y="1458" type="qcurve" smooth="yes"/>
    </contour>
    <contour>
      <point x="629" y="801" type="qcurve" smooth="yes"/>
      <point x="578" y="803"/>
      <point x="485" y="771"/>
      <point x="445.5" y="743.0" type="qcurve" smooth="yes" name="inserted"/>
      <point x="406" y="715"/>
      <point x="342" y="639"/>
      <point x="319" y="596" type="qcurve"/>
      <point x="311" y="532" type="line" smooth="yes"/>
      <point x="307" y="495"/>
      <point x="307" y="407"/>
      <point x="314.0" y="363.5" type="qcurve" smooth="yes" name="inserted"/>
      <point x="321" y="320"/>
      <point x="350" y="238"/>
      <point x="374.0" y="206.0" type="qcurve" smooth="yes" name="inserted"/>
      <point x="398" y="174"/>
      <point x="470" y="134"/>
      <point x="519" y="132" type="qcurve" smooth="yes"/>
      <point x="590" y="130"/>
      <point x="700" y="188"/>
      <point x="739.0" y="237.0" type="qcurve" smooth="yes" name="inserted"/>
      <point x="778" y="286"/>
      <point x="824" y="410"/>
      <point x="831" y="473" type="qcurve" smooth="yes"/>
      <point x="837" y="527"/>
      <point x="824" y="642"/>
      <point x="800.5" y="689.5" type="qcurve" smooth="yes" name="inserted"/>
      <point x="777" y="737"/>
      <point x="694" y="799"/>
    </contour>
  </outline>
</glyph>
<glyph name="nine" format="2">
  <advance width="1202"/>
  <unicode hex="0039"/>
  <outline>
    <contour>
      <point x="286" y="163" type="line" smooth="yes"/>
      <point x="357" y="162"/>
      <point x="480" y="184"/>
      <point x="532" y="205" type="qcurve" smooth="yes"/>
      <point x="605" y="234"/>
      <point x="718" y="331"/>
      <point x="760" y="394" type="qcurve" smooth="yes"/>
      <point x="793" y="444"/>
      <point x="845" y="564"/>
      <point x="865" y="633" type="qcurve"/>
      <point x="835" y="600"/>
      <point x="768" y="547"/>
      <point x="731" y="528" type="qcurve" smooth="yes"/>
      <point x="689" y="507"/>
      <point x="596" y="486"/>
      <point x="545" y="487" type="qcurve" smooth="yes"/>
      <point x="447" y="489"/>
      <point x="310" y="574"/>
      <point x="268" y="642" type="qcurve" smooth="yes" name="inserted"/>
      <point x="226" y="710"/>
      <point x="195" y="879"/>
      <point x="203" y="965" type="qcurve" smooth="yes"/>
      <point x="209" y="1029"/>
      <point x="244" y="1151"/>
      <point x="271" y="1205" type="qcurve" smooth="yes"/>
      <point x="304" y="1270"/>
      <point x="398" y="1376"/>
      <point x="459" y="1413" type="qcurve" smooth="yes"/>
      <point x="511" y="1444"/>
      <point x="634" y="1477"/>
      <point x="704" y="1476" type="qcurve" smooth="yes"/>
      <point x="784" y="1475"/>
      <point x="905" y="1423"/>
      <point x="950" y="1380" type="qcurve" smooth="yes" name="inserted"/>
      <point x="994" y="1337"/>
      <point x="1051" y="1222"/>
      <point x="1066" y="1158" type="qcurve" smooth="yes" name="inserted"/>
      <point x="1081" y="1093"/>
      <point x="1085" y="954"/>
      <point x="1077" y="887" type="qcurve" smooth="yes"/>
      <point x="1068" y="820" type="line" smooth="yes"/>
      <point x="1041" y="627"/>
      <point x="906" y="295"/>
      <point x="789" y="185" type="qcurve" smooth="yes"/>
      <point x="697" y="97"/>
      <point x="443" y="-2"/>
      <point x="277" y="-2" type="qcurve" smooth="yes"/>
      <point x="254" y="-2" type="line"/>
      <point x="270" y="163" type="line"/>
    </contour>
    <contour>
      <point x="582" y="640" type="qcurve" smooth="yes"/>
      <point x="634" y="638"/>
      <point x="729" y="672"/>
      <point x="769.0" y="702.0" type="qcurve" smooth="yes" name="inserted"/>
      <point x="809" y="732"/>
      <point x="874" y="811"/>
      <point x="897" y="855" type="qcurve"/>
      <point x="904" y="914" type="line" smooth="yes"/>
      <point x="907" y="951"/>
      <point x="907" y="1039"/>
      <point x="900.5" y="1084.0" type="qcurve" smooth="yes" name="inserted"/>
      <point x="894" y="1129"/>
      <point x="865" y="1214"/>
      <point x="841.0" y="1247.0" type="qcurve" smooth="yes" name="inserted"/>
      <point x="817" y="1280"/>
      <point x="746" y="1321"/>
      <point x="696" y="1323" type="qcurve" smooth="yes"/>
      <point x="624" y="1325"/>
      <point x="513" y="1264"/>
      <point x="474.0" y="1214.0" type="qcurve" smooth="yes" name="inserted"/>
      <point x="435" y="1164"/>
      <point x="389" y="1038"/>
      <point x="382" y="975" type="qcurve" smooth="yes"/>
      <point x="376" y="922"/>
      <point x="389" y="805"/>
      <point x="411.5" y="756.0" type="qcurve" smooth="yes" name="inserted"/>
      <point x="434" y="707"/>
      <point x="517" y="642"/>
    </contour>
  </outline>
</glyph>
<glyph name="less" format="2">
  <advance width="1202"/>
  <unicode hex="003C"/>
  <outline>
    <contour>
      <point x="161" y="580" type="line"/>
      <point x="187" y="726" type="line"/>
      <point x="1076" y="1104" type="line"/>
      <point x="1046" y="903" type="line"/>
      <point x="416" y="663" type="line"/>
      <point x="351" y="643" type="line"/>
      <point x="389" y="628" type="line"/>
      <point x="952" y="388" type="line"/>
      <point x="919" y="201" type="line"/>
    </contour>
  </outline>
</glyph>
<glyph name="question" format="2">
  <advance width="1202"/>
  <unicode hex="003F"/>
  <outline>
    <contour>
      <point x="470" y="409" type="line"/>
      <point x="481.82644928856485" y="533.1777175299303"/>
      <point x="566.5702382812736" y="677.7787451985878"/>
      <point x="664" y="761" type="qcurve" smooth="yes"/>
      <point x="703" y="794"/>
      <point x="787" y="868"/>
      <point x="823.5" y="910.0" type="qcurve" smooth="yes" name="inserted"/>
      <point x="860" y="952"/>
      <point x="912" y="1047"/>
      <point x="920" y="1101" type="qcurve" smooth="yes"/>
      <point x="927" y="1151"/>
      <point x="906" y="1230"/>
      <point x="881.0" y="1257.5" type="qcurve" smooth="yes" name="inserted"/>
      <point x="856" y="1285"/>
      <point x="779" y="1316"/>
      <point x="730" y="1317" type="qcurve" smooth="yes"/>
      <point x="680" y="1318"/>
      <point x="590" y="1293"/>
      <point x="554.0" y="1268.0" type="qcurve" smooth="yes" name="inserted"/>
      <point x="518" y="1243"/>
      <point x="468" y="1167"/>
      <point x="458" y="1117" type="qcurve"/>
      <point x="279" y="1116" type="line"/>
      <point x="289" y="1205"/>
      <point x="371" y="1341"/>
      <point x="433.5" y="1386.5" type="qcurve" smooth="yes" name="inserted"/>
      <point x="496" y="1432"/>
      <point x="654" y="1478"/>
      <point x="740" y="1476" type="qcurve" smooth="yes"/>
      <point x="824" y="1474"/>
      <point x="965" y="1424"/>
      <point x="1014.0" y="1377.0" type="qcurve" smooth="yes" name="inserted"/>
      <point x="1063" y="1330"/>
      <point x="1112" y="1194"/>
      <point x="1105" y="1106" type="qcurve" smooth="yes"/>
      <point x="1098" y="1028"/>
      <point x="1034" y="898"/>
      <point x="986.5" y="842.5" type="qcurve" smooth="yes" name="inserted"/>
      <point x="939" y="787"/>
      <point x="826" y="690"/>
      <point x="770" y="645" type="qcurve" smooth="yes"/>
      <point x="711" y="596"/>
      <point x="658" y="484"/>
      <point x="647" y="410" type="qcurve"/>
    </contour>
    <contour>
      <point x="388" y="94" type="qcurve" smooth="yes"/>
      <point x="389" y="143"/>
      <point x="450" y="208"/>
      <point x="500" y="210" type="qcurve" smooth="yes"/>
      <point x="548.0" y="212.0"/>
      <point x="612.0" y="148.0"/>
      <point x="612" y="100" type="qcurve"/>
      <point x="611" y="51"/>
      <point x="547" y="-10"/>
      <point x="499" y="-12" type="qcurve" smooth="yes"/>
      <point x="450.99999999999994" y="-14.0"/>
      <point x="388.0" y="46.0"/>
    </contour>
  </outline>
</glyph>
<glyph name="at" format="2">
  <advance width="1202"/>
  <unicode hex="0040"/>
  <outline>
    <contour>
      <point x="1160" y="795" type="qcurve" smooth="yes"/>
      <point x="1153" y="752"/>
      <point x="1131" y="647"/>
      <point x="1113.0" y="593.5" type="qcurve" smooth="yes" name="inserted"/>
      <point x="1095" y="540"/>
      <point x="1044" y="440"/>
      <point x="1009.5" y="401.5" type="qcurve" smooth="yes" name="inserted"/>
      <point x="975" y="363"/>
      <point x="886" y="317"/>
      <point x="830" y="318" type="qcurve" smooth="yes"/>
      <point x="770" y="320"/>
      <point x="699" y="383"/>
      <point x="688" y="440" type="qcurve"/>
      <point x="668" y="416"/>
      <point x="624" y="372"/>
      <point x="599.0" y="355.5" type="qcurve" smooth="yes" name="inserted"/>
      <point x="574" y="339"/>
      <point x="517" y="319"/>
      <point x="484" y="319" type="qcurve" smooth="yes"/>
      <point x="443" y="319"/>
      <point x="389" y="356"/>
      <point x="373.0" y="385.5" type="qcurve" smooth="yes" name="inserted"/>
      <point x="357" y="415"/>
      <point x="343" y="490"/>
      <point x="341.5" y="528.5" type="qcurve" smooth="yes" name="inserted"/>
      <point x="340" y="567"/>
      <point x="347" y="639"/>
      <point x="351" y="666" type="qcurve" smooth="yes"/>
      <point x="359" y="717"/>
      <point x="389" y="831"/>
      <point x="412.0" y="886.0" type="qcurve" smooth="yes" name="inserted"/>
      <point x="435" y="941"/>
      <point x="499" y="1041"/>
      <point x="540.5" y="1078.5" type="qcurve" smooth="yes" name="inserted"/>
      <point x="582" y="1116"/>
      <point x="685" y="1159"/>
      <point x="748" y="1157" type="qcurve" smooth="yes"/>
      <point x="802.5" y="1155.5" name="inserted"/>
      <point x="889.5" y="1110.0"/>
      <point x="922" y="1066" type="qcurve"/>
      <point x="804" y="561" type="line"/>
      <point x="801" y="543"/>
      <point x="796" y="499"/>
      <point x="799.0" y="479.0" type="qcurve" smooth="yes" name="inserted"/>
      <point x="802" y="459"/>
      <point x="825" y="431"/>
      <point x="851" y="430" type="qcurve" smooth="yes"/>
      <point x="889" y="428"/>
      <point x="946" y="467"/>
      <point x="967.5" y="499.0" type="qcurve" smooth="yes" name="inserted"/>
      <point x="989" y="531"/>
      <point x="1019" y="613"/>
      <point x="1029.0" y="654.0" type="qcurve" smooth="yes" name="inserted"/>
      <point x="1039" y="695"/>
      <point x="1050" y="770"/>
      <point x="1054" y="795" type="qcurve" smooth="yes"/>
      <point x="1068.0148567553053" y="909.1209764360563"/>
      <point x="1045.927991447581" y="1158.5857748933224"/>
      <point x="978.0" y="1239.5" type="qcurve" smooth="yes" name="inserted"/>
      <point x="944" y="1280"/>
      <point x="841" y="1330"/>
      <point x="768" y="1332" type="qcurve" smooth="yes"/>
      <point x="684" y="1334"/>
      <point x="541" y="1280"/>
      <point x="482.5" y="1231.5" type="qcurve" smooth="yes" name="inserted"/>
      <point x="424" y="1183"/>
      <point x="331" y="1052"/>
      <point x="296.5" y="979.5" type="qcurve" smooth="yes" name="inserted"/>
      <point x="262" y="907"/>
      <point x="216" y="754"/>
      <point x="204" y="684" type="qcurve" smooth="yes"/>
      <point x="193" y="621"/>
      <point x="185" y="489"/>
      <point x="192.0" y="426.5" type="qcurve" smooth="yes" name="inserted"/>
      <point x="199" y="364"/>
      <point x="239" y="254"/>
      <point x="276.5" y="212.0" type="qcurve" smooth="yes" name="inserted"/>
      <point x="314" y="170"/>
      <point x="427" y="121"/>
      <point x="507" y="120" type="qcurve" smooth="yes"/>
      <point x="570" y="120"/>
      <point x="688" y="155"/>
      <point x="742" y="184" type="qcurve"/>
      <point x="764" y="65" type="line"/>
      <point x="707" y="27"/>
      <point x="573" y="-8"/>
      <point x="505" y="-7" type="qcurve" smooth="yes"/>
      <point x="407" y="-6"/>
      <point x="260" y="52"/>
      <point x="208.5" y="101.5" type="qcurve" smooth="yes" name="inserted"/>
      <point x="157" y="151"/>
      <point x="95" y="285"/>
      <point x="81.0" y="361.5" type="qcurve" smooth="yes" name="inserted"/>
      <point x="67" y="438"/>
      <point x="69" y="603"/>
      <point x="82" y="685" type="qcurve" smooth="yes"/>
      <point x="96" y="770"/>
      <point x="153" y="952"/>
      <point x="196.5" y="1038.5" type="qcurve" smooth="yes" name="inserted"/>
      <point x="240" y="1125"/>
      <point x="356" y="1280"/>
      <point x="428.5" y="1337.5" type="qcurve" smooth="yes" name="inserted"/>
      <point x="501" y="1395"/>
      <point x="672" y="1460"/>
      <point x="772" y="1458" type="qcurve" smooth="yes"/>
      <point x="861" y="1456"/>
      <point x="995" y="1397"/>
      <point x="1041.5" y="1347.5" type="qcurve" smooth="yes" name="inserted"/>
      <point x="1134.5" y="1248.5"/>
      <point x="1182.0" y="941.0"/>
    </contour>
    <contour>
      <point x="476" y="666" type="qcurve" smooth="yes"/>
      <point x="474" y="654"/>
      <point x="468" y="615"/>
      <point x="466.5" y="591.5" type="qcurve" smooth="yes" name="inserted"/>
      <point x="465" y="568"/>
      <point x="467" y="521"/>
      <point x="473.0" y="501.5" type="qcurve" smooth="yes" name="inserted"/>
      <point x="479" y="482"/>
      <point x="503" y="456"/>
      <point x="523" y="455" type="qcurve" smooth="yes"/>
      <point x="552" y="453"/>
      <point x="601" y="473"/>
      <point x="621.5" y="490.5" type="qcurve" smooth="yes" name="inserted"/>
      <point x="642" y="508"/>
      <point x="677" y="551"/>
      <point x="691" y="573" type="qcurve"/>
      <point x="805" y="1023" type="line"/>
      <point x="792" y="1028"/>
      <point x="768" y="1035"/>
      <point x="754" y="1036" type="qcurve" smooth="yes"/>
      <point x="707" y="1039"/>
      <point x="633" y="1005"/>
      <point x="604.0" y="976.0" type="qcurve" smooth="yes" name="inserted"/>
      <point x="575" y="947"/>
      <point x="532" y="870"/>
      <point x="517.0" y="828.0" type="qcurve" smooth="yes" name="inserted"/>
      <point x="502" y="786"/>
      <point x="482" y="702"/>
    </contour>
  </outline>
</glyph>
<glyph name="A" format="2">
  <advance width="1202"/>
  <unicode hex="0041"/>
  <outline>
    <contour>
      <point x="807" y="377" type="line"/>
      <point x="338" y="377" type="line"/>
      <point x="158" y="0" type="line"/>
      <point x="-30" y="0" type="line"/>
      <point x="679" y="1456" type="line"/>
      <point x="831" y="1456" type="line"/>
      <point x="1026" y="0" type="line"/>
      <point x="853" y="0" type="line"/>
    </contour>
    <contour>
      <point x="413" y="538" type="line"/>
      <point x="788" y="538" type="line"/>
      <point x="712" y="1168" type="line"/>
    </contour>
  </outline>
</glyph>
<glyph name="B" format="2">
  <advance width="1202"/>
  <unicode hex="0042"/>
  <outline>
    <contour>
      <point x="62" y="0" type="line"/>
      <point x="315" y="1456" type="line"/>
      <point x="724" y="1455" type="line" smooth="yes"/>
      <point x="808" y="1452"/>
      <point x="961" y="1403"/>
      <point x="1018.5" y="1355.5" type="qcurve" smooth="yes" name="inserted"/>
      <point x="1076" y="1308"/>
      <point x="1138" y="1169"/>
      <point x="1130" y="1076" type="qcurve" smooth="yes"/>
      <point x="1125" y="1015"/>
      <point x="1078" y="918"/>
      <point x="1041.5" y="880.0" type="qcurve" smooth="yes" name="inserted"/>
      <point x="1005" y="842"/>
      <point x="910" y="783"/>
      <point x="858" y="761" type="qcurve"/>
      <point x="910" y="741"/>
      <point x="986" y="672"/>
      <point x="1011.0" y="628.5" type="qcurve" smooth="yes" name="inserted"/>
      <point x="1036" y="585"/>
      <point x="1057" y="483"/>
      <point x="1053" y="429" type="qcurve" smooth="yes"/>
      <point x="1046" y="326"/>
      <point x="952" y="166"/>
      <point x="879.5" y="111.0" type="qcurve" smooth="yes" name="inserted"/>
      <point x="807" y="56"/>
      <point x="623" y="0"/>
      <point x="527" y="0" type="qcurve" smooth="yes"/>
    </contour>
    <contour>
      <point x="362" y="681" type="line"/>
      <point x="271" y="157" type="line"/>
      <point x="537" y="155" type="line" smooth="yes"/>
      <point x="598" y="156"/>
      <point x="711" y="194"/>
      <point x="757.0" y="228.5" type="qcurve" smooth="yes" name="inserted"/>
      <point x="803" y="263"/>
      <point x="864" y="363"/>
      <point x="872" y="426" type="qcurve" smooth="yes"/>
      <point x="879" y="480"/>
      <point x="854" y="571"/>
      <point x="826.0" y="604.5" type="qcurve" smooth="yes" name="inserted"/>
      <point x="798" y="638"/>
      <point x="713" y="677"/>
      <point x="659" y="680" type="qcurve"/>
    </contour>
    <contour>
      <point x="389" y="835" type="line"/>
      <point x="629" y="833" type="line" smooth="yes"/>
      <point x="684" y="834"/>
      <point x="792" y="866"/>
      <point x="836.0" y="897.0" type="qcurve" smooth="yes" name="inserted"/>
      <point x="880" y="928"/>
      <point x="940" y="1018"/>
      <point x="947" y="1077" type="qcurve" smooth="yes"/>
      <point x="954" y="1131"/>
      <point x="923" y="1212"/>
      <point x="892.0" y="1239.0" type="qcurve" smooth="yes" name="inserted"/>
      <point x="861" y="1266"/>
      <point x="774" y="1295"/>
      <point x="725" y="1297" type="qcurve" smooth="yes"/>
      <point x="469" y="1298" type="line"/>
    </contour>
  </outline>
</glyph>
<glyph name="C" format="2">
  <advance width="1202"/>
  <unicode hex="0043"/>
  <outline>
    <contour>
      <point x="1046" y="440" type="line"/>
      <point x="1026" y="341"/>
      <point x="934" y="170"/>
      <point x="865.5" y="108.0" type="qcurve" smooth="yes" name="inserted"/>
      <point x="797" y="46"/>
      <point x="620" y="-23"/>
      <point x="515" y="-20" type="qcurve" smooth="yes"/>
      <point x="429" y="-18"/>
      <point x="296" y="39"/>
      <point x="247.5" y="86.5" type="qcurve" smooth="yes" name="inserted"/>
      <point x="199" y="134"/>
      <point x="137" y="260"/>
      <point x="120.5" y="331.0" type="qcurve" smooth="yes" name="inserted"/>
      <point x="104" y="402"/>
      <point x="100" y="553"/>
      <point x="110" y="626" type="qcurve" smooth="yes"/>
      <point x="142" y="829" type="line" smooth="yes"/>
      <point x="155" y="908"/>
      <point x="204" y="1066"/>
      <point x="240.5" y="1138.5" type="qcurve" smooth="yes" name="inserted"/>
      <point x="277" y="1211"/>
      <point x="375" y="1336"/>
      <point x="437.5" y="1381.5" type="qcurve" smooth="yes" name="inserted"/>
      <point x="500" y="1427"/>
      <point x="652" y="1478"/>
      <point x="743" y="1476" type="qcurve" smooth="yes"/>
      <point x="846" y="1474"/>
      <point x="998" y="1399"/>
      <point x="1049.0" y="1336.0" type="qcurve" smooth="yes" name="inserted"/>
      <point x="1100" y="1273"/>
      <point x="1153" y="1105"/>
      <point x="1157" y="1009" type="qcurve"/>
      <point x="978" y="1009" type="line"/>
      <point x="975" y="1069"/>
      <point x="949" y="1181"/>
      <point x="920.5" y="1225.0" type="qcurve" smooth="yes" name="inserted"/>
      <point x="892" y="1269"/>
      <point x="801" y="1324"/>
      <point x="733" y="1326" type="qcurve" smooth="yes"/>
      <point x="667" y="1328"/>
      <point x="560" y="1286"/>
      <point x="517.5" y="1249.5" type="qcurve" smooth="yes" name="inserted"/>
      <point x="475" y="1213"/>
      <point x="412" y="1113"/>
      <point x="388.5" y="1057.5" type="qcurve" smooth="yes" name="inserted"/>
      <point x="365" y="1002"/>
      <point x="334" y="885"/>
      <point x="325" y="831" type="qcurve" smooth="yes"/>
      <point x="291" y="625" type="line" smooth="yes"/>
      <point x="284" y="578"/>
      <point x="278" y="469"/>
      <point x="283.0" y="415.0" type="qcurve" smooth="yes" name="inserted"/>
      <point x="288" y="361"/>
      <point x="317" y="260"/>
      <point x="345.0" y="220.5" type="qcurve" smooth="yes" name="inserted"/>
      <point x="373" y="181"/>
      <point x="461" y="132"/>
      <point x="524" y="130" type="qcurve" smooth="yes"/>
      <point x="596" y="127"/>
      <point x="709" y="175"/>
      <point x="752.0" y="217.0" type="qcurve" smooth="yes" name="inserted"/>
      <point x="795" y="259"/>
      <point x="854" y="373"/>
      <point x="872" y="437" type="qcurve"/>
    </contour>
  </outline>
</glyph>
<glyph name="D" format="2">
  <advance width="1202"/>
  <unicode hex="0044"/>
  <outline>
    <contour>
      <point x="46" y="0" type="line"/>
      <point x="298" y="1456" type="line"/>
      <point x="614" y="1455" type="line" smooth="yes"/>
      <point x="716" y="1453"/>
      <point x="881" y="1395"/>
      <point x="944" y="1345" type="qcurve" smooth="yes"/>
      <point x="1002.7743466474183" y="1299.7889641173706"/>
      <point x="1086.6870560491668" y="1171.3187419949993"/>
      <point x="1110" y="1096" type="qcurve" smooth="yes"/>
      <point x="1131" y="1025"/>
      <point x="1143" y="866"/>
      <point x="1132" y="781" type="qcurve" smooth="yes"/>
      <point x="1117" y="674" type="line" smooth="yes"/>
      <point x="1102" y="578"/>
      <point x="1038" y="403"/>
      <point x="991" y="329" type="qcurve" smooth="yes"/>
      <point x="945" y="257"/>
      <point x="822" y="137"/>
      <point x="752" y="96" type="qcurve" smooth="yes"/>
      <point x="674" y="50"/>
      <point x="489" y="0"/>
      <point x="385" y="0" type="qcurve" smooth="yes"/>
    </contour>
    <contour>
      <point x="456" y="1304" type="line"/>
      <point x="256" y="151" type="line"/>
      <point x="389" y="150" type="line" smooth="yes"/>
      <point x="469" y="151"/>
      <point x="607" y="190"/>
      <point x="664" y="226" type="qcurve" smooth="yes"/>
      <point x="720" y="259"/>
      <point x="811" y="356"/>
      <point x="845" y="413" type="qcurve" smooth="yes"/>
      <point x="878" y="470"/>
      <point x="924" y="603"/>
      <point x="936" y="674" type="qcurve" smooth="yes"/>
      <point x="952" y="784" type="line" smooth="yes"/>
      <point x="961" y="851"/>
      <point x="957" y="982"/>
      <point x="941" y="1041" type="qcurve" smooth="yes"/>
      <point x="928.6744376650371" y="1092.3565097290127"/>
      <point x="878.0221131281709" y="1182.926419141733"/>
      <point x="841" y="1218" type="qcurve" smooth="yes"/>
      <point x="800" y="1255"/>
      <point x="686" y="1300"/>
      <point x="611" y="1303" type="qcurve" smooth="yes"/>
    </contour>
  </outline>
</glyph>
<glyph name="F" format="2">
  <advance width="1202"/>
  <unicode hex="0046"/>
  <outline>
    <contour>
      <point x="963" y="643" type="line"/>
      <point x="375" y="643" type="line"/>
      <point x="263" y="0" type="line"/>
      <point x="81" y="0" type="line"/>
      <point x="333" y="1456" type="line"/>
      <point x="1202" y="1456" type="line"/>
      <point x="1174" y="1298" type="line"/>
      <point x="489" y="1298" type="line"/>
      <point x="402" y="800" type="line"/>
      <point x="990" y="800" type="line"/>
    </contour>
  </outline>
</glyph>
<glyph name="I" format="2">
  <advance width="1202"/>
  <unicode hex="0049"/>
  <outline>
    <contour>
      <point x="317" y="1456" type="line"/>
      <point x="1172" y="1456" type="line"/>
      <point x="1143" y="1295" type="line"/>
      <point x="805" y="1295" type="line"/>
      <point x="608" y="160" type="line"/>
      <point x="947" y="160" type="line"/>
      <point x="919" y="0" type="line"/>
      <point x="64" y="0" type="line"/>
      <point x="92" y="160" type="line"/>
      <point x="423" y="160" type="line"/>
      <point x="620" y="1295" type="line"/>
      <point x="288" y="1295" type="line"/>
    </contour>
  </outline>
</glyph>
<glyph name="J" format="2">
  <advance width="1202"/>
  <unicode hex="004A"/>
  <outline>
    <contour>
      <point x="979" y="1456" type="line"/>
      <point x="1164" y="1456" type="line"/>
      <point x="991" y="443" type="line" smooth="yes"/>
      <point x="976" y="344"/>
      <point x="884" y="174"/>
      <point x="814.5" y="111.0" type="qcurve" smooth="yes" name="inserted"/>
      <point x="745" y="48"/>
      <point x="565" y="-22"/>
      <point x="463" y="-20" type="qcurve" smooth="yes"/>
      <point x="366" y="-18"/>
      <point x="218" y="51"/>
      <point x="167.5" y="110.5" type="qcurve" smooth="yes" name="inserted"/>
      <point x="117" y="170"/>
      <point x="64" y="330"/>
      <point x="63" y="422" type="qcurve"/>
      <point x="245" y="421" type="line"/>
      <point x="243" y="365"/>
      <point x="269" y="264"/>
      <point x="297.0" y="225.0" type="qcurve" smooth="yes" name="inserted"/>
      <point x="325" y="186"/>
      <point x="413" y="138"/>
      <point x="475" y="137" type="qcurve" smooth="yes"/>
      <point x="541" y="135"/>
      <point x="652" y="184"/>
      <point x="695.0" y="226.5" type="qcurve" smooth="yes" name="inserted"/>
      <point x="738" y="269"/>
      <point x="795" y="381"/>
      <point x="806" y="443" type="qcurve" smooth="yes"/>
    </contour>
  </outline>
</glyph>
<glyph name="K" format="2">
  <advance width="1202"/>
  <unicode hex="004B"/>
  <outline>
    <contour>
      <point x="528" y="674" type="line"/>
      <point x="331" y="483" type="line"/>
      <point x="247" y="0" type="line"/>
      <point x="62" y="0" type="line"/>
      <point x="315" y="1456" type="line"/>
      <point x="500" y="1456" type="line"/>
      <point x="377" y="756" type="line"/>
      <point x="535" y="921" type="line"/>
      <point x="1042" y="1456" type="line"/>
      <point x="1276" y="1456" type="line"/>
      <point x="662" y="810" type="line"/>
      <point x="1043" y="0" type="line"/>
      <point x="836" y="0" type="line"/>
    </contour>
  </outline>
</glyph>
<glyph name="M" format="2">
  <advance width="1202"/>
  <unicode hex="004D"/>
  <outline>
    <contour>
      <point x="511" y="1456" type="line"/>
      <point x="614" y="730" type="line"/>
      <point x="988" y="1456" type="line"/>
      <point x="1216" y="1456" type="line"/>
      <point x="964" y="0" type="line"/>
      <point x="788" y="0" type="line"/>
      <point x="890" y="590" type="line"/>
      <point x="1006" y="1172" type="line"/>
      <point x="617" y="405" type="line"/>
      <point x="512" y="405" type="line"/>
      <point x="405" y="1177" type="line"/>
      <point x="314" y="572" type="line"/>
      <point x="215" y="0" type="line"/>
      <point x="39" y="0" type="line"/>
      <point x="292" y="1456" type="line"/>
    </contour>
  </outline>
</glyph>
<glyph name="P" format="2">
  <advance width="1202"/>
  <unicode hex="0050"/>
  <outline>
    <contour>
      <point x="363" y="584" type="line"/>
      <point x="261" y="0" type="line"/>
      <point x="81" y="0" type="line"/>
      <point x="333" y="1456" type="line"/>
      <point x="780" y="1455" type="line" smooth="yes"/>
      <point x="872" y="1452"/>
      <point x="1027" y="1389"/>
      <point x="1081.5" y="1333.0" type="qcurve" smooth="yes" name="inserted"/>
      <point x="1136" y="1277"/>
      <point x="1191" y="1122"/>
      <point x="1183" y="1027" type="qcurve" smooth="yes"/>
      <point x="1174" y="922"/>
      <point x="1082" y="757"/>
      <point x="1009.5" y="700.0" type="qcurve" smooth="yes" name="inserted"/>
      <point x="937" y="643"/>
      <point x="752" y="583"/>
      <point x="652" y="583" type="qcurve" smooth="yes"/>
    </contour>
    <contour>
      <point x="389" y="736" type="line"/>
      <point x="657" y="734" type="line" smooth="yes"/>
      <point x="723" y="734"/>
      <point x="841" y="775"/>
      <point x="887.5" y="812.5" type="qcurve" smooth="yes" name="inserted"/>
      <point x="934" y="850"/>
      <point x="995" y="958"/>
      <point x="1003" y="1025" type="qcurve" smooth="yes"/>
      <point x="1010" y="1082"/>
      <point x="985" y="1181"/>
      <point x="955.5" y="1218.0" type="qcurve" smooth="yes" name="inserted"/>
      <point x="926" y="1255"/>
      <point x="835" y="1300"/>
      <point x="776" y="1303" type="qcurve" smooth="yes"/>
      <point x="488" y="1304" type="line"/>
    </contour>
  </outline>
</glyph>
<glyph name="Q" format="2">
  <advance width="1202"/>
  <unicode hex="0051"/>
  <outline>
    <contour>
      <point x="1113" y="664" type="line" smooth="yes"/>
      <point x="1099" y="580"/>
      <point x="1049" y="415"/>
      <point x="1010.5" y="340.0" type="qcurve" smooth="yes" name="inserted"/>
      <point x="972" y="265"/>
      <point x="866" y="133"/>
      <point x="796" y="81" type="qcurve"/>
      <point x="1003" y="-133" type="line"/>
      <point x="868" y="-246" type="line"/>
      <point x="633" y="-3" type="line"/>
      <point x="601" y="-11"/>
      <point x="536" y="-19"/>
      <point x="503" y="-18" type="qcurve" smooth="yes"/>
      <point x="414" y="-16"/>
      <point x="280" y="46"/>
      <point x="232.5" y="97.5" type="qcurve" smooth="yes" name="inserted"/>
      <point x="185" y="149"/>
      <point x="125" y="285"/>
      <point x="110.0" y="360.0" type="qcurve" smooth="yes" name="inserted"/>
      <point x="95" y="435"/>
      <point x="93" y="591"/>
      <point x="103" y="663" type="qcurve" smooth="yes"/>
      <point x="123" y="791" type="line" smooth="yes"/>
      <point x="136" y="870"/>
      <point x="185" y="1034"/>
      <point x="221.5" y="1110.5" type="qcurve" smooth="yes" name="inserted"/>
      <point x="258" y="1187"/>
      <point x="357" y="1323"/>
      <point x="420.5" y="1372.5" type="qcurve" smooth="yes" name="inserted"/>
      <point x="484" y="1422"/>
      <point x="639" y="1478"/>
      <point x="732" y="1476" type="qcurve" smooth="yes"/>
      <point x="821" y="1474"/>
      <point x="956" y="1411"/>
      <point x="1004.0" y="1359.5" type="qcurve" smooth="yes" name="inserted"/>
      <point x="1052" y="1308"/>
      <point x="1112" y="1172"/>
      <point x="1126.5" y="1096.5" type="qcurve" smooth="yes" name="inserted"/>
      <point x="1141" y="1021"/>
      <point x="1143" y="864"/>
      <point x="1133" y="791" type="qcurve" smooth="yes"/>
    </contour>
    <contour>
      <point x="953" y="794" type="line" smooth="yes"/>
      <point x="960" y="842"/>
      <point x="967" y="954"/>
      <point x="963.0" y="1011.0" type="qcurve" smooth="yes" name="inserted"/>
      <point x="959" y="1068"/>
      <point x="931" y="1175"/>
      <point x="903.0" y="1216.5" type="qcurve" smooth="yes" name="inserted"/>
      <point x="875" y="1258"/>
      <point x="785" y="1310"/>
      <point x="720" y="1312" type="qcurve" smooth="yes"/>
      <point x="652" y="1314"/>
      <point x="543" y="1269"/>
      <point x="499.5" y="1229.5" type="qcurve" smooth="yes" name="inserted"/>
      <point x="456" y="1190"/>
      <point x="391" y="1085"/>
      <point x="367.5" y="1026.5" type="qcurve" smooth="yes" name="inserted"/>
      <point x="344" y="968"/>
      <point x="313" y="848"/>
      <point x="304" y="793" type="qcurve" smooth="yes"/>
      <point x="283" y="662" type="line" smooth="yes"/>
      <point x="276" y="615"/>
      <point x="269" y="502"/>
      <point x="273.5" y="445.0" type="qcurve" smooth="yes" name="inserted"/>
      <point x="278" y="388"/>
      <point x="306" y="281"/>
      <point x="334.5" y="239.0" type="qcurve" smooth="yes" name="inserted"/>
      <point x="363" y="197"/>
      <point x="452" y="144"/>
      <point x="517" y="142" type="qcurve" smooth="yes"/>
      <point x="586" y="140"/>
      <point x="696" y="184"/>
      <point x="739.0" y="223.5" type="qcurve" smooth="yes" name="inserted"/>
      <point x="782" y="263"/>
      <point x="846" y="369"/>
      <point x="869.0" y="427.5" type="qcurve" smooth="yes" name="inserted"/>
      <point x="892" y="486"/>
      <point x="923" y="607"/>
      <point x="932" y="663" type="qcurve" smooth="yes"/>
    </contour>
  </outline>
</glyph>
<glyph name="R" format="2">
  <advance width="1202"/>
  <unicode hex="0052"/>
  <outline>
    <contour>
      <point x="640" y="594" type="line"/>
      <point x="354" y="594" type="line"/>
      <point x="251" y="0" type="line"/>
      <point x="71" y="0" type="line"/>
      <point x="324" y="1456" type="line"/>
      <point x="727" y="1455" type="line" smooth="yes"/>
      <point x="822" y="1452"/>
      <point x="982" y="1392"/>
      <point x="1038.0" y="1337.5" type="qcurve" smooth="yes" name="inserted"/>
      <point x="1094" y="1283"/>
      <point x="1151" y="1126"/>
      <point x="1143" y="1027" type="qcurve" smooth="yes"/>
      <point x="1137" y="952"/>
      <point x="1081" y="830"/>
      <point x="1036.5" y="781.0" type="qcurve" smooth="yes" name="inserted"/>
      <point x="992" y="732"/>
      <point x="877" y="658"/>
      <point x="811" y="631" type="qcurve"/>
      <point x="1006" y="13" type="line"/>
      <point x="1004" y="0" type="line"/>
      <point x="813" y="0" type="line"/>
    </contour>
    <contour>
      <point x="380" y="746" type="line"/>
      <point x="610" y="744" type="line" smooth="yes"/>
      <point x="674" y="744"/>
      <point x="794" y="783"/>
      <point x="841.5" y="819.5" type="qcurve" smooth="yes" name="inserted"/>
      <point x="889" y="856"/>
      <point x="953" y="962"/>
      <point x="961" y="1029" type="qcurve" smooth="yes"/>
      <point x="968" y="1090"/>
      <point x="941" y="1189"/>
      <point x="909.5" y="1224.5" type="qcurve" smooth="yes" name="inserted"/>
      <point x="878" y="1260"/>
      <point x="783" y="1300"/>
      <point x="723" y="1303" type="qcurve" smooth="yes"/>
      <point x="477" y="1304" type="line"/>
    </contour>
  </outline>
</glyph>
<glyph name="T" format="2">
  <advance width="1202"/>
  <unicode hex="0054"/>
  <outline>
    <contour>
      <point x="1243" y="1298" type="line"/>
      <point x="807" y="1298" type="line"/>
      <point x="582" y="0" type="line"/>
      <point x="406" y="0" type="line"/>
      <point x="631" y="1298" type="line"/>
      <point x="194" y="1298" type="line"/>
      <point x="222" y="1456" type="line"/>
      <point x="1271" y="1456" type="line"/>
    </contour>
  </outline>
</glyph>
<glyph name="U" format="2">
  <advance width="1202"/>
  <unicode hex="0055"/>
  <outline>
    <contour>
      <point x="1205" y="1456" type="line"/>
      <point x="1038" y="471" type="line" smooth="yes"/>
      <point x="1023" y="371"/>
      <point x="931" y="191"/>
      <point x="861.0" y="123.5" type="qcurve" smooth="yes" name="inserted"/>
      <point x="791" y="56"/>
      <point x="609" y="-22"/>
      <point x="503" y="-20" type="qcurve" smooth="yes"/>
      <point x="403" y="-18"/>
      <point x="249" y="65"/>
      <point x="198.5" y="132.5" type="qcurve" smooth="yes" name="inserted"/>
      <point x="148" y="200"/>
      <point x="104" y="375"/>
      <point x="115" y="469" type="qcurve"/>
      <point x="285" y="1456" type="line"/>
      <point x="457" y="1456" type="line"/>
      <point x="292" y="469" type="line" smooth="yes"/>
      <point x="285" y="410"/>
      <point x="303" y="294"/>
      <point x="330.0" y="247.0" type="qcurve" smooth="yes" name="inserted"/>
      <point x="357" y="200"/>
      <point x="448" y="139"/>
      <point x="515" y="137" type="qcurve" smooth="yes"/>
      <point x="586" y="135"/>
      <point x="703" y="190"/>
      <point x="746.5" y="237.0" type="qcurve" smooth="yes" name="inserted"/>
      <point x="790" y="284"/>
      <point x="846" y="406"/>
      <point x="858" y="470" type="qcurve" smooth="yes"/>
      <point x="1030" y="1456" type="line"/>
    </contour>
  </outline>
</glyph>
<glyph name="V" format="2">
  <advance width="1202"/>
  <unicode hex="0056"/>
  <outline>
    <contour>
      <point x="424" y="0" type="line"/>
      <point x="205" y="1456" type="line"/>
      <point x="393" y="1456" type="line"/>
      <point x="532" y="376" type="line"/>
      <point x="542" y="300" type="line"/>
      <point x="572" y="367" type="line"/>
      <point x="1056" y="1456" type="line"/>
      <point x="1254" y="1456" type="line"/>
      <point x="581" y="0" type="line"/>
    </contour>
  </outline>
</glyph>
<glyph name="W" format="2">
  <advance width="1202"/>
  <unicode hex="0057"/>
  <outline>
    <contour>
      <point x="149" y="0" type="line"/>
      <point x="205" y="1456" type="line"/>
      <point x="375" y="1456" type="line"/>
      <point x="323" y="503" type="line"/>
      <point x="317" y="401" type="line"/>
      <point x="350" y="503" type="line"/>
      <point x="662" y="1456" type="line"/>
      <point x="820" y="1456" type="line"/>
      <point x="834" y="473" type="line"/>
      <point x="835" y="396" type="line"/>
      <point x="855" y="475" type="line"/>
      <point x="1109" y="1456" type="line"/>
      <point x="1283" y="1456" type="line"/>
      <point x="883" y="0" type="line"/>
      <point x="699" y="0" type="line"/>
      <point x="691" y="972" type="line"/>
      <point x="690" y="1093" type="line"/>
      <point x="654" y="981" type="line"/>
      <point x="336" y="0" type="line"/>
    </contour>
  </outline>
</glyph>
<glyph name="Y" format="2">
  <advance width="1202"/>
  <unicode hex="0059"/>
  <outline>
    <contour>
      <point x="602" y="726" type="line"/>
      <point x="1050" y="1456" type="line"/>
      <point x="1265" y="1456" type="line"/>
      <point x="660" y="532" type="line"/>
      <point x="565" y="0" type="line"/>
      <point x="397" y="0" type="line"/>
      <point x="491" y="554" type="line"/>
      <point x="212" y="1456" type="line"/>
      <point x="408" y="1456" type="line"/>
    </contour>
  </outline>
</glyph>
<glyph name="Z" format="2">
  <advance width="1202"/>
  <unicode hex="005A"/>
  <outline>
    <contour>
      <point x="252" y="157" type="line"/>
      <point x="979" y="157" type="line"/>
      <point x="954" y="0" type="line"/>
      <point x="19" y="0" type="line"/>
      <point x="40" y="153" type="line"/>
      <point x="917" y="1298" type="line"/>
      <point x="231" y="1298" type="line"/>
      <point x="257" y="1456" type="line"/>
      <point x="1153" y="1456" type="line"/>
      <point x="1132" y="1306" type="line"/>
    </contour>
  </outline>
</glyph>
<glyph name="bracketleft" format="2">
  <advance width="1202"/>
  <unicode hex="005B"/>
  <outline>
    <contour>
      <point x="940" y="1512" type="line"/>
      <point x="726" y="1512" type="line"/>
      <point x="465" y="-160" type="line"/>
      <point x="680" y="-160" type="line"/>
      <point x="656" y="-312" type="line"/>
      <point x="270" y="-312" type="line"/>
      <point x="579" y="1664" type="line"/>
      <point x="965" y="1664" type="line"/>
    </contour>
  </outline>
</glyph>
<glyph name="asciicircum" format="2">
  <advance width="1202"/>
  <unicode hex="005E"/>
  <outline>
    <contour>
      <point x="232" y="677" type="line"/>
      <point x="678" y="1456" type="line"/>
      <point x="803" y="1456" type="line"/>
      <point x="977" y="677" type="line"/>
      <point x="819" y="677" type="line"/>
      <point x="711" y="1163" type="line"/>
      <point x="710" y="1232" type="line"/>
      <point x="682" y="1162" type="line"/>
      <point x="409" y="677" type="line"/>
    </contour>
  </outline>
</glyph>
<glyph name="a" format="2">
  <advance width="1202"/>
  <unicode hex="0061"/>
  <outline>
    <contour>
      <point x="764" y="0" type="line"/>
      <point x="756" y="30"/>
      <point x="756" y="88"/>
      <point x="759" y="118" type="qcurve"/>
      <point x="735" y="97"/>
      <point x="684" y="59"/>
      <point x="657" y="43" type="qcurve" smooth="yes"/>
      <point x="605" y="13"/>
      <point x="488" y="-20"/>
      <point x="424" y="-19" type="qcurve" smooth="yes"/>
      <point x="356" y="-18"/>
      <point x="235" y="26"/>
      <point x="191" y="66" type="qcurve" smooth="yes" name="inserted"/>
      <point x="146" y="106"/>
      <point x="97" y="220"/>
      <point x="101" y="292" type="qcurve" smooth="yes"/>
      <point x="105" y="362"/>
      <point x="154" y="470"/>
      <point x="193" y="511" type="qcurve" smooth="yes" name="inserted"/>
      <point x="232" y="551"/>
      <point x="334" y="607"/>
      <point x="392" y="625" type="qcurve" smooth="yes" name="inserted"/>
      <point x="449" y="642"/>
      <point x="572" y="657"/>
      <point x="632" y="657" type="qcurve" smooth="yes"/>
      <point x="838" y="656" type="line"/>
      <point x="851" y="742" type="line" smooth="yes"/>
      <point x="857" y="793"/>
      <point x="830" y="871"/>
      <point x="802" y="898" type="qcurve" smooth="yes" name="inserted"/>
      <point x="774" y="925"/>
      <point x="693" y="953"/>
      <point x="644" y="954" type="qcurve" smooth="yes"/>
      <point x="601" y="955"/>
      <point x="518" y="935"/>
      <point x="484" y="914" type="qcurve" smooth="yes" name="inserted"/>
      <point x="449" y="893"/>
      <point x="399" y="828"/>
      <point x="389" y="783" type="qcurve"/>
      <point x="208" y="782" type="line"/>
      <point x="217" y="864"/>
      <point x="305" y="985"/>
      <point x="370" y="1025" type="qcurve" smooth="yes" name="inserted"/>
      <point x="434" y="1065"/>
      <point x="588" y="1104"/>
      <point x="662" y="1103" type="qcurve" smooth="yes"/>
      <point x="744" y="1101"/>
      <point x="886" y="1053"/>
      <point x="937" y="1007" type="qcurve" smooth="yes" name="inserted"/>
      <point x="987" y="960"/>
      <point x="1039" y="826"/>
      <point x="1030" y="739" type="qcurve"/>
      <point x="946" y="236" type="line" smooth="yes"/>
      <point x="937" y="181"/>
      <point x="936" y="71"/>
      <point x="949" y="17" type="qcurve"/>
      <point x="947" y="0" type="line"/>
    </contour>
    <contour>
      <point x="459" y="140" type="qcurve" smooth="yes"/>
      <point x="508" y="139"/>
      <point x="601" y="163"/>
      <point x="642" y="185" type="qcurve" smooth="yes"/>
      <point x="681" y="207"/>
      <point x="750" y="268"/>
      <point x="777" y="305" type="qcurve"/>
      <point x="816" y="525" type="line"/>
      <point x="661" y="526" type="line" smooth="yes"/>
      <point x="606" y="526"/>
      <point x="481" y="512"/>
      <point x="426" y="490" type="qcurve" smooth="yes" name="inserted"/>
      <point x="401" y="480"/>
      <point x="357" y="453"/>
      <point x="339" y="435" type="qcurve" smooth="yes"/>
      <point x="318" y="413"/>
      <point x="289" y="356"/>
      <point x="285" y="319" type="qcurve" smooth="yes"/>
      <point x="280" y="276"/>
      <point x="302" y="210"/>
      <point x="326" y="188" type="qcurve" smooth="yes" name="inserted"/>
      <point x="350" y="165"/>
      <point x="418" y="141"/>
    </contour>
  </outline>
</glyph>
<glyph name="b" format="2">
  <advance width="1202"/>
  <unicode hex="0062"/>
  <outline>
    <contour>
      <point x="1047" y="535" type="line" smooth="yes"/>
      <point x="1038" y="468"/>
      <point x="1001" y="333"/>
      <point x="972" y="271" type="qcurve" smooth="yes" name="inserted"/>
      <point x="943" y="209"/>
      <point x="863" y="101"/>
      <point x="811" y="61" type="qcurve" smooth="yes" name="inserted"/>
      <point x="759" y="21"/>
      <point x="631" y="-23"/>
      <point x="554" y="-21" type="qcurve" smooth="yes"/>
      <point x="498" y="-20"/>
      <point x="395" y="9"/>
      <point x="353" y="38" type="qcurve" smooth="yes"/>
      <point x="329" y="55"/>
      <point x="287" y="97"/>
      <point x="269" y="124" type="qcurve"/>
      <point x="233" y="0" type="line"/>
      <point x="65" y="0" type="line"/>
      <point x="332" y="1536" type="line"/>
      <point x="513" y="1536" type="line"/>
      <point x="405" y="965" type="line"/>
      <point x="428" y="990"/>
      <point x="477" y="1032"/>
      <point x="504" y="1048" type="qcurve" smooth="yes"/>
      <point x="550" y="1076"/>
      <point x="656" y="1103"/>
      <point x="715" y="1102" type="qcurve" smooth="yes"/>
      <point x="788" y="1100"/>
      <point x="899" y="1052"/>
      <point x="939" y="1012" type="qcurve" smooth="yes" name="inserted"/>
      <point x="978" y="971"/>
      <point x="1027" y="865"/>
      <point x="1040" y="805" type="qcurve" smooth="yes" name="inserted"/>
      <point x="1052" y="744"/>
      <point x="1056" y="617"/>
      <point x="1049" y="556" type="qcurve" smooth="yes"/>
    </contour>
    <contour>
      <point x="869" y="557" type="line" smooth="yes"/>
      <point x="875" y="607"/>
      <point x="874" y="717"/>
      <point x="862" y="768" type="qcurve" smooth="yes"/>
      <point x="855" y="804"/>
      <point x="823" y="865"/>
      <point x="800" y="891" type="qcurve" smooth="yes"/>
      <point x="777" y="916"/>
      <point x="707" y="944"/>
      <point x="661" y="945" type="qcurve" smooth="yes"/>
      <point x="614" y="946"/>
      <point x="534" y="922"/>
      <point x="500" y="900" type="qcurve" smooth="yes" name="inserted"/>
      <point x="465" y="877"/>
      <point x="406" y="815"/>
      <point x="381" y="779" type="qcurve"/>
      <point x="299" y="303" type="line"/>
      <point x="312" y="267"/>
      <point x="350" y="209"/>
      <point x="375" y="188" type="qcurve" smooth="yes"/>
      <point x="403" y="164"/>
      <point x="475" y="137"/>
      <point x="519" y="136" type="qcurve" smooth="yes"/>
      <point x="569" y="135"/>
      <point x="653" y="161"/>
      <point x="688" y="185" type="qcurve" smooth="yes"/>
      <point x="721" y="208"/>
      <point x="776" y="274"/>
      <point x="797" y="313" type="qcurve" smooth="yes"/>
      <point x="824" y="364"/>
      <point x="858" y="479"/>
      <point x="866" y="536" type="qcurve" smooth="yes"/>
    </contour>
  </outline>
</glyph>
<glyph name="c" format="2">
  <advance width="1202"/>
  <unicode hex="0063"/>
  <outline>
    <contour>
      <point x="533" y="129" type="qcurve" smooth="yes"/>
      <point x="582" y="128"/>
      <point x="678" y="157"/>
      <point x="718" y="185" type="qcurve" smooth="yes" name="inserted"/>
      <point x="757" y="212"/>
      <point x="813" y="291"/>
      <point x="824" y="340" type="qcurve"/>
      <point x="995" y="341" type="line"/>
      <point x="986" y="258"/>
      <point x="896" y="123"/>
      <point x="830" y="76" type="qcurve" smooth="yes" name="inserted"/>
      <point x="764" y="28"/>
      <point x="604" y="-23"/>
      <point x="525" y="-21" type="qcurve" smooth="yes"/>
      <point x="442" y="-19"/>
      <point x="312" y="32"/>
      <point x="264" y="75" type="qcurve" smooth="yes"/>
      <point x="219" y="118"/>
      <point x="154" y="235"/>
      <point x="138" y="302" type="qcurve" smooth="yes"/>
      <point x="127" y="352"/>
      <point x="122" y="461"/>
      <point x="127" y="517" type="qcurve" smooth="yes"/>
      <point x="132" y="560" type="line" smooth="yes"/>
      <point x="145.5548284302596" y="669.9447194898834"/>
      <point x="236.5777966596889" y="869.6259463813296"/>
      <point x="308" y="947" type="qcurve" smooth="yes"/>
      <point x="378.2896647205341" y="1020.3457370996878"/>
      <point x="571.0635923176463" y="1104.9727284021117"/>
      <point x="687" y="1102" type="qcurve" smooth="yes"/>
      <point x="771" y="1100"/>
      <point x="913" y="1040"/>
      <point x="964" y="989" type="qcurve" smooth="yes" name="inserted"/>
      <point x="1014" y="937"/>
      <point x="1068" y="794"/>
      <point x="1064" y="709" type="qcurve"/>
      <point x="894" y="710" type="line"/>
      <point x="896" y="760"/>
      <point x="868" y="846"/>
      <point x="840" y="879" type="qcurve" smooth="yes" name="inserted"/>
      <point x="811" y="911"/>
      <point x="729" y="949"/>
      <point x="677" y="951" type="qcurve" smooth="yes"/>
      <point x="620" y="953"/>
      <point x="525" y="922"/>
      <point x="486" y="893" type="qcurve" smooth="yes"/>
      <point x="449" y="866"/>
      <point x="391" y="792"/>
      <point x="370" y="749" type="qcurve" smooth="yes"/>
      <point x="348" y="706"/>
      <point x="319" y="609"/>
      <point x="312" y="560" type="qcurve" smooth="yes"/>
      <point x="307" y="518" type="line" smooth="yes"/>
      <point x="302" y="475"/>
      <point x="302" y="385"/>
      <point x="310" y="343" type="qcurve" smooth="yes" name="inserted"/>
      <point x="317" y="300"/>
      <point x="349" y="223"/>
      <point x="376" y="195" type="qcurve" smooth="yes" name="inserted"/>
      <point x="403" y="166"/>
      <point x="480" y="130"/>
    </contour>
  </outline>
</glyph>
<glyph name="d" format="2">
  <advance width="1202"/>
  <unicode hex="0064"/>
  <outline>
    <contour>
      <point x="126" y="543" type="line" smooth="yes"/>
      <point x="134" y="610"/>
      <point x="172" y="746"/>
      <point x="202" y="809" type="qcurve" smooth="yes" name="inserted"/>
      <point x="232" y="872"/>
      <point x="315" y="980"/>
      <point x="368" y="1020" type="qcurve" smooth="yes" name="inserted"/>
      <point x="420" y="1060"/>
      <point x="550" y="1104"/>
      <point x="627" y="1102" type="qcurve" smooth="yes"/>
      <point x="677" y="1101"/>
      <point x="768" y="1078"/>
      <point x="808" y="1055" type="qcurve" smooth="yes"/>
      <point x="833" y="1040"/>
      <point x="879" y="1000"/>
      <point x="899" y="974" type="qcurve"/>
      <point x="1003" y="1536" type="line"/>
      <point x="1184" y="1536" type="line"/>
      <point x="917" y="0" type="line"/>
      <point x="753" y="0" type="line"/>
      <point x="772" y="114" type="line"/>
      <point x="747" y="87"/>
      <point x="692" y="44"/>
      <point x="663" y="28" type="qcurve" smooth="yes"/>
      <point x="618" y="3"/>
      <point x="517" y="-21"/>
      <point x="461" y="-20" type="qcurve" smooth="yes"/>
      <point x="391" y="-18"/>
      <point x="282" y="31"/>
      <point x="243" y="72" type="qcurve" smooth="yes" name="inserted"/>
      <point x="203" y="113"/>
      <point x="152" y="220"/>
      <point x="138" y="280" type="qcurve" smooth="yes" name="inserted"/>
      <point x="124" y="339"/>
      <point x="118" y="463"/>
      <point x="124" y="522" type="qcurve" smooth="yes"/>
    </contour>
    <contour>
      <point x="304" y="522" type="line" smooth="yes"/>
      <point x="299" y="482"/>
      <point x="299" y="394"/>
      <point x="306" y="352" type="qcurve" smooth="yes" name="inserted"/>
      <point x="312" y="309"/>
      <point x="340" y="233"/>
      <point x="365" y="204" type="qcurve" smooth="yes" name="inserted"/>
      <point x="390" y="174"/>
      <point x="464" y="138"/>
      <point x="515" y="137" type="qcurve" smooth="yes"/>
      <point x="565" y="135"/>
      <point x="651" y="163"/>
      <point x="687" y="188" type="qcurve" smooth="yes"/>
      <point x="715" y="208"/>
      <point x="765" y="261"/>
      <point x="787" y="291" type="qcurve"/>
      <point x="874" y="796" type="line"/>
      <point x="859" y="831"/>
      <point x="818" y="886"/>
      <point x="791" y="905" type="qcurve" smooth="yes"/>
      <point x="764" y="924"/>
      <point x="699" y="945"/>
      <point x="661" y="946" type="qcurve" smooth="yes"/>
      <point x="577" y="949"/>
      <point x="453" y="877"/>
      <point x="410" y="819" type="qcurve" smooth="yes" name="inserted"/>
      <point x="367" y="760"/>
      <point x="316" y="615"/>
      <point x="307" y="543" type="qcurve" smooth="yes"/>
    </contour>
  </outline>
</glyph>
<glyph name="e" format="2">
  <advance width="1202"/>
  <unicode hex="0065"/>
  <outline>
    <contour>
      <point x="540" y="-20" type="qcurve" smooth="yes"/>
      <point x="430" y="-18"/>
      <point x="263" y="68"/>
      <point x="209.0" y="139.0" type="qcurve" smooth="yes" name="inserted"/>
      <point x="155" y="210"/>
      <point x="108" y="396"/>
      <point x="117" y="500" type="qcurve" smooth="yes"/>
      <point x="122" y="543" type="line" smooth="yes"/>
      <point x="130" y="614"/>
      <point x="176" y="753"/>
      <point x="212.5" y="816.0" type="qcurve" smooth="yes" name="inserted"/>
      <point x="249" y="879"/>
      <point x="346" y="985"/>
      <point x="405.5" y="1023.5" type="qcurve" smooth="yes" name="inserted"/>
      <point x="465" y="1062"/>
      <point x="604" y="1104"/>
      <point x="681" y="1102" type="qcurve" smooth="yes"/>
      <point x="793" y="1099"/>
      <point x="947" y="1008"/>
      <point x="992.0" y="934.0" type="qcurve" smooth="yes" name="inserted"/>
      <point x="1037" y="860"/>
      <point x="1067" y="671"/>
      <point x="1054" y="571" type="qcurve" smooth="yes"/>
      <point x="1041" y="488" type="line"/>
      <point x="296" y="488" type="line"/>
      <point x="288" y="422"/>
      <point x="313" y="296"/>
      <point x="345.0" y="246.0" type="qcurve" smooth="yes" name="inserted"/>
      <point x="377" y="196"/>
      <point x="483" y="134"/>
      <point x="556" y="132" type="qcurve" smooth="yes"/>
      <point x="650" y="129"/>
      <point x="809" y="209"/>
      <point x="873" y="275" type="qcurve"/>
      <point x="977" y="187" type="line"/>
      <point x="903.0" y="83.0"/>
      <point x="665.9999999999999" y="-22.0"/>
    </contour>
    <contour>
      <point x="672" y="950" type="qcurve" smooth="yes"/>
      <point x="602" y="953"/>
      <point x="490" y="900"/>
      <point x="446.5" y="856.0" type="qcurve" smooth="yes" name="inserted"/>
      <point x="403" y="812"/>
      <point x="339" y="698"/>
      <point x="318" y="640" type="qcurve"/>
      <point x="882" y="638" type="line"/>
      <point x="886" y="656" type="line"/>
      <point x="895" y="711"/>
      <point x="875" y="815"/>
      <point x="847.0" y="856.0" type="qcurve" smooth="yes" name="inserted"/>
      <point x="819" y="897"/>
      <point x="731" y="948"/>
    </contour>
  </outline>
</glyph>
<glyph name="f" format="2">
  <advance width="1202"/>
  <unicode hex="0066"/>
  <outline>
    <contour>
      <point x="332" y="0" type="line"/>
      <point x="495" y="939" type="line"/>
      <point x="205" y="939" type="line"/>
      <point x="231" y="1082" type="line"/>
      <point x="519" y="1082" type="line"/>
      <point x="530" y="1158" type="line" smooth="yes"/>
      <point x="543" y="1254"/>
      <point x="620" y="1411"/>
      <point x="680.5" y="1466.5" type="qcurve" smooth="yes" name="inserted"/>
      <point x="741" y="1522"/>
      <point x="904" y="1581"/>
      <point x="1004" y="1580" type="qcurve" smooth="yes"/>
      <point x="1069" y="1579"/>
      <point x="1194" y="1555"/>
      <point x="1257" y="1539" type="qcurve"/>
      <point x="1220" y="1387" type="line"/>
      <point x="1171" y="1404"/>
      <point x="1070" y="1424"/>
      <point x="1018" y="1425" type="qcurve" smooth="yes"/>
      <point x="953" y="1426"/>
      <point x="849" y="1390"/>
      <point x="810.0" y="1355.5" type="qcurve" smooth="yes" name="inserted"/>
      <point x="771" y="1321"/>
      <point x="722" y="1222"/>
      <point x="712" y="1159" type="qcurve" smooth="yes"/>
      <point x="701" y="1082" type="line"/>
      <point x="1106" y="1082" type="line"/>
      <point x="1081" y="939" type="line"/>
      <point x="677" y="939" type="line"/>
      <point x="514" y="0" type="line"/>
    </contour>
  </outline>
</glyph>
<glyph name="g" format="2">
  <advance width="1202"/>
  <unicode hex="0067"/>
  <outline>
    <contour>
      <point x="127" y="543" type="line" smooth="yes"/>
      <point x="136" y="610"/>
      <point x="173" y="747"/>
      <point x="203" y="810" type="qcurve" smooth="yes" name="inserted"/>
      <point x="233" y="873"/>
      <point x="314" y="981"/>
      <point x="367" y="1021" type="qcurve" smooth="yes" name="inserted"/>
      <point x="420" y="1061"/>
      <point x="549" y="1105"/>
      <point x="627" y="1103" type="qcurve" smooth="yes"/>
      <point x="680" y="1102"/>
      <point x="777" y="1076"/>
      <point x="817" y="1049" type="qcurve" smooth="yes"/>
      <point x="842" y="1033"/>
      <point x="887" y="990"/>
      <point x="905" y="963" type="qcurve"/>
      <point x="940" y="1082" type="line"/>
      <point x="1106" y="1082" type="line"/>
      <point x="926" y="23" type="line" smooth="yes"/>
      <point x="912" y="-78"/>
      <point x="827" y="-246"/>
      <point x="761" y="-305" type="qcurve" smooth="yes" name="inserted"/>
      <point x="694" y="-365"/>
      <point x="519" y="-430"/>
      <point x="414" y="-427" type="qcurve" smooth="yes"/>
      <point x="306.0" y="-425.00000000000006"/>
      <point x="106.99999999999999" y="-328.0"/>
      <point x="45" y="-238" type="qcurve"/>
      <point x="148" y="-127" type="line"/>
      <point x="195" y="-194"/>
      <point x="324" y="-274"/>
      <point x="408" y="-276" type="qcurve" smooth="yes"/>
      <point x="477" y="-278"/>
      <point x="590" y="-237"/>
      <point x="633" y="-199" type="qcurve" smooth="yes" name="inserted"/>
      <point x="675" y="-161"/>
      <point x="732" y="-53"/>
      <point x="745" y="12" type="qcurve" smooth="yes"/>
      <point x="765" y="107" type="line"/>
      <point x="741" y="83"/>
      <point x="690" y="43"/>
      <point x="662" y="28" type="qcurve" smooth="yes"/>
      <point x="618" y="3"/>
      <point x="517" y="-21"/>
      <point x="461" y="-20" type="qcurve" smooth="yes"/>
      <point x="390" y="-18"/>
      <point x="281" y="31"/>
      <point x="242" y="72" type="qcurve" smooth="yes" name="inserted"/>
      <point x="202" y="112"/>
      <point x="151" y="219"/>
      <point x="138" y="279" type="qcurve" smooth="yes" name="inserted"/>
      <point x="124" y="338"/>
      <point x="118" y="463"/>
      <point x="125" y="522" type="qcurve" smooth="yes"/>
    </contour>
    <contour>
      <point x="305" y="522" type="line" smooth="yes"/>
      <point x="300" y="482"/>
      <point x="300" y="394"/>
      <point x="306" y="352" type="qcurve" smooth="yes" name="inserted"/>
      <point x="312" y="310"/>
      <point x="341" y="233"/>
      <point x="366" y="204" type="qcurve" smooth="yes" name="inserted"/>
      <point x="391" y="174"/>
      <point x="464" y="138"/>
      <point x="516" y="136" type="qcurve" smooth="yes"/>
      <point x="559" y="135"/>
      <point x="635" y="156"/>
      <point x="667" y="175" type="qcurve" smooth="yes"/>
      <point x="702" y="196"/>
      <point x="763" y="257"/>
      <point x="789" y="294" type="qcurve"/>
      <point x="874" y="793" type="line"/>
      <point x="862" y="824"/>
      <point x="827" y="876"/>
      <point x="805" y="895" type="qcurve" smooth="yes"/>
      <point x="777" y="918"/>
      <point x="705" y="945"/>
      <point x="661" y="946" type="qcurve" smooth="yes"/>
      <point x="577" y="949"/>
      <point x="453" y="877"/>
      <point x="411" y="819" type="qcurve" smooth="yes" name="inserted"/>
      <point x="368" y="760"/>
      <point x="318" y="615"/>
      <point x="308" y="543" type="qcurve" smooth="yes"/>
    </contour>
  </outline>
</glyph>
<glyph name="i" format="2">
  <advance width="1202"/>
  <unicode hex="0069"/>
  <outline>
    <contour>
      <point x="280" y="1082" type="line"/>
      <point x="818" y="1082" type="line"/>
      <point x="658" y="160" type="line"/>
      <point x="1001" y="160" type="line"/>
      <point x="972" y="0" type="line"/>
      <point x="92" y="0" type="line"/>
      <point x="121" y="160" type="line"/>
      <point x="477" y="160" type="line"/>
      <point x="609" y="921" type="line"/>
      <point x="252" y="921" type="line"/>
    </contour>
    <contour>
      <point x="663" y="1363" type="qcurve" smooth="yes"/>
      <point x="664" y="1411"/>
      <point x="724" y="1474"/>
      <point x="772" y="1476" type="qcurve" smooth="yes"/>
      <point x="819.1586493643313" y="1477.9649437235137"/>
      <point x="879.0" y="1417.8719167917948"/>
      <point x="879" y="1369" type="qcurve" smooth="yes"/>
      <point x="879" y="1321"/>
      <point x="819" y="1262"/>
      <point x="771" y="1260" type="qcurve" smooth="yes"/>
      <point x="724" y="1258"/>
      <point x="663" y="1315"/>
    </contour>
  </outline>
</glyph>
<glyph name="l" format="2">
  <advance width="1202"/>
  <unicode hex="006C"/>
  <outline>
    <contour>
      <point x="359" y="1536" type="line"/>
      <point x="897" y="1536" type="line"/>
      <point x="658" y="160" type="line"/>
      <point x="1001" y="160" type="line"/>
      <point x="972" y="0" type="line"/>
      <point x="92" y="0" type="line"/>
      <point x="121" y="160" type="line"/>
      <point x="477" y="160" type="line"/>
      <point x="688" y="1375" type="line"/>
      <point x="330" y="1375" type="line"/>
    </contour>
  </outline>
</glyph>
<glyph name="m" format="2">
  <advance width="1202"/>
  <unicode hex="006D"/>
  <outline>
    <contour>
      <point x="334" y="1083" type="line"/>
      <point x="314" y="980" type="line"/>
      <point x="356" y="1037"/>
      <point x="464" y="1103"/>
      <point x="536" y="1102" type="qcurve" smooth="yes"/>
      <point x="567" y="1102"/>
      <point x="623" y="1089"/>
      <point x="647" y="1075" type="qcurve" smooth="yes" name="inserted"/>
      <point x="670" y="1061"/>
      <point x="705" y="1017"/>
      <point x="714" y="987" type="qcurve"/>
      <point x="756" y="1039"/>
      <point x="862" y="1102"/>
      <point x="932" y="1102" type="qcurve" smooth="yes"/>
      <point x="995" y="1101"/>
      <point x="1079" y="1051"/>
      <point x="1103" y="1010" type="qcurve" smooth="yes" name="inserted"/>
      <point x="1126" y="968"/>
      <point x="1141" y="863"/>
      <point x="1136" y="808" type="qcurve"/>
      <point x="1001" y="0" type="line"/>
      <point x="829" y="0" type="line"/>
      <point x="965" y="811" type="line"/>
      <point x="968" y="839"/>
      <point x="962" y="888"/>
      <point x="952" y="907" type="qcurve" smooth="yes" name="inserted"/>
      <point x="941" y="925"/>
      <point x="900" y="946"/>
      <point x="869" y="946" type="qcurve" smooth="yes"/>
      <point x="839" y="946"/>
      <point x="787" y="927"/>
      <point x="767" y="909" type="qcurve" smooth="yes"/>
      <point x="751" y="895"/>
      <point x="727" y="857"/>
      <point x="721" y="834" type="qcurve"/>
      <point x="579" y="0" type="line"/>
      <point x="407" y="0" type="line"/>
      <point x="544" y="812" type="line"/>
      <point x="547" y="839"/>
      <point x="542" y="886"/>
      <point x="532" y="904" type="qcurve" smooth="yes" name="inserted"/>
      <point x="521" y="922"/>
      <point x="483" y="944"/>
      <point x="453" y="945" type="qcurve" smooth="yes"/>
      <point x="427" y="946"/>
      <point x="382" y="934"/>
      <point x="364" y="922" type="qcurve" smooth="yes"/>
      <point x="348" y="912"/>
      <point x="319" y="881"/>
      <point x="307" y="862" type="qcurve"/>
      <point x="158" y="0" type="line"/>
      <point x="-14" y="0" type="line"/>
      <point x="173" y="1082" type="line"/>
    </contour>
  </outline>
</glyph>
<glyph name="o" format="2">
  <advance width="1202"/>
  <unicode hex="006F"/>
  <outline>
    <contour>
      <point x="110" y="544" type="line" smooth="yes"/>
      <point x="124" y="658"/>
      <point x="216" y="869"/>
      <point x="292" y="947" type="qcurve" smooth="yes"/>
      <point x="362" y="1018"/>
      <point x="549" y="1105"/>
      <point x="665" y="1102" type="qcurve" smooth="yes"/>
      <point x="746" y="1100"/>
      <point x="877" y="1049"/>
      <point x="922" y="1007" type="qcurve" smooth="yes"/>
      <point x="959" y="973"/>
      <point x="1018.0000000000001" y="883.0"/>
      <point x="1036" y="831" type="qcurve" smooth="yes"/>
      <point x="1058" y="768"/>
      <point x="1072" y="626"/>
      <point x="1064" y="554" type="qcurve" smooth="yes"/>
      <point x="1062" y="531" type="line" smooth="yes"/>
      <point x="1048" y="422"/>
      <point x="959" y="220"/>
      <point x="888" y="144" type="qcurve" smooth="yes" name="inserted"/>
      <point x="817" y="67"/>
      <point x="624" y="-23"/>
      <point x="506" y="-20" type="qcurve" smooth="yes"/>
      <point x="419" y="-18"/>
      <point x="283" y="40"/>
      <point x="234" y="88" type="qcurve" smooth="yes"/>
      <point x="203" y="122"/>
      <point x="154" y="200"/>
      <point x="138" y="243" type="qcurve" smooth="yes"/>
      <point x="114" y="306"/>
      <point x="99" y="448"/>
      <point x="107" y="522" type="qcurve" smooth="yes"/>
    </contour>
    <contour>
      <point x="288" y="522" type="line" smooth="yes"/>
      <point x="279.8797409197868" y="453.7898237262092"/>
      <point x="294" y="306"/>
      <point x="324" y="245" type="qcurve" smooth="yes"/>
      <point x="348" y="196"/>
      <point x="443.77960451744195" y="131.70078444163687"/>
      <point x="514" y="129" type="qcurve" smooth="yes"/>
      <point x="597" y="126"/>
      <point x="725" y="198"/>
      <point x="771" y="256" type="qcurve" smooth="yes" name="inserted"/>
      <point x="816" y="314"/>
      <point x="876" y="474"/>
      <point x="881" y="531" type="qcurve" smooth="yes"/>
      <point x="883" y="553" type="line" smooth="yes"/>
      <point x="890" y="616"/>
      <point x="881" y="754"/>
      <point x="856" y="813" type="qcurve" smooth="yes" name="inserted"/>
      <point x="831" y="871"/>
      <point x="735" y="948"/>
      <point x="657" y="951" type="qcurve" smooth="yes"/>
      <point x="573" y="954"/>
      <point x="445" y="881"/>
      <point x="400" y="822" type="qcurve" smooth="yes" name="inserted"/>
      <point x="355" y="763"/>
      <point x="301" y="616"/>
      <point x="291" y="544" type="qcurve" smooth="yes"/>
    </contour>
  </outline>
</glyph>
<glyph name="p" format="2">
  <advance width="1202"/>
  <unicode hex="0070"/>
  <outline>
    <contour>
      <point x="1043" y="536" type="line" smooth="yes"/>
      <point x="1036" y="474"/>
      <point x="1003" y="348"/>
      <point x="977" y="290" type="qcurve" smooth="yes"/>
      <point x="946" y="216"/>
      <point x="848" y="86"/>
      <point x="784" y="45" type="qcurve" smooth="yes"/>
      <point x="735" y="13"/>
      <point x="618" y="-22"/>
      <point x="550" y="-21" type="qcurve" smooth="yes"/>
      <point x="499" y="-20"/>
      <point x="402" y="4"/>
      <point x="360" y="28" type="qcurve" smooth="yes"/>
      <point x="335" y="42"/>
      <point x="289" y="81"/>
      <point x="269" y="105" type="qcurve"/>
      <point x="172" y="-416" type="line"/>
      <point x="-9" y="-416" type="line"/>
      <point x="251" y="1082" type="line"/>
      <point x="415" y="1083" type="line"/>
      <point x="396" y="964" type="line"/>
      <point x="420" y="991"/>
      <point x="474" y="1035"/>
      <point x="503" y="1051" type="qcurve" smooth="yes"/>
      <point x="549" y="1077"/>
      <point x="653" y="1103"/>
      <point x="711" y="1102" type="qcurve" smooth="yes"/>
      <point x="785" y="1100"/>
      <point x="895" y="1052"/>
      <point x="935" y="1012" type="qcurve" smooth="yes" name="inserted"/>
      <point x="974" y="971"/>
      <point x="1023" y="865"/>
      <point x="1036" y="805" type="qcurve" smooth="yes" name="inserted"/>
      <point x="1048" y="745"/>
      <point x="1052" y="618"/>
      <point x="1045" y="557" type="qcurve" smooth="yes"/>
    </contour>
    <contour>
      <point x="864" y="557" type="line" smooth="yes"/>
      <point x="870" y="608"/>
      <point x="867" y="720"/>
      <point x="854" y="770" type="qcurve" smooth="yes"/>
      <point x="844" y="805"/>
      <point x="817" y="859"/>
      <point x="798" y="882" type="qcurve" smooth="yes"/>
      <point x="772" y="910"/>
      <point x="699" y="944"/>
      <point x="648" y="945" type="qcurve" smooth="yes"/>
      <point x="600" y="946"/>
      <point x="517" y="920"/>
      <point x="482" y="895" type="qcurve" smooth="yes"/>
      <point x="454" y="877"/>
      <point x="405" y="827"/>
      <point x="383" y="798" type="qcurve"/>
      <point x="292" y="275" type="line"/>
      <point x="307" y="240"/>
      <point x="349" y="187"/>
      <point x="375" y="169" type="qcurve" smooth="yes"/>
      <point x="401" y="151"/>
      <point x="467" y="132"/>
      <point x="505" y="130" type="qcurve" smooth="yes"/>
      <point x="558" y="129"/>
      <point x="648" y="158"/>
      <point x="684" y="185" type="qcurve" smooth="yes"/>
      <point x="727" y="215"/>
      <point x="790" y="305"/>
      <point x="812" y="354" type="qcurve" smooth="yes"/>
      <point x="831" y="398"/>
      <point x="856" y="491"/>
      <point x="862" y="536" type="qcurve" smooth="yes"/>
    </contour>
  </outline>
</glyph>
<glyph name="q" format="2">
  <advance width="1202"/>
  <unicode hex="0071"/>
  <outline>
    <contour>
      <point x="127" y="543" type="line" smooth="yes"/>
      <point x="136" y="612"/>
      <point x="174" y="749"/>
      <point x="204" y="812" type="qcurve" smooth="yes" name="inserted"/>
      <point x="234" y="875"/>
      <point x="316" y="983"/>
      <point x="369" y="1022" type="qcurve" smooth="yes" name="inserted"/>
      <point x="422" y="1061"/>
      <point x="553" y="1104"/>
      <point x="632" y="1102" type="qcurve" smooth="yes"/>
      <point x="679" y="1101"/>
      <point x="768" y="1080"/>
      <point x="806" y="1059" type="qcurve" smooth="yes"/>
      <point x="834" y="1044"/>
      <point x="884" y="1002"/>
      <point x="905" y="974" type="qcurve"/>
      <point x="937" y="1082" type="line"/>
      <point x="1105" y="1082" type="line"/>
      <point x="845" y="-416" type="line"/>
      <point x="664" y="-416" type="line"/>
      <point x="762" y="98" type="line"/>
      <point x="735" y="72"/>
      <point x="676" y="32"/>
      <point x="645" y="17" type="qcurve" smooth="yes"/>
      <point x="604" y="-2"/>
      <point x="514" y="-21"/>
      <point x="465" y="-20" type="qcurve" smooth="yes"/>
      <point x="393" y="-18"/>
      <point x="283" y="30"/>
      <point x="243" y="71" type="qcurve" smooth="yes" name="inserted"/>
      <point x="203" y="111"/>
      <point x="151" y="217"/>
      <point x="138" y="277" type="qcurve" smooth="yes" name="inserted"/>
      <point x="124" y="336"/>
      <point x="118" y="462"/>
      <point x="125" y="522" type="qcurve" smooth="yes"/>
    </contour>
    <contour>
      <point x="305" y="522" type="line" smooth="yes"/>
      <point x="300" y="482"/>
      <point x="300" y="393"/>
      <point x="307" y="350" type="qcurve" smooth="yes" name="inserted"/>
      <point x="313" y="307"/>
      <point x="342" y="229"/>
      <point x="367" y="199" type="qcurve" smooth="yes" name="inserted"/>
      <point x="392" y="169"/>
      <point x="466" y="132"/>
      <point x="518" y="131" type="qcurve" smooth="yes"/>
      <point x="560" y="130"/>
      <point x="634" y="151"/>
      <point x="667" y="170" type="qcurve" smooth="yes" name="inserted"/>
      <point x="700" y="189"/>
      <point x="758" y="242"/>
      <point x="784" y="274" type="qcurve"/>
      <point x="878" y="810" type="line"/>
      <point x="862" y="842"/>
      <point x="821" y="893"/>
      <point x="795" y="911" type="qcurve" smooth="yes"/>
      <point x="769" y="930"/>
      <point x="704" y="950"/>
      <point x="667" y="951" type="qcurve" smooth="yes"/>
      <point x="610" y="953"/>
      <point x="516" y="920"/>
      <point x="478" y="890" type="qcurve" smooth="yes"/>
      <point x="437" y="858"/>
      <point x="374" y="765"/>
      <point x="353" y="716" type="qcurve" smooth="yes"/>
      <point x="336" y="674"/>
      <point x="313" y="586"/>
      <point x="308" y="543" type="qcurve" smooth="yes"/>
    </contour>
  </outline>
</glyph>
<glyph name="r" format="2">
  <advance width="1202"/>
  <unicode hex="0072"/>
  <outline>
    <contour>
      <point x="931" y="1104" type="qcurve" smooth="yes"/>
      <point x="979" y="1103"/>
      <point x="1075" y="1092"/>
      <point x="1121" y="1075" type="qcurve"/>
      <point x="1075" y="895" type="line"/>
      <point x="1027" y="906"/>
      <point x="931" y="920"/>
      <point x="882" y="921" type="qcurve" smooth="yes"/>
      <point x="826" y="921"/>
      <point x="727" y="898"/>
      <point x="686" y="875" type="qcurve" smooth="yes"/>
      <point x="634" y="847"/>
      <point x="549" y="755"/>
      <point x="516" y="695" type="qcurve"/>
      <point x="396" y="0" type="line"/>
      <point x="215" y="0" type="line"/>
      <point x="402" y="1082" type="line"/>
      <point x="574" y="1082" type="line"/>
      <point x="550" y="942" type="line"/>
      <point x="544" y="910" type="line"/>
      <point x="582" y="954"/>
      <point x="668" y="1026"/>
      <point x="716" y="1052" type="qcurve" smooth="yes" name="inserted"/>
      <point x="764" y="1077"/>
      <point x="871" y="1104"/>
    </contour>
  </outline>
</glyph>
<glyph name="s" format="2">
  <advance width="1202"/>
  <unicode hex="0073"/>
  <outline>
    <contour>
      <point x="818" y="294" type="qcurve" smooth="yes"/>
      <point x="822" y="324"/>
      <point x="806" y="370"/>
      <point x="790" y="387" type="qcurve" smooth="yes"/>
      <point x="774" y="403"/>
      <point x="733" y="427"/>
      <point x="710" y="436" type="qcurve" smooth="yes"/>
      <point x="673" y="451"/>
      <point x="600" y="469"/>
      <point x="567" y="477" type="qcurve" smooth="yes"/>
      <point x="513" y="491"/>
      <point x="401" y="532"/>
      <point x="354" y="563" type="qcurve" smooth="yes" name="inserted"/>
      <point x="300" y="598"/>
      <point x="233" y="703"/>
      <point x="236" y="778" type="qcurve" smooth="yes"/>
      <point x="239.313384809665" y="869.1180822657873"/>
      <point x="347" y="1007"/>
      <point x="419" y="1042" type="qcurve" smooth="yes"/>
      <point x="482" y="1073"/>
      <point x="613.5568034763098" y="1103.335575439259"/>
      <point x="679" y="1102" type="qcurve" smooth="yes"/>
      <point x="755" y="1100"/>
      <point x="896" y="1056"/>
      <point x="949" y="1014" type="qcurve" smooth="yes" name="inserted"/>
      <point x="1002" y="971"/>
      <point x="1064" y="846"/>
      <point x="1063" y="763" type="qcurve"/>
      <point x="884" y="764" type="line"/>
      <point x="884" y="809"/>
      <point x="850" y="877"/>
      <point x="821" y="901" type="qcurve" smooth="yes" name="inserted"/>
      <point x="791" y="924"/>
      <point x="714" y="948"/>
      <point x="672" y="949" type="qcurve" smooth="yes"/>
      <point x="632" y="950"/>
      <point x="547" y="932"/>
      <point x="510" y="913" type="qcurve" smooth="yes" name="inserted"/>
      <point x="473" y="893"/>
      <point x="421" y="830"/>
      <point x="415" y="785" type="qcurve" smooth="yes"/>
      <point x="409" y="740"/>
      <point x="450" y="683"/>
      <point x="483" y="666" type="qcurve" smooth="yes" name="inserted"/>
      <point x="516" y="649"/>
      <point x="595" y="629"/>
      <point x="628" y="622" type="qcurve" smooth="yes"/>
      <point x="669" y="612"/>
      <point x="757" y="586"/>
      <point x="799" y="568" type="qcurve" smooth="yes" name="inserted"/>
      <point x="841" y="550"/>
      <point x="916" y="503"/>
      <point x="943" y="472" type="qcurve" smooth="yes" name="inserted"/>
      <point x="970" y="440"/>
      <point x="1000" y="358"/>
      <point x="998" y="307" type="qcurve" smooth="yes"/>
      <point x="994" y="220"/>
      <point x="906" y="94"/>
      <point x="840" y="55" type="qcurve" smooth="yes" name="inserted"/>
      <point x="774" y="15"/>
      <point x="614" y="-22"/>
      <point x="538" y="-20" type="qcurve" smooth="yes"/>
      <point x="458" y="-19"/>
      <point x="309" y="27"/>
      <point x="251" y="72" type="qcurve" smooth="yes" name="inserted"/>
      <point x="193" y="116"/>
      <point x="124" y="247"/>
      <point x="126" y="334" type="qcurve"/>
      <point x="306" y="333" type="line"/>
      <point x="307" y="281"/>
      <point x="345" y="205"/>
      <point x="377" y="181" type="qcurve" smooth="yes" name="inserted"/>
      <point x="409" y="156"/>
      <point x="495" y="131"/>
      <point x="544" y="131" type="qcurve" smooth="yes"/>
      <point x="584" y="130"/>
      <point x="674" y="146"/>
      <point x="714" y="165" type="qcurve" smooth="yes" name="inserted"/>
      <point x="754" y="183"/>
      <point x="811" y="247"/>
    </contour>
  </outline>
</glyph>
<glyph name="v" format="2">
  <advance width="1202"/>
  <unicode hex="0076"/>
  <outline>
    <contour>
      <point x="436" y="0" type="line"/>
      <point x="174" y="1082" type="line"/>
      <point x="348" y="1083" type="line"/>
      <point x="524" y="266" type="line"/>
      <point x="529" y="198" type="line"/>
      <point x="558" y="267" type="line"/>
      <point x="980" y="1082" type="line"/>
      <point x="1172" y="1082" type="line"/>
      <point x="574" y="0" type="line"/>
    </contour>
  </outline>
</glyph>
<glyph name="y" format="2">
  <advance width="1202"/>
  <unicode hex="0079"/>
  <outline>
    <contour>
      <point x="516" y="375" type="line"/>
      <point x="537" y="255" type="line"/>
      <point x="1001" y="1082" type="line"/>
      <point x="1212" y="1082" type="line"/>
      <point x="464" y="-168" type="line" smooth="yes"/>
      <point x="434" y="-220"/>
      <point x="358" y="-318"/>
      <point x="311.5" y="-356.5" type="qcurve" smooth="yes" name="inserted"/>
      <point x="265" y="-395"/>
      <point x="154" y="-440"/>
      <point x="89" y="-440" type="qcurve" smooth="yes"/>
      <point x="60" y="-440"/>
      <point x="1" y="-429"/>
      <point x="-28" y="-424" type="qcurve"/>
      <point x="13" y="-271" type="line"/>
      <point x="35" y="-273"/>
      <point x="79" y="-279"/>
      <point x="100" y="-279" type="qcurve" smooth="yes"/>
      <point x="139" y="-278"/>
      <point x="205" y="-242"/>
      <point x="232.0" y="-215.0" type="qcurve" smooth="yes" name="inserted"/>
      <point x="259" y="-188"/>
      <point x="303" y="-123"/>
      <point x="322" y="-94" type="qcurve" smooth="yes"/>
      <point x="425" y="62" type="line"/>
      <point x="154" y="1082" type="line"/>
      <point x="347" y="1082" type="line"/>
    </contour>
  </outline>
</glyph>
<glyph name="z" format="2">
  <advance width="1202"/>
  <unicode hex="007A"/>
  <outline>
    <contour>
      <point x="321" y="151" type="line"/>
      <point x="984" y="151" type="line"/>
      <point x="959" y="0" type="line"/>
      <point x="61" y="0" type="line"/>
      <point x="84" y="144" type="line"/>
      <point x="827" y="929" type="line"/>
      <point x="215" y="929" type="line"/>
      <point x="239" y="1082" type="line"/>
      <point x="1094" y="1082" type="line"/>
      <point x="1072" y="943" type="line"/>
    </contour>
  </outline>
</glyph>
<glyph name="braceright" format="2">
  <advance width="1202"/>
  <unicode hex="007D"/>
  <outline>
    <contour>
      <point x="178" y="-252" type="line"/>
      <point x="245" y="-248"/>
      <point x="338" y="-180"/>
      <point x="369" y="-129" type="qcurve" smooth="yes" name="inserted"/>
      <point x="400" y="-79"/>
      <point x="434" y="42"/>
      <point x="443" y="99" type="qcurve" smooth="yes"/>
      <point x="465" y="268" type="line" smooth="yes"/>
      <point x="482" y="398"/>
      <point x="622" y="569"/>
      <point x="742" y="619" type="qcurve"/>
      <point x="694" y="645"/>
      <point x="627" y="719"/>
      <point x="607" y="764" type="qcurve" smooth="yes" name="inserted"/>
      <point x="587" y="808"/>
      <point x="574" y="909"/>
      <point x="579" y="962" type="qcurve" smooth="yes"/>
      <point x="601" y="1133" type="line" smooth="yes"/>
      <point x="607.1640729375029" y="1188.4766564375254"/>
      <point x="614.2418326819791" y="1306.7294023448756"/>
      <point x="600" y="1358" type="qcurve" smooth="yes"/>
      <point x="587.7132920953496" y="1404.0751546424385"/>
      <point x="519.721533095065" y="1473.5864963227705"/>
      <point x="453" y="1481" type="qcurve"/>
      <point x="482" y="1595" type="line"/>
      <point x="572" y="1589"/>
      <point x="695" y="1503"/>
      <point x="731" y="1438" type="qcurve" smooth="yes" name="inserted"/>
      <point x="767" y="1372"/>
      <point x="790" y="1212"/>
      <point x="781" y="1132" type="qcurve" smooth="yes"/>
      <point x="760" y="961" type="line" smooth="yes"/>
      <point x="746" y="832"/>
      <point x="849" y="695"/>
      <point x="980" y="689" type="qcurve"/>
      <point x="965" y="545" type="line"/>
      <point x="827" y="541"/>
      <point x="665" y="407"/>
      <point x="646" y="268" type="qcurve" smooth="yes"/>
      <point x="624" y="99" type="line" smooth="yes"/>
      <point x="612" y="8"/>
      <point x="545" y="-156"/>
      <point x="491" y="-219" type="qcurve" smooth="yes" name="inserted"/>
      <point x="436" y="-283"/>
      <point x="285" y="-363"/>
      <point x="188" y="-369" type="qcurve"/>
    </contour>
  </outline>
</glyph>
<glyph name="exclamdown" format="2">
  <advance width="1202"/>
  <unicode hex="00A1"/>
  <outline>
    <contour>
      <point x="508" y="611" type="line"/>
      <point x="689" y="611" type="line"/>
      <point x="518" y="-372" type="line"/>
      <point x="337" y="-372" type="line"/>
    </contour>
    <contour>
      <point x="775" y="993" type="qcurve"/>
      <point x="773" y="944"/>
      <point x="710" y="882"/>
      <point x="662" y="880" type="qcurve" smooth="yes"/>
      <point x="614.786210994325" y="878.0327587914302"/>
      <point x="551.0" y="938.1871613953592"/>
      <point x="551" y="987" type="qcurve" smooth="yes"/>
      <point x="552" y="1037"/>
      <point x="613" y="1102"/>
      <point x="663" y="1104" type="qcurve" smooth="yes"/>
      <point x="713.0" y="1105.9999999999998"/>
      <point x="775.0" y="1041.0000000000002"/>
    </contour>
  </outline>
</glyph>
<glyph name="cent" format="2">
  <advance width="1202"/>
  <unicode hex="00A2"/>
  <outline>
    <contour>
      <point x="537" y="129" type="qcurve" smooth="yes"/>
      <point x="586" y="128"/>
      <point x="682" y="157"/>
      <point x="722" y="185" type="qcurve" smooth="yes" name="inserted"/>
      <point x="761" y="212"/>
      <point x="817" y="291"/>
      <point x="828" y="340" type="qcurve"/>
      <point x="999" y="341" type="line"/>
      <point x="990" y="266"/>
      <point x="915" y="140"/>
      <point x="859" y="94" type="qcurve" smooth="yes" name="inserted"/>
      <point x="802" y="47"/>
      <point x="662" y="-10"/>
      <point x="590" y="-18" type="qcurve"/>
      <point x="551" y="-245" type="line"/>
      <point x="370" y="-245" type="line"/>
      <point x="412" y="-3" type="line"/>
      <point x="364" y="11"/>
      <point x="285" y="58"/>
      <point x="253" y="90" type="qcurve" smooth="yes"/>
      <point x="211.58530224858617" y="133.3868262157669"/>
      <point x="154.20069441095788" y="248.08253983562116"/>
      <point x="140" y="313" type="qcurve" smooth="yes"/>
      <point x="130" y="361"/>
      <point x="126" y="464"/>
      <point x="131" y="517" type="qcurve" smooth="yes"/>
      <point x="136" y="560" type="line" smooth="yes"/>
      <point x="148" y="659"/>
      <point x="223" y="840"/>
      <point x="283" y="913" type="qcurve" smooth="yes" name="inserted"/>
      <point x="342" y="985"/>
      <point x="503" y="1083"/>
      <point x="602" y="1097" type="qcurve"/>
      <point x="641" y="1318" type="line"/>
      <point x="822" y="1318" type="line"/>
      <point x="782" y="1090" type="line"/>
      <point x="848" y="1075"/>
      <point x="956" y="1007"/>
      <point x="994" y="958" type="qcurve" smooth="yes" name="inserted"/>
      <point x="1032" y="908"/>
      <point x="1071" y="782"/>
      <point x="1068" y="709" type="qcurve"/>
      <point x="898" y="710" type="line"/>
      <point x="900" y="760"/>
      <point x="872" y="846"/>
      <point x="844" y="879" type="qcurve" smooth="yes" name="inserted"/>
      <point x="815" y="911"/>
      <point x="733" y="949"/>
      <point x="681" y="951" type="qcurve" smooth="yes"/>
      <point x="626" y="953"/>
      <point x="533" y="924"/>
      <point x="495" y="897" type="qcurve" smooth="yes"/>
      <point x="456" y="868"/>
      <point x="394" y="791"/>
      <point x="371" y="744" type="qcurve" smooth="yes"/>
      <point x="350" y="702"/>
      <point x="322" y="607"/>
      <point x="316" y="560" type="qcurve" smooth="yes"/>
      <point x="311" y="518" type="line" smooth="yes"/>
      <point x="306" y="475"/>
      <point x="306" y="385"/>
      <point x="314" y="343" type="qcurve" smooth="yes" name="inserted"/>
      <point x="321" y="300"/>
      <point x="353" y="223"/>
      <point x="380" y="195" type="qcurve" smooth="yes" name="inserted"/>
      <point x="407" y="166"/>
      <point x="484" y="130"/>
    </contour>
  </outline>
</glyph>
<glyph name="currency" format="2">
  <advance width="1202"/>
  <unicode hex="00A4"/>
  <outline>
    <contour>
      <point x="825" y="82" type="line"/>
      <point x="756" y="34"/>
      <point x="606" y="-22"/>
      <point x="521" y="-20" type="qcurve" smooth="yes"/>
      <point x="445" y="-19"/>
      <point x="306" y="33"/>
      <point x="247" y="83" type="qcurve"/>
      <point x="127" y="-26" type="line"/>
      <point x="16" y="118" type="line"/>
      <point x="144" y="226" type="line"/>
      <point x="123" y="295"/>
      <point x="110" y="436"/>
      <point x="119" y="508" type="qcurve" smooth="yes"/>
      <point x="131.0" y="596.0" name="inserted"/>
      <point x="199.5" y="753.5"/>
      <point x="256" y="823" type="qcurve"/>
      <point x="160" y="952" type="line"/>
      <point x="302" y="1080" type="line"/>
      <point x="392" y="959" type="line"/>
      <point x="458" y="1001"/>
      <point x="601" y="1050"/>
      <point x="680" y="1049" type="qcurve" smooth="yes"/>
      <point x="752" y="1048"/>
      <point x="885" y="1000"/>
      <point x="941" y="955" type="qcurve"/>
      <point x="1082" y="1081" type="line"/>
      <point x="1194" y="935" type="line"/>
      <point x="1052" y="814" type="line"/>
      <point x="1075" y="743"/>
      <point x="1091" y="597"/>
      <point x="1081" y="522" type="qcurve" smooth="yes"/>
      <point x="1070" y="439"/>
      <point x="1007" y="291"/>
      <point x="958" y="224" type="qcurve"/>
      <point x="1050" y="100" type="line"/>
      <point x="907" y="-27" type="line"/>
    </contour>
    <contour>
      <point x="287" y="506" type="qcurve" smooth="yes"/>
      <point x="282" y="470"/>
      <point x="287" y="396"/>
      <point x="295" y="362" type="qcurve" smooth="yes"/>
      <point x="307.9787876395925" y="315.64718700145534"/>
      <point x="354.2671051806026" y="234.39128296697274"/>
      <point x="389" y="204" type="qcurve" smooth="yes"/>
      <point x="418" y="180"/>
      <point x="491" y="151"/>
      <point x="535" y="150" type="qcurve" smooth="yes"/>
      <point x="588" y="149"/>
      <point x="683" y="180"/>
      <point x="724" y="207" type="qcurve" smooth="yes"/>
      <point x="768" y="238"/>
      <point x="838" y="321"/>
      <point x="864" y="370" type="qcurve" smooth="yes"/>
      <point x="882" y="406"/>
      <point x="907" y="485"/>
      <point x="912" y="524" type="qcurve" smooth="yes"/>
      <point x="916" y="557"/>
      <point x="912" y="626"/>
      <point x="905" y="659" type="qcurve" smooth="yes"/>
      <point x="894" y="709"/>
      <point x="846" y="796"/>
      <point x="809" y="827" type="qcurve" smooth="yes"/>
      <point x="781" y="850"/>
      <point x="709" y="878"/>
      <point x="666" y="879" type="qcurve" smooth="yes"/>
      <point x="618" y="880"/>
      <point x="528" y="855"/>
      <point x="490" y="831" type="qcurve" smooth="yes"/>
      <point x="444" y="804"/>
      <point x="367" y="720"/>
      <point x="342" y="672" type="qcurve" smooth="yes"/>
      <point x="320" y="633"/>
      <point x="292" y="549"/>
    </contour>
  </outline>
</glyph>
<glyph name="yen" format="2">
  <advance width="1202"/>
  <unicode hex="00A5"/>
  <outline>
    <contour>
      <point x="1096" y="1456" type="line"/>
      <point x="1314" y="1456" type="line"/>
      <point x="781" y="736" type="line"/>
      <point x="1084" y="736" type="line"/>
      <point x="1062" y="615" type="line"/>
      <point x="695" y="618" type="line"/>
      <point x="689" y="611" type="line"/>
      <point x="655" y="446" type="line"/>
      <point x="1034" y="446" type="line"/>
      <point x="1012" y="326" type="line"/>
      <point x="636" y="326" type="line"/>
      <point x="579" y="0" type="line"/>
      <point x="398" y="0" type="line"/>
      <point x="455" y="326" type="line"/>
      <point x="86" y="326" type="line"/>
      <point x="107" y="446" type="line"/>
      <point x="475" y="446" type="line"/>
      <point x="505" y="615" type="line"/>
      <point x="136" y="615" type="line"/>
      <point x="157" y="736" type="line"/>
      <point x="470" y="736" type="line"/>
      <point x="186" y="1456" type="line"/>
      <point x="381" y="1456" type="line"/>
      <point x="594" y="855" type="line"/>
      <point x="621" y="780" type="line"/>
      <point x="621" y="780" type="line"/>
      <point x="672" y="853" type="line"/>
    </contour>
  </outline>
</glyph>
<glyph name="brokenbar" format="2">
  <advance width="1202"/>
  <unicode hex="00A6"/>
  <outline>
    <contour>
      <point x="344" y="-270" type="line"/>
      <point x="482" y="521" type="line"/>
      <point x="663" y="521" type="line"/>
      <point x="525" y="-270" type="line"/>
    </contour>
    <contour>
      <point x="693" y="698" type="line"/>
      <point x="512" y="698" type="line"/>
      <point x="644" y="1456" type="line"/>
      <point x="825" y="1456" type="line"/>
    </contour>
  </outline>
</glyph>
<glyph name="section" format="2">
  <advance width="1202"/>
  <unicode hex="00A7"/>
  <outline>
    <contour>
      <point x="1077" y="439" type="qcurve" smooth="yes"/>
      <point x="1072" y="385"/>
      <point x="1035" y="298"/>
      <point x="1005" y="263" type="qcurve" smooth="yes" name="inserted"/>
      <point x="974" y="228"/>
      <point x="894" y="173"/>
      <point x="848" y="151" type="qcurve"/>
      <point x="863" y="136"/>
      <point x="887" y="105"/>
      <point x="897" y="89" type="qcurve" smooth="yes"/>
      <point x="924" y="43"/>
      <point x="943" y="-62"/>
      <point x="939" y="-120" type="qcurve" smooth="yes"/>
      <point x="931" y="-221"/>
      <point x="833" y="-365"/>
      <point x="760" y="-410" type="qcurve" smooth="yes" name="inserted"/>
      <point x="686" y="-456"/>
      <point x="505" y="-498"/>
      <point x="415" y="-496" type="qcurve" smooth="yes"/>
      <point x="315" y="-494"/>
      <point x="145" y="-438"/>
      <point x="84" y="-384" type="qcurve" smooth="yes" name="inserted"/>
      <point x="23" y="-330"/>
      <point x="-41" y="-170"/>
      <point x="-36" y="-64" type="qcurve"/>
      <point x="149" y="-62" type="line"/>
      <point x="144" y="-128"/>
      <point x="180" y="-232"/>
      <point x="216" y="-268" type="qcurve" smooth="yes" name="inserted"/>
      <point x="252" y="-304"/>
      <point x="358" y="-342"/>
      <point x="423" y="-343" type="qcurve" smooth="yes"/>
      <point x="476" y="-344"/>
      <point x="587" y="-320"/>
      <point x="635" y="-293" type="qcurve" smooth="yes" name="inserted"/>
      <point x="682" y="-267"/>
      <point x="748" y="-182"/>
      <point x="756" y="-123" type="qcurve" smooth="yes"/>
      <point x="761" y="-83"/>
      <point x="740" y="-21"/>
      <point x="719" y="4" type="qcurve" smooth="yes" name="inserted"/>
      <point x="697" y="28"/>
      <point x="637" y="65"/>
      <point x="604" y="80" type="qcurve" smooth="yes" name="inserted"/>
      <point x="570" y="94"/>
      <point x="502" y="116"/>
      <point x="472" y="126" type="qcurve" smooth="yes"/>
      <point x="428" y="141"/>
      <point x="340" y="174"/>
      <point x="301" y="195" type="qcurve" smooth="yes"/>
      <point x="271" y="210"/>
      <point x="216" y="245"/>
      <point x="192" y="266" type="qcurve" smooth="yes" name="inserted"/>
      <point x="136" y="313"/>
      <point x="74" y="448"/>
      <point x="82" y="543" type="qcurve" smooth="yes"/>
      <point x="86" y="595"/>
      <point x="124" y="682"/>
      <point x="154" y="717" type="qcurve" smooth="yes" name="inserted"/>
      <point x="183" y="752"/>
      <point x="261" y="808"/>
      <point x="307" y="830" type="qcurve"/>
      <point x="287" y="851"/>
      <point x="256" y="898"/>
      <point x="246" y="923" type="qcurve" smooth="yes"/>
      <point x="228" y="963"/>
      <point x="217" y="1054"/>
      <point x="221" y="1102" type="qcurve" smooth="yes"/>
      <point x="226" y="1168"/>
      <point x="275" y="1276"/>
      <point x="314" y="1318" type="qcurve" smooth="yes" name="inserted"/>
      <point x="352" y="1360"/>
      <point x="451" y="1421"/>
      <point x="508" y="1441" type="qcurve" smooth="yes" name="inserted"/>
      <point x="564" y="1460"/>
      <point x="685" y="1477"/>
      <point x="744" y="1476" type="qcurve" smooth="yes"/>
      <point x="844" y="1474"/>
      <point x="1005" y="1415"/>
      <point x="1060" y="1361" type="qcurve" smooth="yes" name="inserted"/>
      <point x="1115" y="1306"/>
      <point x="1170" y="1147"/>
      <point x="1164" y="1045" type="qcurve"/>
      <point x="984" y="1045" type="line"/>
      <point x="988" y="1106"/>
      <point x="959" y="1207"/>
      <point x="927" y="1244" type="qcurve" smooth="yes" name="inserted"/>
      <point x="895" y="1281"/>
      <point x="799" y="1323"/>
      <point x="736" y="1325" type="qcurve" smooth="yes"/>
      <point x="682" y="1326"/>
      <point x="571" y="1303"/>
      <point x="524" y="1277" type="qcurve" smooth="yes" name="inserted"/>
      <point x="477" y="1250"/>
      <point x="412" y="1165"/>
      <point x="403" y="1105" type="qcurve" smooth="yes"/>
      <point x="397" y="1063"/>
      <point x="417" y="999"/>
      <point x="438" y="975" type="qcurve" smooth="yes" name="inserted"/>
      <point x="458" y="950"/>
      <point x="516" y="914"/>
      <point x="550" y="900" type="qcurve" smooth="yes" name="inserted"/>
      <point x="583" y="886"/>
      <point x="653" y="864"/>
      <point x="685" y="854" type="qcurve" smooth="yes"/>
      <point x="727" y="840"/>
      <point x="811" y="808"/>
      <point x="850" y="789" type="qcurve" smooth="yes"/>
      <point x="905.9225629970407" y="761.9406953240125"/>
      <point x="1002.5860606691401" y="687.3647618056369"/>
      <point x="1034" y="638" type="qcurve" smooth="yes"/>
      <point x="1058" y="598"/>
      <point x="1082" y="500"/>
    </contour>
    <contour>
      <point x="607" y="691" type="qcurve" smooth="yes"/>
      <point x="569" y="703"/>
      <point x="493" y="729"/>
      <point x="456" y="743" type="qcurve"/>
      <point x="422" y="734"/>
      <point x="363" y="705"/>
      <point x="339" y="685" type="qcurve" smooth="yes"/>
      <point x="310" y="660"/>
      <point x="271" y="590"/>
      <point x="264" y="545" type="qcurve" smooth="yes"/>
      <point x="255" y="481"/>
      <point x="304" y="397"/>
      <point x="348" y="369" type="qcurve" smooth="yes" name="inserted"/>
      <point x="391" y="341"/>
      <point x="500" y="305"/>
      <point x="549" y="289" type="qcurve" smooth="yes"/>
      <point x="578" y="280"/>
      <point x="635" y="260"/>
      <point x="663" y="250" type="qcurve" smooth="yes"/>
      <point x="672" y="247"/>
      <point x="689" y="240"/>
      <point x="698" y="237" type="qcurve"/>
      <point x="735" y="248"/>
      <point x="801" y="283"/>
      <point x="828" y="308" type="qcurve" smooth="yes" name="inserted"/>
      <point x="854" y="332"/>
      <point x="889" y="396"/>
      <point x="895" y="436" type="qcurve" smooth="yes"/>
      <point x="901" y="476"/>
      <point x="880" y="540"/>
      <point x="858" y="565" type="qcurve" smooth="yes" name="inserted"/>
      <point x="836" y="590"/>
      <point x="774" y="628"/>
      <point x="740" y="643" type="qcurve" smooth="yes" name="inserted"/>
      <point x="706" y="658"/>
      <point x="637" y="681"/>
    </contour>
  </outline>
</glyph>
<glyph name="dieresis" format="2">
  <advance width="1202"/>
  <unicode hex="00A8"/>
  <outline>
    <contour>
      <point x="399" y="1369" type="qcurve" smooth="yes"/>
      <point x="399" y="1415"/>
      <point x="458" y="1476"/>
      <point x="505" y="1478" type="qcurve" smooth="yes"/>
      <point x="551" y="1479"/>
      <point x="613" y="1420"/>
      <point x="612" y="1373" type="qcurve" smooth="yes"/>
      <point x="611" y="1327"/>
      <point x="551" y="1267"/>
      <point x="505" y="1265" type="qcurve" smooth="yes"/>
      <point x="458" y="1264"/>
      <point x="398" y="1322"/>
    </contour>
    <contour>
      <point x="815" y="1367" type="qcurve" smooth="yes"/>
      <point x="816" y="1413"/>
      <point x="875" y="1475"/>
      <point x="922" y="1477" type="qcurve" smooth="yes"/>
      <point x="969" y="1478"/>
      <point x="1029" y="1419"/>
      <point x="1029" y="1371" type="qcurve"/>
      <point x="1028" y="1325"/>
      <point x="968" y="1265"/>
      <point x="921" y="1263" type="qcurve" smooth="yes"/>
      <point x="875" y="1262"/>
      <point x="815" y="1320"/>
    </contour>
  </outline>
</glyph>
<glyph name="ordfeminine" format="2">
  <advance width="1202"/>
  <unicode hex="00AA"/>
  <outline>
    <contour>
      <point x="781" y="704" type="line"/>
      <point x="778" y="729" name="inserted"/>
      <point x="777" y="777"/>
      <point x="778" y="801" type="qcurve"/>
      <point x="733" y="749"/>
      <point x="617" y="691"/>
      <point x="547" y="691" type="qcurve" smooth="yes"/>
      <point x="497" y="691"/>
      <point x="415" y="722"/>
      <point x="386" y="751" type="qcurve" smooth="yes" name="inserted"/>
      <point x="357" y="779"/>
      <point x="327" y="860"/>
      <point x="330" y="911" type="qcurve" smooth="yes"/>
      <point x="333" y="981"/>
      <point x="401" y="1073"/>
      <point x="452" y="1101" type="qcurve" smooth="yes" name="inserted"/>
      <point x="503" y="1128"/>
      <point x="626" y="1150"/>
      <point x="685" y="1150" type="qcurve" smooth="yes"/>
      <point x="823" y="1149" type="line"/>
      <point x="831" y="1202" type="line" smooth="yes"/>
      <point x="834" y="1229"/>
      <point x="827" y="1278"/>
      <point x="816" y="1296" type="qcurve" smooth="yes" name="inserted"/>
      <point x="805" y="1314"/>
      <point x="764" y="1335"/>
      <point x="734" y="1336" type="qcurve" smooth="yes"/>
      <point x="705" y="1337"/>
      <point x="655" y="1326"/>
      <point x="635" y="1313" type="qcurve" smooth="yes"/>
      <point x="615" y="1300"/>
      <point x="586" y="1260"/>
      <point x="578" y="1232" type="qcurve"/>
      <point x="422" y="1243" type="line"/>
      <point x="431" y="1304"/>
      <point x="492" y="1393"/>
      <point x="537" y="1422" type="qcurve" smooth="yes" name="inserted"/>
      <point x="581" y="1451"/>
      <point x="691" y="1477"/>
      <point x="748" y="1476" type="qcurve" smooth="yes"/>
      <point x="810" y="1475"/>
      <point x="906" y="1434"/>
      <point x="938" y="1398" type="qcurve" smooth="yes" name="inserted"/>
      <point x="969" y="1362"/>
      <point x="1000" y="1261"/>
      <point x="992" y="1200" type="qcurve" smooth="yes"/>
      <point x="978" y="1095"/>
      <point x="959" y="991"/>
      <point x="943" y="886" type="qcurve" smooth="yes"/>
      <point x="935" y="840"/>
      <point x="932" y="751"/>
      <point x="939" y="705" type="qcurve"/>
    </contour>
    <contour>
      <point x="597" y="826" type="qcurve" smooth="yes"/>
      <point x="631" y="826"/>
      <point x="698" y="848"/>
      <point x="727" y="867" type="qcurve" smooth="yes"/>
      <point x="745" y="879"/>
      <point x="777" y="909"/>
      <point x="790" y="927" type="qcurve"/>
      <point x="809" y="1037" type="line"/>
      <point x="680" y="1037" type="line" smooth="yes"/>
      <point x="651" y="1036"/>
      <point x="589" y="1023"/>
      <point x="562" y="1009" type="qcurve" smooth="yes" name="inserted"/>
      <point x="535" y="995"/>
      <point x="497" y="949"/>
      <point x="493" y="915" type="qcurve" smooth="yes"/>
      <point x="490" y="891"/>
      <point x="506" y="857"/>
      <point x="521" y="847" type="qcurve" smooth="yes" name="inserted"/>
      <point x="536" y="836"/>
      <point x="576" y="826"/>
    </contour>
  </outline>
</glyph>
<glyph name="logicalnot" format="2">
  <advance width="1202"/>
  <unicode hex="00AC"/>
  <outline>
    <contour>
      <point x="950" y="375" type="line"/>
      <point x="769" y="375" type="line"/>
      <point x="816" y="639" type="line"/>
      <point x="189" y="639" type="line"/>
      <point x="218" y="800" type="line"/>
      <point x="1024" y="800" type="line"/>
    </contour>
  </outline>
</glyph>
<glyph name="registered" format="2">
  <advance width="1202"/>
  <unicode hex="00AE"/>
  <outline>
    <contour>
      <point x="75" y="533" type="qcurve" smooth="yes"/>
      <point x="82" y="608"/>
      <point x="133" y="752"/>
      <point x="173" y="816" type="qcurve" smooth="yes" name="inserted"/>
      <point x="212" y="880"/>
      <point x="319" y="986"/>
      <point x="383" y="1024" type="qcurve" smooth="yes" name="inserted"/>
      <point x="446" y="1062"/>
      <point x="591" y="1103"/>
      <point x="670" y="1101" type="qcurve" smooth="yes"/>
      <point x="782" y="1098"/>
      <point x="955" y="1003"/>
      <point x="1012" y="926" type="qcurve" smooth="yes" name="inserted"/>
      <point x="1069" y="849"/>
      <point x="1119" y="652"/>
      <point x="1109" y="547" type="qcurve" smooth="yes"/>
      <point x="1101" y="472"/>
      <point x="1051" y="328"/>
      <point x="1011" y="265" type="qcurve" smooth="yes" name="inserted"/>
      <point x="971" y="201"/>
      <point x="865" y="94"/>
      <point x="802" y="56" type="qcurve" smooth="yes" name="inserted"/>
      <point x="738" y="18"/>
      <point x="593" y="-23"/>
      <point x="514" y="-21" type="qcurve" smooth="yes"/>
      <point x="435" y="-19"/>
      <point x="300" y="32"/>
      <point x="248" y="75" type="qcurve" smooth="yes"/>
      <point x="206.00000000000003" y="109.0"/>
      <point x="140.0" y="198.0"/>
      <point x="118" y="250" type="qcurve" smooth="yes"/>
      <point x="90" y="313"/>
      <point x="67" y="458"/>
    </contour>
    <contour>
      <point x="162" y="532" type="qcurve" smooth="yes"/>
      <point x="152" y="446"/>
      <point x="192" y="281"/>
      <point x="238" y="217" type="qcurve" smooth="yes" name="inserted"/>
      <point x="284" y="152"/>
      <point x="425" y="71"/>
      <point x="518" y="69" type="qcurve" smooth="yes"/>
      <point x="617.0" y="65.99999999999999"/>
      <point x="792.9999999999999" y="144.99999999999997"/>
      <point x="859" y="211" type="qcurve" smooth="yes"/>
      <point x="925.0" y="276.99999999999994"/>
      <point x="1011.5" y="453.5"/>
      <point x="1022" y="548" type="qcurve" smooth="yes"/>
      <point x="1032" y="634"/>
      <point x="993" y="798"/>
      <point x="947" y="863" type="qcurve" smooth="yes" name="inserted"/>
      <point x="901" y="927"/>
      <point x="759" y="1008"/>
      <point x="666" y="1010" type="qcurve" smooth="yes"/>
      <point x="566" y="1013"/>
      <point x="392" y="935"/>
      <point x="325" y="869" type="qcurve" smooth="yes" name="inserted"/>
      <point x="258" y="802"/>
      <point x="172" y="627"/>
    </contour>
    <contour>
      <point x="477" y="485" type="line"/>
      <point x="436" y="232" type="line"/>
      <point x="330" y="232" type="line"/>
      <point x="430" y="867" type="line"/>
      <point x="629" y="866" type="line" smooth="yes"/>
      <point x="672" y="865"/>
      <point x="750" y="843"/>
      <point x="779.5" y="821.0" type="qcurve" smooth="yes" name="inserted"/>
      <point x="809" y="799"/>
      <point x="841" y="730"/>
      <point x="838" y="681" type="qcurve" smooth="yes"/>
      <point x="835" y="648"/>
      <point x="808" y="596"/>
      <point x="786.5" y="576.5" type="qcurve" smooth="yes" name="inserted"/>
      <point x="765" y="557"/>
      <point x="711" y="529"/>
      <point x="683" y="518" type="qcurve"/>
      <point x="778" y="232" type="line"/>
      <point x="675" y="232" type="line"/>
      <point x="598" y="485" type="line"/>
    </contour>
    <contour>
      <point x="491" y="582" type="line"/>
      <point x="602" y="582" type="line" smooth="yes"/>
      <point x="624" y="583"/>
      <point x="668" y="595"/>
      <point x="686.0" y="606.0" type="qcurve" smooth="yes" name="inserted"/>
      <point x="704" y="617"/>
      <point x="730" y="652"/>
      <point x="734" y="676" type="qcurve" smooth="yes"/>
      <point x="739" y="704"/>
      <point x="724" y="740"/>
      <point x="709.0" y="750.0" type="qcurve" smooth="yes" name="inserted"/>
      <point x="694" y="760"/>
      <point x="651" y="768"/>
      <point x="627" y="769" type="qcurve" smooth="yes"/>
      <point x="521" y="770" type="line"/>
    </contour>
  </outline>
</glyph>
<glyph name="macron" format="2">
  <advance width="1202"/>
  <unicode hex="00AF"/>
  <unicode hex="02C9"/>
  <outline>
    <contour>
      <point x="1054" y="1313" type="line"/>
      <point x="360" y="1313" type="line"/>
      <point x="383" y="1456" type="line"/>
      <point x="1077" y="1456" type="line"/>
    </contour>
  </outline>
</glyph>
<glyph name="degree" format="2">
  <advance width="1202"/>
  <unicode hex="00B0"/>
  <outline>
    <contour>
      <point x="457" y="1207" type="qcurve" smooth="yes"/>
      <point x="460" y="1260"/>
      <point x="505" y="1359"/>
      <point x="542.0" y="1396.5" type="qcurve" smooth="yes" name="inserted"/>
      <point x="579" y="1434"/>
      <point x="677" y="1478"/>
      <point x="732" y="1477" type="qcurve" smooth="yes"/>
      <point x="782" y="1476"/>
      <point x="863" y="1433"/>
      <point x="891.5" y="1398.0" type="qcurve" smooth="yes" name="inserted"/>
      <point x="920" y="1363"/>
      <point x="950" y="1273"/>
      <point x="947" y="1225" type="qcurve" smooth="yes"/>
      <point x="944" y="1172"/>
      <point x="900" y="1075"/>
      <point x="864.0" y="1038.5" type="qcurve" smooth="yes" name="inserted"/>
      <point x="828" y="1002"/>
      <point x="732" y="958"/>
      <point x="678" y="959" type="qcurve" smooth="yes"/>
      <point x="628" y="960"/>
      <point x="544" y="1001"/>
      <point x="514.5" y="1035.0" type="qcurve" smooth="yes" name="inserted"/>
      <point x="485" y="1069"/>
      <point x="454" y="1158"/>
    </contour>
    <contour>
      <point x="579" y="1210" type="qcurve" smooth="yes"/>
      <point x="577" y="1185"/>
      <point x="591" y="1141"/>
      <point x="605.5" y="1124.0" type="qcurve" smooth="yes" name="inserted"/>
      <point x="620" y="1107"/>
      <point x="662" y="1087"/>
      <point x="688" y="1087" type="qcurve" smooth="yes"/>
      <point x="715" y="1087"/>
      <point x="764" y="1110"/>
      <point x="782.5" y="1128.5" type="qcurve" smooth="yes" name="inserted"/>
      <point x="801" y="1147"/>
      <point x="824" y="1195"/>
      <point x="826" y="1222" type="qcurve" smooth="yes"/>
      <point x="828" y="1246"/>
      <point x="816" y="1292"/>
      <point x="802.5" y="1310.0" type="qcurve" smooth="yes" name="inserted"/>
      <point x="789" y="1328"/>
      <point x="748" y="1350"/>
      <point x="722" y="1350" type="qcurve" smooth="yes"/>
      <point x="694" y="1350"/>
      <point x="644" y="1326"/>
      <point x="624.5" y="1306.5" type="qcurve" smooth="yes" name="inserted"/>
      <point x="605" y="1287"/>
      <point x="581" y="1237"/>
    </contour>
  </outline>
</glyph>
<glyph name="threesuperior" format="2">
  <advance width="1202"/>
  <unicode hex="00B3"/>
  <outline>
    <contour>
      <point x="912" y="1014" type="qcurve" smooth="yes"/>
      <point x="932" y="991"/>
      <point x="951" y="930"/>
      <point x="950" y="894" type="qcurve" smooth="yes"/>
      <point x="948" y="831"/>
      <point x="889" y="740"/>
      <point x="844" y="711" type="qcurve" smooth="yes" name="inserted"/>
      <point x="798" y="681"/>
      <point x="686" y="654"/>
      <point x="631" y="655" type="qcurve" smooth="yes"/>
      <point x="577" y="656"/>
      <point x="479" y="686"/>
      <point x="443" y="715" type="qcurve" smooth="yes" name="inserted"/>
      <point x="406" y="744"/>
      <point x="363" y="831"/>
      <point x="363" y="889" type="qcurve"/>
      <point x="515" y="889" type="line"/>
      <point x="515" y="862"/>
      <point x="532" y="824"/>
      <point x="548" y="811" type="qcurve" smooth="yes"/>
      <point x="564" y="798"/>
      <point x="611" y="785"/>
      <point x="638" y="784" type="qcurve" smooth="yes"/>
      <point x="666" y="784"/>
      <point x="720" y="798"/>
      <point x="743" y="813" type="qcurve" smooth="yes" name="inserted"/>
      <point x="765" y="827"/>
      <point x="796" y="871"/>
      <point x="800" y="901" type="qcurve" smooth="yes"/>
      <point x="804" y="932"/>
      <point x="785" y="973"/>
      <point x="767" y="985" type="qcurve" smooth="yes" name="inserted"/>
      <point x="748" y="997"/>
      <point x="699" y="1007"/>
      <point x="672" y="1008" type="qcurve" smooth="yes"/>
      <point x="585" y="1009" type="line"/>
      <point x="596" y="1125" type="line"/>
      <point x="676" y="1124" type="line" smooth="yes"/>
      <point x="703" y="1125"/>
      <point x="759" y="1139"/>
      <point x="782" y="1153" type="qcurve" smooth="yes" name="inserted"/>
      <point x="805" y="1167"/>
      <point x="837" y="1210"/>
      <point x="841" y="1241" type="qcurve" smooth="yes"/>
      <point x="844" y="1266"/>
      <point x="829" y="1303"/>
      <point x="814" y="1315" type="qcurve" smooth="yes" name="inserted"/>
      <point x="799" y="1327"/>
      <point x="758" y="1339"/>
      <point x="735" y="1339" type="qcurve" smooth="yes"/>
      <point x="685" y="1339"/>
      <point x="609" y="1294"/>
      <point x="593" y="1246" type="qcurve"/>
      <point x="437" y="1246" type="line"/>
      <point x="443" y="1303"/>
      <point x="497" y="1386"/>
      <point x="538" y="1414" type="qcurve" smooth="yes" name="inserted"/>
      <point x="578" y="1441"/>
      <point x="678" y="1468"/>
      <point x="732" y="1467" type="qcurve" smooth="yes"/>
      <point x="781" y="1467"/>
      <point x="878" y="1441"/>
      <point x="916" y="1415" type="qcurve" smooth="yes" name="inserted"/>
      <point x="953" y="1388"/>
      <point x="997" y="1306"/>
      <point x="994" y="1249" type="qcurve" smooth="yes"/>
      <point x="992" y="1213"/>
      <point x="964" y="1157"/>
      <point x="942" y="1135" type="qcurve" smooth="yes" name="inserted"/>
      <point x="920" y="1113"/>
      <point x="865" y="1078"/>
      <point x="835" y="1065" type="qcurve"/>
      <point x="859" y="1056"/>
      <point x="898" y="1031"/>
    </contour>
  </outline>
</glyph>
<glyph name="mu" format="2">
  <advance width="1202"/>
  <unicode hex="00B5"/>
  <outline>
    <contour>
      <point x="446" y="1082" type="line"/>
      <point x="344" y="457" type="line" smooth="yes"/>
      <point x="340" y="425"/>
      <point x="335" y="352"/>
      <point x="337" y="316" type="qcurve" smooth="yes" name="inserted"/>
      <point x="339" y="280"/>
      <point x="355" y="215"/>
      <point x="373" y="190" type="qcurve" smooth="yes" name="inserted"/>
      <point x="390" y="164"/>
      <point x="448" y="132"/>
      <point x="492" y="131" type="qcurve" smooth="yes"/>
      <point x="542" y="129"/>
      <point x="629" y="149"/>
      <point x="666" y="172" type="qcurve" smooth="yes"/>
      <point x="697" y="191"/>
      <point x="751" y="246"/>
      <point x="773" y="282" type="qcurve"/>
      <point x="912" y="1082" type="line"/>
      <point x="1094" y="1082" type="line"/>
      <point x="906" y="0" type="line"/>
      <point x="744" y="0" type="line"/>
      <point x="763" y="116" type="line"/>
      <point x="735" y="81"/>
      <point x="672" y="28"/>
      <point x="637" y="10" type="qcurve" smooth="yes"/>
      <point x="604" y="-5"/>
      <point x="531" y="-21"/>
      <point x="490" y="-21" type="qcurve" smooth="yes"/>
      <point x="430" y="-20"/>
      <point x="320" y="13"/>
      <point x="275" y="54" type="qcurve"/>
      <point x="186" y="-416" type="line"/>
      <point x="6" y="-416" type="line"/>
      <point x="266" y="1082" type="line"/>
    </contour>
  </outline>
</glyph>
<glyph name="periodcentered" format="2">
  <advance width="1202"/>
  <unicode hex="00B7"/>
  <outline>
    <contour>
      <point x="511" y="726" type="qcurve" smooth="yes"/>
      <point x="512" y="775"/>
      <point x="574" y="840"/>
      <point x="624" y="842" type="qcurve" smooth="yes"/>
      <point x="672.0" y="844.0"/>
      <point x="735.0" y="780.0"/>
      <point x="735" y="732" type="qcurve" smooth="yes"/>
      <point x="735.0" y="683"/>
      <point x="667" y="618"/>
      <point x="623" y="618" type="qcurve" smooth="yes"/>
      <point x="572" y="618"/>
      <point x="511.0" y="678.0"/>
    </contour>
  </outline>
</glyph>
<glyph name="cedilla" format="2">
  <advance width="1202"/>
  <unicode hex="00B8"/>
  <outline>
    <contour>
      <point x="503" y="0" type="line"/>
      <point x="482" y="-55" type="line"/>
      <point x="508" y="-61"/>
      <point x="550" y="-84"/>
      <point x="565" y="-99" type="qcurve" smooth="yes"/>
      <point x="586" y="-121"/>
      <point x="607" y="-181"/>
      <point x="606" y="-218" type="qcurve" smooth="yes"/>
      <point x="605" y="-260"/>
      <point x="577" y="-324"/>
      <point x="554" y="-347" type="qcurve" smooth="yes"/>
      <point x="529" y="-372"/>
      <point x="460" y="-407"/>
      <point x="423" y="-417" type="qcurve" smooth="yes"/>
      <point x="388" y="-427"/>
      <point x="313" y="-436"/>
      <point x="279" y="-437" type="qcurve"/>
      <point x="283" y="-329" type="line"/>
      <point x="310" y="-328"/>
      <point x="369" y="-318"/>
      <point x="395" y="-306" type="qcurve" smooth="yes" name="inserted"/>
      <point x="421" y="-295"/>
      <point x="459" y="-254"/>
      <point x="464" y="-222" type="qcurve" smooth="yes"/>
      <point x="469" y="-192"/>
      <point x="443" y="-159"/>
      <point x="422" y="-150" type="qcurve" smooth="yes" name="inserted"/>
      <point x="400" y="-142"/>
      <point x="348" y="-136"/>
      <point x="327" y="-133" type="qcurve"/>
      <point x="372" y="0" type="line"/>
    </contour>
  </outline>
</glyph>
<glyph name="ordmasculine" format="2">
  <advance width="1202"/>
  <unicode hex="00BA"/>
  <outline>
    <contour>
      <point x="352" y="1140" type="line" smooth="yes"/>
      <point x="361" y="1214"/>
      <point x="426" y="1339"/>
      <point x="476.0" y="1384.0" type="qcurve" smooth="yes" name="inserted"/>
      <point x="526" y="1429"/>
      <point x="657" y="1478"/>
      <point x="733" y="1476" type="qcurve" smooth="yes"/>
      <point x="805" y="1474"/>
      <point x="917" y="1422"/>
      <point x="954.5" y="1377.0" type="qcurve" smooth="yes" name="inserted"/>
      <point x="992" y="1332"/>
      <point x="1026" y="1211"/>
      <point x="1019" y="1141" type="qcurve" smooth="yes"/>
      <point x="1006" y="1024" type="line" smooth="yes"/>
      <point x="997" y="950"/>
      <point x="933" y="826"/>
      <point x="883.5" y="781.0" type="qcurve" smooth="yes" name="inserted"/>
      <point x="834" y="736"/>
      <point x="704" y="688"/>
      <point x="628" y="690" type="qcurve" smooth="yes"/>
      <point x="556" y="692"/>
      <point x="443" y="744"/>
      <point x="405.5" y="788.5" type="qcurve" smooth="yes" name="inserted"/>
      <point x="368" y="833"/>
      <point x="333" y="954"/>
      <point x="339" y="1024" type="qcurve" smooth="yes"/>
    </contour>
    <contour>
      <point x="502" y="1022" type="line" smooth="yes"/>
      <point x="499" y="984"/>
      <point x="512" y="915"/>
      <point x="529.0" y="888.0" type="qcurve" smooth="yes" name="inserted"/>
      <point x="546" y="861"/>
      <point x="605" y="828"/>
      <point x="647" y="827" type="qcurve" smooth="yes"/>
      <point x="690" y="826"/>
      <point x="759" y="857"/>
      <point x="784.0" y="884.0" type="qcurve" smooth="yes" name="inserted"/>
      <point x="809" y="911"/>
      <point x="840" y="983"/>
      <point x="846" y="1023" type="qcurve" smooth="yes"/>
      <point x="859" y="1142" type="line" smooth="yes"/>
      <point x="862" y="1179"/>
      <point x="849" y="1249"/>
      <point x="831.5" y="1276.0" type="qcurve" smooth="yes" name="inserted"/>
      <point x="814" y="1303"/>
      <point x="756" y="1336"/>
      <point x="714" y="1337" type="qcurve" smooth="yes"/>
      <point x="670" y="1338"/>
      <point x="601" y="1308"/>
      <point x="576.0" y="1281.0" type="qcurve" smooth="yes" name="inserted"/>
      <point x="551" y="1254"/>
      <point x="520" y="1182"/>
      <point x="514" y="1142" type="qcurve" smooth="yes"/>
    </contour>
  </outline>
</glyph>
<glyph name="onequarter" format="2">
  <advance width="1202"/>
  <unicode hex="00BC"/>
  <outline>
    <contour>
      <point x="408.6" y="751.0" type="line"/>
      <point x="270.90000000000003" y="751.0" type="line"/>
      <point x="364.5" y="1288.3000000000002" type="line"/>
      <point x="167.40000000000003" y="1237.9" type="line"/>
      <point x="188.10000000000002" y="1359.4" type="line"/>
      <point x="507.6" y="1461.1" type="line"/>
      <point x="527.4" y="1461.1" type="line"/>
    </contour>
    <contour>
      <point x="989.7" y="269.1" type="line"/>
      <point x="1083.3000000000002" y="269.1" type="line"/>
      <point x="1062.6" y="152.1" type="line"/>
      <point x="969.9" y="152.1" type="line"/>
      <point x="942.9" y="0.0" type="line"/>
      <point x="804.3" y="0.0" type="line"/>
      <point x="831.3000000000001" y="152.1" type="line"/>
      <point x="504.6" y="152.1" type="line"/>
      <point x="516.3" y="252.0" type="line"/>
      <point x="918.6" y="710.1" type="line"/>
      <point x="1066.2" y="710.1" type="line"/>
    </contour>
    <contour>
      <point x="663.9000000000001" y="269.1" type="line"/>
      <point x="851.1" y="269.1" type="line"/>
      <point x="902.4" y="531.0" type="line"/>
      <point x="882.6" y="504.0" type="line"/>
    </contour>
    <component base="fraction" xOffset="-8" yOffset="8"/>
  </outline>
</glyph>
<glyph name="onehalf" format="2">
  <advance width="1202"/>
  <unicode hex="00BD"/>
  <outline>
    <contour>
      <point x="395.6" y="747.0" type="line"/>
      <point x="257.90000000000003" y="747.0" type="line"/>
      <point x="351.5" y="1284.3000000000002" type="line"/>
      <point x="154.40000000000003" y="1233.9" type="line"/>
      <point x="175.10000000000002" y="1355.4" type="line"/>
      <point x="494.6" y="1457.1" type="line"/>
      <point x="514.4" y="1457.1" type="line"/>
    </contour>
    <contour>
      <point x="1045.9" y="0.0" type="line"/>
      <point x="521.2" y="0.0" type="line"/>
      <point x="540.1" y="104.4" type="line"/>
      <point x="824.5" y="342.90000000000003" type="line" smooth="yes"/>
      <point x="843.4" y="359.1"/>
      <point x="886.6" y="396.90000000000003"/>
      <point x="906.4" y="418.5" type="qcurve" smooth="yes" name="inserted"/>
      <point x="926.2" y="440.1"/>
      <point x="955.0" y="488.7"/>
      <point x="958.6" y="514.8000000000001" type="qcurve" smooth="yes"/>
      <point x="964.9" y="558.0"/>
      <point x="916.3000000000001" y="606.6"/>
      <point x="874.0" y="607.5" type="qcurve" smooth="yes"/>
      <point x="814.6" y="608.4"/>
      <point x="743.5" y="540.0"/>
      <point x="730.9000000000001" y="485.1" type="qcurve"/>
      <point x="591.4000000000001" y="484.2" type="line"/>
      <point x="597.7" y="540.0"/>
      <point x="645.4000000000001" y="628.2"/>
      <point x="683.2" y="659.25" type="qcurve" smooth="yes" name="inserted"/>
      <point x="721.0" y="690.3000000000001"/>
      <point x="818.2" y="722.7"/>
      <point x="874.0" y="721.8000000000001" type="qcurve" smooth="yes"/>
      <point x="920.8000000000001" y="720.9"/>
      <point x="1006.3000000000001" y="694.8000000000001"/>
      <point x="1037.8000000000002" y="669.15" type="qcurve" smooth="yes" name="inserted"/>
      <point x="1069.3000000000002" y="643.5"/>
      <point x="1105.3000000000002" y="566.1"/>
      <point x="1102.6" y="514.8000000000001" type="qcurve" smooth="yes"/>
      <point x="1099.9" y="470.7"/>
      <point x="1060.3000000000002" y="394.2"/>
      <point x="1031.0500000000002" y="360.90000000000003" type="qcurve" smooth="yes" name="inserted"/>
      <point x="1001.8000000000001" y="327.6"/>
      <point x="932.5" y="270.0"/>
      <point x="901.0" y="245.70000000000002" type="qcurve" smooth="yes"/>
      <point x="725.5" y="115.2" type="line"/>
      <point x="1066.6" y="115.2" type="line"/>
    </contour>
    <component base="fraction" xOffset="-66" yOffset="8"/>
  </outline>
</glyph>
<glyph name="threequarters" format="2">
  <advance width="1202"/>
  <unicode hex="00BE"/>
  <outline>
    <contour>
      <point x="1021.7" y="269.1" type="line"/>
      <point x="1115.3000000000002" y="269.1" type="line"/>
      <point x="1094.6" y="152.1" type="line"/>
      <point x="1001.9" y="152.1" type="line"/>
      <point x="974.9" y="0.0" type="line"/>
      <point x="836.3" y="0.0" type="line"/>
      <point x="863.3000000000001" y="152.1" type="line"/>
      <point x="536.6" y="152.1" type="line"/>
      <point x="548.3" y="252.0" type="line"/>
      <point x="950.6" y="710.1" type="line"/>
      <point x="1098.2" y="710.1" type="line"/>
    </contour>
    <contour>
      <point x="695.9000000000001" y="269.1" type="line"/>
      <point x="883.1" y="269.1" type="line"/>
      <point x="934.4" y="531.0" type="line"/>
      <point x="914.6" y="504.0" type="line"/>
    </contour>
    <contour>
      <point x="316.0" y="1157.1" type="line"/>
      <point x="388.0" y="1156.2" type="line" smooth="yes"/>
      <point x="412.30000000000007" y="1157.1"/>
      <point x="462.70000000000005" y="1169.7"/>
      <point x="483.4" y="1182.3" type="qcurve" smooth="yes" name="inserted"/>
      <point x="504.1" y="1194.9"/>
      <point x="532.9" y="1233.6"/>
      <point x="536.5" y="1261.5" type="qcurve" smooth="yes"/>
      <point x="539.2" y="1284.0"/>
      <point x="525.7" y="1317.3000000000002"/>
      <point x="512.2" y="1328.1" type="qcurve" smooth="yes" name="inserted"/>
      <point x="498.70000000000005" y="1338.9"/>
      <point x="461.80000000000007" y="1349.7"/>
      <point x="441.1" y="1349.7" type="qcurve" smooth="yes"/>
      <point x="396.1" y="1349.7"/>
      <point x="327.7" y="1309.2"/>
      <point x="313.3" y="1266.0" type="qcurve"/>
      <point x="172.90000000000003" y="1266.0" type="line"/>
      <point x="178.3" y="1317.3000000000002"/>
      <point x="226.90000000000003" y="1392.0"/>
      <point x="263.35" y="1416.75" type="qcurve" smooth="yes" name="inserted"/>
      <point x="299.8" y="1441.5"/>
      <point x="389.8" y="1465.8000000000002"/>
      <point x="438.4" y="1464.9" type="qcurve" smooth="yes"/>
      <point x="482.5" y="1464.9"/>
      <point x="569.8000000000001" y="1441.5"/>
      <point x="603.5500000000001" y="1417.65" type="qcurve" smooth="yes" name="inserted"/>
      <point x="637.3000000000001" y="1393.8000000000002"/>
      <point x="676.9" y="1320.0"/>
      <point x="674.2" y="1268.7" type="qcurve" smooth="yes"/>
      <point x="672.4" y="1236.3"/>
      <point x="647.2" y="1185.9"/>
      <point x="627.4" y="1166.1" type="qcurve" smooth="yes" name="inserted"/>
      <point x="607.6" y="1146.3"/>
      <point x="558.1" y="1114.8"/>
      <point x="531.1" y="1103.1" type="qcurve"/>
      <point x="583.3000000000001" y="1084.2"/>
      <point x="636.4" y="1005.0"/>
      <point x="634.6" y="949.2" type="qcurve" smooth="yes"/>
      <point x="632.8000000000001" y="892.5"/>
      <point x="579.7" y="810.6"/>
      <point x="538.75" y="784.05" type="qcurve" smooth="yes" name="inserted"/>
      <point x="497.80000000000007" y="757.5"/>
      <point x="397.0" y="733.2"/>
      <point x="347.5" y="734.1" type="qcurve" smooth="yes"/>
      <point x="298.90000000000003" y="735.0"/>
      <point x="210.7" y="762.0"/>
      <point x="177.85000000000002" y="788.1" type="qcurve" smooth="yes" name="inserted"/>
      <point x="145.0" y="814.2"/>
      <point x="106.30000000000001" y="892.5"/>
      <point x="106.30000000000001" y="944.7" type="qcurve"/>
      <point x="243.10000000000002" y="944.7" type="line"/>
      <point x="243.10000000000002" y="895.2"/>
      <point x="306.1" y="851.1"/>
      <point x="353.8" y="850.2" type="qcurve" smooth="yes"/>
      <point x="379.0" y="850.2"/>
      <point x="427.6" y="862.8"/>
      <point x="447.85" y="875.85" type="qcurve" smooth="yes" name="inserted"/>
      <point x="468.1" y="888.9"/>
      <point x="496.0" y="928.5"/>
      <point x="499.6" y="955.5" type="qcurve" smooth="yes"/>
      <point x="503.20000000000005" y="983.4"/>
      <point x="486.1" y="1020.3"/>
      <point x="469.45000000000005" y="1031.1" type="qcurve" smooth="yes" name="inserted"/>
      <point x="452.80000000000007" y="1041.9"/>
      <point x="408.70000000000005" y="1050.9"/>
      <point x="384.40000000000003" y="1051.8" type="qcurve" smooth="yes"/>
      <point x="306.1" y="1052.7" type="line"/>
    </contour>
    <component base="fraction" xOffset="56" yOffset="7"/>
  </outline>
</glyph>
<glyph name="questiondown" format="2">
  <advance width="1202"/>
  <unicode hex="00BF"/>
  <outline>
    <contour>
      <point x="708" y="674" type="line"/>
      <point x="702" y="611"/>
      <point x="676" y="518"/>
      <point x="654" y="479" type="qcurve" smooth="yes" name="inserted"/>
      <point x="632" y="439"/>
      <point x="566" y="367"/>
      <point x="520" y="326" type="qcurve" smooth="yes"/>
      <point x="482" y="293"/>
      <point x="402" y="217"/>
      <point x="368" y="174" type="qcurve" smooth="yes" name="inserted"/>
      <point x="334" y="131"/>
      <point x="285" y="36"/>
      <point x="278" y="-17" type="qcurve" smooth="yes"/>
      <point x="272" y="-64"/>
      <point x="288" y="-142"/>
      <point x="310" y="-170" type="qcurve" smooth="yes" name="inserted"/>
      <point x="332" y="-199"/>
      <point x="403" y="-232"/>
      <point x="452" y="-233" type="qcurve" smooth="yes"/>
      <point x="505" y="-234"/>
      <point x="593" y="-202"/>
      <point x="626" y="-172" type="qcurve" smooth="yes"/>
      <point x="654" y="-147"/>
      <point x="692" y="-76"/>
      <point x="701" y="-33" type="qcurve"/>
      <point x="881" y="-32" type="line"/>
      <point x="871" y="-118"/>
      <point x="794" y="-254"/>
      <point x="736" y="-300" type="qcurve" smooth="yes" name="inserted"/>
      <point x="677" y="-347"/>
      <point x="526" y="-395"/>
      <point x="441" y="-393" type="qcurve" smooth="yes"/>
      <point x="358" y="-391"/>
      <point x="223" y="-339"/>
      <point x="177" y="-291" type="qcurve" smooth="yes" name="inserted"/>
      <point x="130" y="-243"/>
      <point x="86" y="-107"/>
      <point x="94" y="-22" type="qcurve" smooth="yes"/>
      <point x="101" y="54"/>
      <point x="161" y="184"/>
      <point x="206" y="240" type="qcurve" smooth="yes" name="inserted"/>
      <point x="250" y="296"/>
      <point x="358" y="396"/>
      <point x="412" y="442" type="qcurve" smooth="yes"/>
      <point x="441" y="467"/>
      <point x="482" y="518"/>
      <point x="496" y="546" type="qcurve" smooth="yes" name="inserted"/>
      <point x="509" y="573"/>
      <point x="526" y="636"/>
      <point x="531" y="673" type="qcurve"/>
    </contour>
    <contour>
      <point x="561" y="985" type="qcurve" smooth="yes"/>
      <point x="562" y="1034"/>
      <point x="624" y="1100"/>
      <point x="674" y="1102" type="qcurve" smooth="yes"/>
      <point x="723" y="1103"/>
      <point x="786" y="1040"/>
      <point x="785" y="991" type="qcurve" smooth="yes"/>
      <point x="784" y="942"/>
      <point x="721" y="880"/>
      <point x="672" y="878" type="qcurve" smooth="yes"/>
      <point x="624.786210994325" y="876.0327587914302"/>
      <point x="561.0" y="936.1871613953592"/>
    </contour>
  </outline>
</glyph>
<glyph name="AE" format="2">
  <advance width="1202"/>
  <unicode hex="00C6"/>
  <outline>
    <contour>
      <point x="1056" y="0" type="line"/>
      <point x="540" y="0" type="line"/>
      <point x="600" y="353" type="line"/>
      <point x="305" y="353" type="line"/>
      <point x="123" y="0" type="line"/>
      <point x="-78" y="0" type="line"/>
      <point x="718" y="1456" type="line"/>
      <point x="1286" y="1456" type="line"/>
      <point x="1259" y="1304" type="line"/>
      <point x="932" y="1304" type="line"/>
      <point x="854" y="833" type="line"/>
      <point x="1146" y="833" type="line"/>
      <point x="1120" y="682" type="line"/>
      <point x="827" y="682" type="line"/>
      <point x="736" y="151" type="line"/>
      <point x="1083" y="151" type="line"/>
    </contour>
    <contour>
      <point x="393" y="527" type="line"/>
      <point x="630" y="527" type="line"/>
      <point x="749" y="1218" type="line"/>
    </contour>
  </outline>
</glyph>
<glyph name="Eth" format="2">
  <advance width="1232"/>
  <unicode hex="00D0"/>
  <outline>
    <contour>
      <point x="76" y="0" type="line"/>
      <point x="191" y="666" type="line"/>
      <point x="-30" y="666" type="line"/>
      <point x="-3" y="817" type="line"/>
      <point x="217" y="817" type="line"/>
      <point x="328" y="1456" type="line"/>
      <point x="644" y="1455" type="line" smooth="yes"/>
      <point x="743" y="1453"/>
      <point x="905" y="1398"/>
      <point x="967" y="1350" type="qcurve" smooth="yes"/>
      <point x="1026" y="1306"/>
      <point x="1111" y="1181"/>
      <point x="1136" y="1109" type="qcurve" smooth="yes"/>
      <point x="1160" y="1036"/>
      <point x="1173" y="870"/>
      <point x="1162" y="781" type="qcurve" smooth="yes"/>
      <point x="1147" y="674" type="line" smooth="yes"/>
      <point x="1125" y="530"/>
      <point x="1004" y="284"/>
      <point x="910" y="194" type="qcurve" smooth="yes" name="inserted"/>
      <point x="816" y="103"/>
      <point x="566" y="0"/>
      <point x="415" y="0" type="qcurve" smooth="yes"/>
    </contour>
    <contour>
      <point x="589" y="666" type="line"/>
      <point x="375" y="666" type="line"/>
      <point x="286" y="151" type="line"/>
      <point x="419" y="150" type="line" smooth="yes"/>
      <point x="536" y="151"/>
      <point x="722" y="233"/>
      <point x="791" y="304" type="qcurve" smooth="yes" name="inserted"/>
      <point x="860" y="374"/>
      <point x="948" y="565"/>
      <point x="966" y="674" type="qcurve" smooth="yes"/>
      <point x="982" y="784" type="line" smooth="yes"/>
      <point x="991" y="851"/>
      <point x="987" y="983"/>
      <point x="971" y="1042" type="qcurve" smooth="yes"/>
      <point x="956" y="1097"/>
      <point x="900" y="1192"/>
      <point x="860" y="1227" type="qcurve" smooth="yes"/>
      <point x="820" y="1261"/>
      <point x="711" y="1300"/>
      <point x="641" y="1303" type="qcurve" smooth="yes"/>
      <point x="486" y="1304" type="line"/>
      <point x="401" y="817" type="line"/>
      <point x="616" y="817" type="line"/>
    </contour>
  </outline>
</glyph>
<glyph name="Oslash" format="2">
  <advance width="1202"/>
  <unicode hex="00D8"/>
  <outline>
    <contour>
      <point x="1089" y="645" type="line" smooth="yes"/>
      <point x="1076" y="568"/>
      <point x="1029" y="409"/>
      <point x="994" y="335" type="qcurve" smooth="yes" name="inserted"/>
      <point x="958" y="260"/>
      <point x="862" y="128"/>
      <point x="801" y="80" type="qcurve" smooth="yes" name="inserted"/>
      <point x="739" y="32"/>
      <point x="588" y="-22"/>
      <point x="498" y="-20" type="qcurve" smooth="yes"/>
      <point x="410" y="-18"/>
      <point x="281" y="43"/>
      <point x="233" y="94" type="qcurve"/>
      <point x="93" y="-93" type="line"/>
      <point x="-58" y="-93" type="line"/>
      <point x="161" y="200" type="line"/>
      <point x="137" y="249"/>
      <point x="108" y="359"/>
      <point x="101" y="417" type="qcurve" smooth="yes" name="inserted"/>
      <point x="94" y="474"/>
      <point x="96" y="590"/>
      <point x="104" y="644" type="qcurve" smooth="yes"/>
      <point x="130" y="810" type="line" smooth="yes"/>
      <point x="142" y="887"/>
      <point x="190" y="1046"/>
      <point x="226" y="1121" type="qcurve" smooth="yes" name="inserted"/>
      <point x="261" y="1195"/>
      <point x="358" y="1327"/>
      <point x="420" y="1376" type="qcurve" smooth="yes" name="inserted"/>
      <point x="481" y="1424"/>
      <point x="632" y="1478"/>
      <point x="722" y="1476" type="qcurve" smooth="yes"/>
      <point x="782" y="1475"/>
      <point x="881" y="1445"/>
      <point x="920" y="1420" type="qcurve" smooth="yes"/>
      <point x="946" y="1403"/>
      <point x="991" y="1360"/>
      <point x="1010" y="1336" type="qcurve"/>
      <point x="1144" y="1516" type="line"/>
      <point x="1295" y="1516" type="line"/>
      <point x="1074" y="1221" type="line"/>
      <point x="1093" y="1174"/>
      <point x="1115" y="1071"/>
      <point x="1120" y="1018" type="qcurve" smooth="yes" name="inserted"/>
      <point x="1125" y="965"/>
      <point x="1122" y="860"/>
      <point x="1115" y="810" type="qcurve" smooth="yes"/>
    </contour>
    <contour>
      <point x="281" y="643" type="line" smooth="yes"/>
      <point x="276" y="612"/>
      <point x="270" y="541"/>
      <point x="270" y="505" type="qcurve" smooth="yes"/>
      <point x="270" y="470"/>
      <point x="277" y="398"/>
      <point x="284" y="364" type="qcurve"/>
      <point x="901" y="1191" type="line"/>
      <point x="889" y="1215"/>
      <point x="856" y="1257"/>
      <point x="835" y="1272" type="qcurve" smooth="yes"/>
      <point x="810" y="1290"/>
      <point x="748" y="1311"/>
      <point x="710" y="1312" type="qcurve" smooth="yes"/>
      <point x="645" y="1314"/>
      <point x="540" y="1271"/>
      <point x="499" y="1233" type="qcurve" smooth="yes" name="inserted"/>
      <point x="457" y="1194"/>
      <point x="394" y="1093"/>
      <point x="371" y="1037" type="qcurve" smooth="yes" name="inserted"/>
      <point x="348" y="980"/>
      <point x="318" y="864"/>
      <point x="309" y="812" type="qcurve" smooth="yes"/>
    </contour>
    <contour>
      <point x="936" y="814" type="line" smooth="yes"/>
      <point x="943" y="864"/>
      <point x="949" y="983"/>
      <point x="942" y="1043" type="qcurve"/>
      <point x="336" y="233" type="line"/>
      <point x="364" y="193"/>
      <point x="448" y="144"/>
      <point x="510" y="142" type="qcurve" smooth="yes"/>
      <point x="575" y="140"/>
      <point x="681" y="183"/>
      <point x="722" y="222" type="qcurve" smooth="yes" name="inserted"/>
      <point x="763" y="260"/>
      <point x="825" y="362"/>
      <point x="848" y="419" type="qcurve" smooth="yes" name="inserted"/>
      <point x="870" y="475"/>
      <point x="900" y="591"/>
      <point x="909" y="644" type="qcurve" smooth="yes"/>
    </contour>
  </outline>
</glyph>
<glyph name="germandbls" format="2">
  <advance width="1202"/>
  <unicode hex="00DF"/>
  <outline>
    <contour>
      <point x="239" y="0" type="line"/>
      <point x="59" y="0" type="line"/>
      <point x="245" y="1087" type="line" smooth="yes"/>
      <point x="258" y="1177"/>
      <point x="325" y="1349"/>
      <point x="380.5" y="1415.5" type="qcurve" smooth="yes" name="inserted"/>
      <point x="436" y="1482"/>
      <point x="591" y="1561"/>
      <point x="693" y="1558" type="qcurve" smooth="yes"/>
      <point x="766" y="1556"/>
      <point x="883" y="1508"/>
      <point x="923.0" y="1465.0" type="qcurve" smooth="yes" name="inserted"/>
      <point x="963" y="1422"/>
      <point x="1002" y="1302"/>
      <point x="996" y="1229" type="qcurve" smooth="yes"/>
      <point x="991" y="1167"/>
      <point x="939" y="1065"/>
      <point x="908.5" y="1017.0" type="qcurve" smooth="yes" name="inserted"/>
      <point x="878" y="969"/>
      <point x="822" y="871"/>
      <point x="813" y="813" type="qcurve" smooth="yes"/>
      <point x="805" y="768"/>
      <point x="831" y="688"/>
      <point x="855.0" y="650.5" type="qcurve" smooth="yes" name="inserted"/>
      <point x="879" y="613"/>
      <point x="938" y="539"/>
      <point x="963.5" y="500.0" type="qcurve" smooth="yes" name="inserted"/>
      <point x="989" y="461"/>
      <point x="1021" y="375"/>
      <point x="1018" y="325" type="qcurve" smooth="yes"/>
      <point x="1013" y="245"/>
      <point x="954" y="116"/>
      <point x="904.5" y="70.0" type="qcurve" smooth="yes" name="inserted"/>
      <point x="855" y="24"/>
      <point x="720" y="-24"/>
      <point x="641" y="-23" type="qcurve" smooth="yes"/>
      <point x="569.2116566848732" y="-23.0"/>
      <point x="413.1774237072191" y="9.881717528520632"/>
      <point x="353" y="50" type="qcurve"/>
      <point x="407" y="206" type="line"/>
      <point x="455" y="173"/>
      <point x="569" y="129"/>
      <point x="628" y="129" type="qcurve" smooth="yes"/>
      <point x="671" y="129"/>
      <point x="743" y="155"/>
      <point x="770.5" y="179.5" type="qcurve" smooth="yes" name="inserted"/>
      <point x="798" y="204"/>
      <point x="833" y="273"/>
      <point x="839" y="315" type="qcurve" smooth="yes"/>
      <point x="846" y="363"/>
      <point x="817" y="445"/>
      <point x="792.5" y="483.0" type="qcurve" smooth="yes" name="inserted"/>
      <point x="768" y="521"/>
      <point x="708" y="596"/>
      <point x="682.5" y="635.5" type="qcurve" smooth="yes" name="inserted"/>
      <point x="657" y="675"/>
      <point x="626" y="764"/>
      <point x="631" y="816" type="qcurve" smooth="yes"/>
      <point x="637" y="883"/>
      <point x="719" y="1011"/>
      <point x="754" y="1061" type="qcurve" smooth="yes" name="inserted"/>
      <point x="787" y="1108"/>
      <point x="816" y="1176"/>
      <point x="821" y="1214" type="qcurve" smooth="yes"/>
      <point x="825" y="1248"/>
      <point x="814" y="1316"/>
      <point x="798.5" y="1343.5" type="qcurve" smooth="yes" name="inserted"/>
      <point x="783" y="1371"/>
      <point x="729" y="1406"/>
      <point x="690" y="1408" type="qcurve" smooth="yes"/>
      <point x="625" y="1411"/>
      <point x="532" y="1351"/>
      <point x="500.0" y="1303.5" type="qcurve" smooth="yes" name="inserted"/>
      <point x="468" y="1256"/>
      <point x="432" y="1140"/>
      <point x="424" y="1088" type="qcurve" smooth="yes"/>
    </contour>
  </outline>
</glyph>
<glyph name="ae" format="2">
  <advance width="1202"/>
  <unicode hex="00E6"/>
  <outline>
    <contour>
      <point x="776" y="-19" type="qcurve" smooth="yes"/>
      <point x="735" y="-19"/>
      <point x="656" y="-2"/>
      <point x="622" y="16" type="qcurve" smooth="yes" name="inserted"/>
      <point x="587" y="33"/>
      <point x="530" y="87"/>
      <point x="511" y="125" type="qcurve"/>
      <point x="484" y="93"/>
      <point x="424" y="39"/>
      <point x="391" y="20" type="qcurve" smooth="yes" name="inserted"/>
      <point x="357" y="0"/>
      <point x="280" y="-21"/>
      <point x="237" y="-20" type="qcurve" smooth="yes"/>
      <point x="172" y="-19"/>
      <point x="76" y="28"/>
      <point x="45" y="68" type="qcurve" smooth="yes" name="inserted"/>
      <point x="13" y="108"/>
      <point x="-15" y="216"/>
      <point x="-12" y="277" type="qcurve" smooth="yes"/>
      <point x="-6" y="370"/>
      <point x="69" y="505"/>
      <point x="129" y="550" type="qcurve" smooth="yes" name="inserted"/>
      <point x="189" y="594"/>
      <point x="344" y="636"/>
      <point x="430" y="636" type="qcurve" smooth="yes"/>
      <point x="496" y="635" type="line"/>
      <point x="522" y="784" type="line" smooth="yes"/>
      <point x="527" y="812"/>
      <point x="522" y="871"/>
      <point x="513" y="895" type="qcurve" smooth="yes" name="inserted"/>
      <point x="503" y="919"/>
      <point x="462" y="950"/>
      <point x="427" y="951" type="qcurve" smooth="yes"/>
      <point x="391" y="952"/>
      <point x="338" y="926"/>
      <point x="320" y="904" type="qcurve" smooth="yes" name="inserted"/>
      <point x="301" y="881"/>
      <point x="278" y="823"/>
      <point x="272" y="792" type="qcurve"/>
      <point x="97" y="800" type="line"/>
      <point x="104" y="870"/>
      <point x="159" y="983"/>
      <point x="204" y="1023" type="qcurve" smooth="yes" name="inserted"/>
      <point x="248" y="1062"/>
      <point x="367" y="1104"/>
      <point x="438" y="1103" type="qcurve" smooth="yes"/>
      <point x="504" y="1103"/>
      <point x="621" y="1059"/>
      <point x="664" y="996" type="qcurve"/>
      <point x="715" y="1045"/>
      <point x="834" y="1103"/>
      <point x="906" y="1102" type="qcurve" smooth="yes"/>
      <point x="985" y="1100"/>
      <point x="1095" y="1037"/>
      <point x="1128" y="986" type="qcurve" smooth="yes" name="inserted"/>
      <point x="1161" y="934"/>
      <point x="1187" y="792"/>
      <point x="1174" y="710" type="qcurve" smooth="yes"/>
      <point x="1140" y="497" type="line"/>
      <point x="651" y="497" type="line"/>
      <point x="639" y="410" type="line" smooth="yes"/>
      <point x="633" y="357"/>
      <point x="641" y="257"/>
      <point x="661" y="219" type="qcurve" smooth="yes" name="inserted"/>
      <point x="680" y="180"/>
      <point x="757" y="132"/>
      <point x="819" y="132" type="qcurve" smooth="yes"/>
      <point x="846" y="132"/>
      <point x="895" y="141"/>
      <point x="918" y="149" type="qcurve" smooth="yes"/>
      <point x="944" y="158"/>
      <point x="993" y="185"/>
      <point x="1017" y="200" type="qcurve"/>
      <point x="1052" y="62" type="line"/>
      <point x="1024" y="39"/>
      <point x="957" y="7"/>
      <point x="921" y="-2" type="qcurve" smooth="yes" name="inserted"/>
      <point x="885" y="-12"/>
      <point x="811" y="-19"/>
    </contour>
    <contour>
      <point x="890" y="952" type="qcurve" smooth="yes"/>
      <point x="840" y="953"/>
      <point x="768" y="909"/>
      <point x="743.5" y="873.5" type="qcurve" smooth="yes" name="inserted"/>
      <point x="719" y="838"/>
      <point x="688" y="751"/>
      <point x="681" y="710" type="qcurve" smooth="yes"/>
      <point x="669" y="640" type="line"/>
      <point x="993" y="640" type="line"/>
      <point x="1011" y="769" type="line" smooth="yes"/>
      <point x="1014" y="800"/>
      <point x="1004" y="864"/>
      <point x="990.0" y="890.5" type="qcurve" smooth="yes" name="inserted"/>
      <point x="976" y="917"/>
      <point x="927" y="950"/>
    </contour>
    <contour>
      <point x="279" y="129" type="qcurve" smooth="yes"/>
      <point x="301" y="129"/>
      <point x="341" y="141"/>
      <point x="360.0" y="151.5" type="qcurve" smooth="yes" name="inserted"/>
      <point x="379" y="162"/>
      <point x="413" y="189"/>
      <point x="429" y="202" type="qcurve"/>
      <point x="481" y="497" type="line"/>
      <point x="427" y="497" type="line" smooth="yes"/>
      <point x="378" y="496"/>
      <point x="289" y="463"/>
      <point x="253.5" y="434.0" type="qcurve" smooth="yes" name="inserted"/>
      <point x="218" y="405"/>
      <point x="172" y="323"/>
      <point x="166" y="273" type="qcurve" smooth="yes"/>
      <point x="163" y="244"/>
      <point x="174" y="192"/>
      <point x="188.5" y="172.0" type="qcurve" smooth="yes" name="inserted"/>
      <point x="203" y="152"/>
      <point x="248" y="129"/>
    </contour>
  </outline>
</glyph>
<glyph name="eth" format="2">
  <advance width="1202"/>
  <unicode hex="00F0"/>
  <outline>
    <contour>
      <point x="1046" y="912" type="qcurve" smooth="yes"/>
      <point x="1052" y="845"/>
      <point x="1048" y="706"/>
      <point x="1039" y="635" type="qcurve" smooth="yes"/>
      <point x="1031" y="572" type="line" smooth="yes"/>
      <point x="1020" y="492"/>
      <point x="970" y="336"/>
      <point x="931" y="267" type="qcurve" smooth="yes"/>
      <point x="895" y="209"/>
      <point x="807" y="105"/>
      <point x="753" y="67" type="qcurve" smooth="yes"/>
      <point x="691" y="25"/>
      <point x="543" y="-22"/>
      <point x="456" y="-20" type="qcurve" smooth="yes"/>
      <point x="357" y="-17"/>
      <point x="198" y="60"/>
      <point x="144" y="125" type="qcurve" smooth="yes" name="inserted"/>
      <point x="90" y="190"/>
      <point x="40" y="362"/>
      <point x="49" y="459" type="qcurve" smooth="yes"/>
      <point x="59" y="567"/>
      <point x="148" y="758"/>
      <point x="220" y="829" type="qcurve" smooth="yes" name="inserted"/>
      <point x="292" y="900"/>
      <point x="483" y="980"/>
      <point x="595" y="977" type="qcurve" smooth="yes"/>
      <point x="635" y="976"/>
      <point x="711" y="959"/>
      <point x="745" y="943" type="qcurve" smooth="yes"/>
      <point x="780" y="927"/>
      <point x="843" y="882"/>
      <point x="870" y="853" type="qcurve"/>
      <point x="872" y="944"/>
      <point x="826" y="1116"/>
      <point x="776" y="1193" type="qcurve"/>
      <point x="489" y="1041" type="line"/>
      <point x="431" y="1148" type="line"/>
      <point x="684" y="1281" type="line"/>
      <point x="649" y="1309"/>
      <point x="573" y="1347"/>
      <point x="531" y="1363" type="qcurve"/>
      <point x="602" y="1520" type="line"/>
      <point x="674" y="1497"/>
      <point x="800" y="1426"/>
      <point x="854" y="1375" type="qcurve"/>
      <point x="1104" y="1508" type="line"/>
      <point x="1162" y="1399" type="line"/>
      <point x="938" y="1284" type="line"/>
      <point x="985" y="1194"/>
      <point x="1038" y="1007"/>
    </contour>
    <contour>
      <point x="738" y="273" type="qcurve" smooth="yes" name="inserted"/>
      <point x="758" y="302"/>
      <point x="792" y="366"/>
      <point x="805" y="399" type="qcurve" smooth="yes"/>
      <point x="822" y="442"/>
      <point x="844" y="529"/>
      <point x="851" y="571" type="qcurve" smooth="yes"/>
      <point x="861" y="635" type="line"/>
      <point x="868" y="687" type="line"/>
      <point x="849" y="726"/>
      <point x="787" y="779"/>
      <point x="749" y="796" type="qcurve" smooth="yes" name="inserted"/>
      <point x="711" y="812"/>
      <point x="627" y="827"/>
      <point x="587" y="827" type="qcurve" smooth="yes"/>
      <point x="511" y="828"/>
      <point x="387" y="765"/>
      <point x="341" y="713" type="qcurve" smooth="yes" name="inserted"/>
      <point x="295" y="661"/>
      <point x="239" y="528"/>
      <point x="231" y="459" type="qcurve" smooth="yes"/>
      <point x="223" y="399"/>
      <point x="246" y="283"/>
      <point x="276" y="237" type="qcurve" smooth="yes" name="inserted"/>
      <point x="306" y="191"/>
      <point x="403" y="132"/>
      <point x="469" y="130" type="qcurve" smooth="yes"/>
      <point x="558" y="127"/>
      <point x="691" y="208"/>
    </contour>
  </outline>
</glyph>
<glyph name="divide" format="2">
  <advance width="1202"/>
  <unicode hex="00F7"/>
  <outline>
    <contour>
      <point x="1080" y="600" type="line"/>
      <point x="111" y="600" type="line"/>
      <point x="143" y="784" type="line"/>
      <point x="1113" y="784" type="line"/>
    </contour>
    <contour>
      <point x="578" y="1094" type="qcurve" smooth="yes"/>
      <point x="579" y="1141"/>
      <point x="637" y="1203"/>
      <point x="684" y="1205" type="qcurve" smooth="yes"/>
      <point x="730.8355869254699" y="1207.0363298663246"/>
      <point x="791.0" y="1145.1937056408176"/>
      <point x="791" y="1100" type="qcurve"/>
      <point x="790" y="1053"/>
      <point x="730" y="993"/>
      <point x="684" y="991" type="qcurve" smooth="yes"/>
      <point x="637" y="989"/>
      <point x="577" y="1047"/>
    </contour>
    <contour>
      <point x="435" y="279" type="qcurve" smooth="yes"/>
      <point x="435" y="326"/>
      <point x="494" y="388"/>
      <point x="541" y="390" type="qcurve" smooth="yes"/>
      <point x="587.83558692547" y="392.03632986632476"/>
      <point x="648.0" y="330.1937056408176"/>
      <point x="648" y="285" type="qcurve"/>
      <point x="647" y="238"/>
      <point x="587" y="178"/>
      <point x="541" y="176" type="qcurve" smooth="yes"/>
      <point x="494.1644130745301" y="173.9636701336752"/>
      <point x="435.0" y="233.80629435918243"/>
    </contour>
  </outline>
</glyph>
<glyph name="oslash" format="2">
  <advance width="1202"/>
  <unicode hex="00F8"/>
  <outline>
    <contour>
      <point x="110" y="544" type="line" smooth="yes"/>
      <point x="123.47654650569339" y="653.3097661017354"/>
      <point x="212" y="856"/>
      <point x="282" y="936" type="qcurve" smooth="yes"/>
      <point x="352" y="1017"/>
      <point x="543.7067297931276" y="1105.0323317551718"/>
      <point x="665" y="1102" type="qcurve" smooth="yes"/>
      <point x="722" y="1100"/>
      <point x="819" y="1074"/>
      <point x="860" y="1051" type="qcurve"/>
      <point x="963" y="1209" type="line"/>
      <point x="1094" y="1209" type="line"/>
      <point x="946" y="983" type="line"/>
      <point x="983" y="944"/>
      <point x="1034" y="845"/>
      <point x="1049" y="790" type="qcurve" smooth="yes" name="inserted"/>
      <point x="1063" y="734"/>
      <point x="1070" y="615"/>
      <point x="1064" y="554" type="qcurve" smooth="yes"/>
      <point x="1062" y="531" type="line" smooth="yes"/>
      <point x="1048" y="422"/>
      <point x="959" y="220"/>
      <point x="888" y="144" type="qcurve" smooth="yes" name="inserted"/>
      <point x="817" y="67"/>
      <point x="624" y="-23"/>
      <point x="506" y="-20" type="qcurve" smooth="yes"/>
      <point x="452" y="-18"/>
      <point x="360" y="5"/>
      <point x="321" y="25" type="qcurve"/>
      <point x="217" y="-135" type="line"/>
      <point x="86" y="-135" type="line"/>
      <point x="233" y="90" type="line"/>
      <point x="194" y="129"/>
      <point x="141" y="227"/>
      <point x="125" y="283" type="qcurve" smooth="yes" name="inserted"/>
      <point x="109" y="338"/>
      <point x="101" y="460"/>
      <point x="107" y="522" type="qcurve" smooth="yes"/>
    </contour>
    <contour>
      <point x="288" y="522" type="line" smooth="yes"/>
      <point x="283" y="486"/>
      <point x="282" y="411"/>
      <point x="286.5" y="374.0" type="qcurve" smooth="yes" name="inserted"/>
      <point x="291" y="337"/>
      <point x="312" y="267"/>
      <point x="329" y="237" type="qcurve"/>
      <point x="772" y="917" type="line"/>
      <point x="748.0" y="932.5" name="inserted"/>
      <point x="690.5" y="949.5"/>
      <point x="657" y="951" type="qcurve" smooth="yes"/>
      <point x="573" y="954"/>
      <point x="445" y="881"/>
      <point x="400.0" y="822.0" type="qcurve" smooth="yes" name="inserted"/>
      <point x="355" y="763"/>
      <point x="301" y="616"/>
      <point x="291" y="544" type="qcurve" smooth="yes"/>
    </contour>
    <contour>
      <point x="883" y="553" type="line" smooth="yes"/>
      <point x="887" y="587"/>
      <point x="888" y="659"/>
      <point x="884.0" y="695.0" type="qcurve" smooth="yes" name="inserted"/>
      <point x="880" y="731"/>
      <point x="862" y="800"/>
      <point x="847" y="830" type="qcurve"/>
      <point x="407" y="157" type="line"/>
      <point x="429.5" y="143.5" name="inserted"/>
      <point x="483.0" y="129.5"/>
      <point x="514" y="129" type="qcurve" smooth="yes"/>
      <point x="597" y="126"/>
      <point x="725" y="198"/>
      <point x="770.5" y="256.0" type="qcurve" smooth="yes" name="inserted"/>
      <point x="816" y="314"/>
      <point x="870" y="459"/>
      <point x="881" y="531" type="qcurve"/>
    </contour>
  </outline>
</glyph>
<glyph name="thorn" format="2">
  <advance width="1202"/>
  <unicode hex="00FE"/>
  <outline>
    <contour>
      <point x="723" y="9" type="qcurve" smooth="yes"/>
      <point x="686" y="-6"/>
      <point x="602" y="-22"/>
      <point x="556" y="-21" type="qcurve" smooth="yes"/>
      <point x="509" y="-20"/>
      <point x="420" y="-1"/>
      <point x="381" y="19" type="qcurve" smooth="yes"/>
      <point x="350" y="34"/>
      <point x="293" y="79"/>
      <point x="269" y="108" type="qcurve"/>
      <point x="172" y="-416" type="line"/>
      <point x="-9" y="-416" type="line"/>
      <point x="334" y="1558" type="line"/>
      <point x="514" y="1558" type="line"/>
      <point x="404" y="969" type="line"/>
      <point x="434" y="1000"/>
      <point x="500" y="1049"/>
      <point x="536" y="1065" type="qcurve" smooth="yes"/>
      <point x="576" y="1084"/>
      <point x="667" y="1103"/>
      <point x="717" y="1102" type="qcurve" smooth="yes"/>
      <point x="790" y="1100"/>
      <point x="900" y="1051"/>
      <point x="939" y="1011" type="qcurve" smooth="yes" name="inserted"/>
      <point x="977" y="970"/>
      <point x="1026" y="863"/>
      <point x="1038" y="803" type="qcurve" smooth="yes" name="inserted"/>
      <point x="1050" y="743"/>
      <point x="1052" y="616"/>
      <point x="1046" y="556" type="qcurve" smooth="yes"/>
      <point x="1043" y="535" type="line" smooth="yes"/>
      <point x="1035" y="469"/>
      <point x="999" y="334"/>
      <point x="970" y="272" type="qcurve" smooth="yes" name="inserted"/>
      <point x="953" y="235"/>
      <point x="910" y="166"/>
      <point x="885" y="135" type="qcurve" smooth="yes"/>
      <point x="852.9999999999999" y="95.0"/>
      <point x="769.0000000000001" y="31.0"/>
    </contour>
    <contour>
      <point x="511" y="130" type="qcurve" smooth="yes"/>
      <point x="556" y="129"/>
      <point x="633" y="150"/>
      <point x="665" y="169" type="qcurve" smooth="yes"/>
      <point x="693" y="186"/>
      <point x="741" y="232"/>
      <point x="761" y="260" type="qcurve" smooth="yes" name="inserted"/>
      <point x="803" y="319"/>
      <point x="852" y="465"/>
      <point x="862" y="536" type="qcurve" smooth="yes"/>
      <point x="864" y="557" type="line" smooth="yes"/>
      <point x="869" y="597"/>
      <point x="870" y="685"/>
      <point x="864" y="728" type="qcurve" smooth="yes" name="inserted"/>
      <point x="858" y="770"/>
      <point x="829" y="848"/>
      <point x="804" y="878" type="qcurve" smooth="yes" name="inserted"/>
      <point x="779" y="907"/>
      <point x="705" y="943"/>
      <point x="654" y="945" type="qcurve" smooth="yes"/>
      <point x="618" y="946"/>
      <point x="551" y="931"/>
      <point x="521" y="917" type="qcurve" smooth="yes"/>
      <point x="481" y="897"/>
      <point x="412" y="835"/>
      <point x="383" y="797" type="qcurve"/>
      <point x="292" y="277" type="line"/>
      <point x="308" y="242"/>
      <point x="351" y="188"/>
      <point x="378" y="169" type="qcurve" smooth="yes"/>
      <point x="405" y="151"/>
      <point x="472" y="131"/>
    </contour>
  </outline>
</glyph>
<glyph name="Aogonek" format="2">
  <advance width="1202"/>
  <unicode hex="0104"/>
  <outline>
    <contour>
      <point x="786" y="-226" type="qcurve" smooth="yes"/>
      <point x="783" y="-259" name="inserted"/>
      <point x="812" y="-292"/>
      <point x="843" y="-293" type="qcurve"/>
      <point x="869" y="-295"/>
      <point x="919" y="-279"/>
      <point x="942" y="-268" type="qcurve"/>
      <point x="963" y="-391" type="line"/>
      <point x="925" y="-413"/>
      <point x="840" y="-433"/>
      <point x="796" y="-432" type="qcurve" smooth="yes"/>
      <point x="756" y="-432"/>
      <point x="693" y="-406"/>
      <point x="671" y="-383" type="qcurve" smooth="yes"/>
      <point x="648" y="-360"/>
      <point x="624" y="-291"/>
      <point x="625" y="-250" type="qcurve" smooth="yes"/>
      <point x="626" y="-202"/>
      <point x="666" y="-118"/>
      <point x="698" y="-83" type="qcurve" smooth="yes" name="inserted"/>
      <point x="729" y="-48"/>
      <point x="808" y="9"/>
      <point x="849" y="32" type="qcurve"/>
      <point x="807" y="377" type="line"/>
      <point x="338" y="377" type="line"/>
      <point x="158" y="0" type="line"/>
      <point x="-30" y="0" type="line"/>
      <point x="679" y="1456" type="line"/>
      <point x="831" y="1456" type="line"/>
      <point x="1026" y="0" type="line"/>
      <point x="988" y="0" type="line"/>
      <point x="983" y="-3" type="line"/>
      <point x="951" y="-20"/>
      <point x="885" y="-65"/>
      <point x="857" y="-92" type="qcurve" smooth="yes" name="inserted"/>
      <point x="829" y="-120"/>
      <point x="790" y="-187"/>
    </contour>
    <contour>
      <point x="413" y="538" type="line"/>
      <point x="788" y="538" type="line"/>
      <point x="712" y="1168" type="line"/>
    </contour>
  </outline>
</glyph>
<glyph name="aogonek" format="2">
  <advance width="1202"/>
  <unicode hex="0105"/>
  <outline>
    <contour>
      <point x="759" y="25" type="qcurve"/>
      <point x="755" y="48"/>
      <point x="757" y="94"/>
      <point x="759" y="118" type="qcurve"/>
      <point x="727" y="90"/>
      <point x="659" y="43"/>
      <point x="623" y="25" type="qcurve" smooth="yes"/>
      <point x="578" y="3"/>
      <point x="478" y="-20"/>
      <point x="424" y="-19" type="qcurve" smooth="yes"/>
      <point x="356" y="-18"/>
      <point x="235" y="26"/>
      <point x="191" y="66" type="qcurve" smooth="yes" name="inserted"/>
      <point x="146" y="106"/>
      <point x="97" y="220"/>
      <point x="101" y="292" type="qcurve" smooth="yes"/>
      <point x="105" y="362"/>
      <point x="154" y="470"/>
      <point x="193" y="511" type="qcurve" smooth="yes" name="inserted"/>
      <point x="232" y="551"/>
      <point x="334" y="607"/>
      <point x="392" y="625" type="qcurve" smooth="yes" name="inserted"/>
      <point x="449" y="642"/>
      <point x="572" y="657"/>
      <point x="632" y="657" type="qcurve" smooth="yes"/>
      <point x="838" y="656" type="line"/>
      <point x="851" y="742" type="line" smooth="yes"/>
      <point x="857" y="793"/>
      <point x="830" y="871"/>
      <point x="802" y="898" type="qcurve" smooth="yes" name="inserted"/>
      <point x="774" y="925"/>
      <point x="693" y="953"/>
      <point x="644" y="954" type="qcurve" smooth="yes"/>
      <point x="601" y="955"/>
      <point x="518" y="935"/>
      <point x="484" y="914" type="qcurve" smooth="yes" name="inserted"/>
      <point x="449" y="893"/>
      <point x="399" y="828"/>
      <point x="389" y="783" type="qcurve"/>
      <point x="208" y="782" type="line"/>
      <point x="217" y="864"/>
      <point x="305" y="985"/>
      <point x="370" y="1025" type="qcurve" smooth="yes" name="inserted"/>
      <point x="434" y="1065"/>
      <point x="588" y="1104"/>
      <point x="662" y="1103" type="qcurve" smooth="yes"/>
      <point x="744" y="1101"/>
      <point x="886" y="1053"/>
      <point x="937" y="1007" type="qcurve" smooth="yes" name="inserted"/>
      <point x="987" y="960"/>
      <point x="1039" y="826"/>
      <point x="1030" y="739" type="qcurve"/>
      <point x="946" y="236" type="line" smooth="yes"/>
      <point x="937" y="181"/>
      <point x="936" y="71"/>
      <point x="949" y="17" type="qcurve"/>
      <point x="947" y="0" type="line"/>
      <point x="911" y="0" type="line"/>
      <point x="905" y="-3" type="line"/>
      <point x="873" y="-20"/>
      <point x="807" y="-65"/>
      <point x="779" y="-92" type="qcurve" smooth="yes" name="inserted"/>
      <point x="751" y="-120"/>
      <point x="712" y="-187"/>
      <point x="708" y="-226" type="qcurve" smooth="yes"/>
      <point x="705" y="-259" name="inserted"/>
      <point x="734" y="-292"/>
      <point x="765" y="-293" type="qcurve"/>
      <point x="791" y="-295"/>
      <point x="841" y="-279"/>
      <point x="864" y="-268" type="qcurve"/>
      <point x="885" y="-391" type="line"/>
      <point x="847" y="-413"/>
      <point x="762" y="-433"/>
      <point x="718" y="-432" type="qcurve" smooth="yes"/>
      <point x="676" y="-431"/>
      <point x="610" y="-403"/>
      <point x="588" y="-379" type="qcurve" smooth="yes"/>
      <point x="568" y="-355"/>
      <point x="546" y="-289"/>
      <point x="547" y="-250" type="qcurve" smooth="yes"/>
      <point x="548" y="-204"/>
      <point x="585" y="-123"/>
      <point x="615" y="-88" type="qcurve" smooth="yes" name="inserted"/>
      <point x="645" y="-54"/>
      <point x="720" y="2"/>
    </contour>
    <contour>
      <point x="459" y="140" type="qcurve" smooth="yes"/>
      <point x="508" y="139"/>
      <point x="601" y="163"/>
      <point x="642" y="186" type="qcurve" smooth="yes"/>
      <point x="681" y="207"/>
      <point x="750" y="268"/>
      <point x="777" y="305" type="qcurve"/>
      <point x="816" y="525" type="line"/>
      <point x="661" y="526" type="line" smooth="yes"/>
      <point x="606" y="526"/>
      <point x="481" y="512"/>
      <point x="426" y="490" type="qcurve" smooth="yes" name="inserted"/>
      <point x="395" y="478"/>
      <point x="343" y="442"/>
      <point x="324" y="417" type="qcurve" smooth="yes"/>
      <point x="309" y="398"/>
      <point x="289" y="349"/>
      <point x="285" y="319" type="qcurve" smooth="yes"/>
      <point x="280" y="276"/>
      <point x="302" y="210"/>
      <point x="326" y="188" type="qcurve" smooth="yes" name="inserted"/>
      <point x="350" y="165"/>
      <point x="418" y="141"/>
    </contour>
  </outline>
</glyph>
<glyph name="Dcroat" format="2">
  <advance width="1202"/>
  <unicode hex="0110"/>
  <outline>
    <contour>
      <point x="61" y="0" type="line"/>
      <point x="176" y="666" type="line"/>
      <point x="-45" y="666" type="line"/>
      <point x="-18" y="817" type="line"/>
      <point x="202" y="817" type="line"/>
      <point x="313" y="1456" type="line"/>
      <point x="629" y="1455" type="line" smooth="yes"/>
      <point x="728" y="1453"/>
      <point x="890" y="1398"/>
      <point x="952" y="1350" type="qcurve" smooth="yes"/>
      <point x="1011" y="1306"/>
      <point x="1096" y="1181"/>
      <point x="1121" y="1109" type="qcurve" smooth="yes"/>
      <point x="1145" y="1036"/>
      <point x="1158" y="870"/>
      <point x="1147" y="781" type="qcurve" smooth="yes"/>
      <point x="1132" y="674" type="line" smooth="yes"/>
      <point x="1110" y="530"/>
      <point x="989" y="284"/>
      <point x="895" y="194" type="qcurve" smooth="yes" name="inserted"/>
      <point x="801" y="103"/>
      <point x="551" y="0"/>
      <point x="400" y="0" type="qcurve" smooth="yes"/>
    </contour>
    <contour>
      <point x="574" y="666" type="line"/>
      <point x="360" y="666" type="line"/>
      <point x="271" y="151" type="line"/>
      <point x="404" y="150" type="line" smooth="yes"/>
      <point x="521" y="151"/>
      <point x="707" y="233"/>
      <point x="776" y="304" type="qcurve" smooth="yes" name="inserted"/>
      <point x="845" y="374"/>
      <point x="933" y="565"/>
      <point x="951" y="674" type="qcurve" smooth="yes"/>
      <point x="967" y="784" type="line" smooth="yes"/>
      <point x="976" y="851"/>
      <point x="972" y="983"/>
      <point x="956" y="1042" type="qcurve" smooth="yes"/>
      <point x="941" y="1097"/>
      <point x="885" y="1192"/>
      <point x="845" y="1227" type="qcurve" smooth="yes"/>
      <point x="805" y="1261"/>
      <point x="696" y="1300"/>
      <point x="626" y="1303" type="qcurve" smooth="yes"/>
      <point x="471" y="1304" type="line"/>
      <point x="386" y="817" type="line"/>
      <point x="601" y="817" type="line"/>
    </contour>
  </outline>
</glyph>
<glyph name="dcroat" format="2">
  <advance width="1232"/>
  <unicode hex="0111"/>
  <outline>
    <contour>
      <point x="1322" y="1234" type="line"/>
      <point x="1131" y="1234" type="line"/>
      <point x="917" y="0" type="line"/>
      <point x="753" y="0" type="line"/>
      <point x="772" y="114" type="line"/>
      <point x="746" y="87"/>
      <point x="690" y="42"/>
      <point x="659" y="26" type="qcurve" smooth="yes"/>
      <point x="615" y="2"/>
      <point x="516" y="-21"/>
      <point x="461" y="-20" type="qcurve" smooth="yes"/>
      <point x="391" y="-18"/>
      <point x="282" y="31"/>
      <point x="243" y="72" type="qcurve" smooth="yes" name="inserted"/>
      <point x="203" y="113"/>
      <point x="152" y="220"/>
      <point x="138" y="280" type="qcurve" smooth="yes" name="inserted"/>
      <point x="124" y="339"/>
      <point x="118" y="463"/>
      <point x="124" y="522" type="qcurve" smooth="yes"/>
      <point x="126" y="543" type="line" smooth="yes"/>
      <point x="134" y="610"/>
      <point x="172" y="746"/>
      <point x="202" y="809" type="qcurve" smooth="yes" name="inserted"/>
      <point x="232" y="872"/>
      <point x="315" y="980"/>
      <point x="368" y="1020" type="qcurve" smooth="yes" name="inserted"/>
      <point x="420" y="1060"/>
      <point x="550" y="1104"/>
      <point x="627" y="1102" type="qcurve" smooth="yes"/>
      <point x="672" y="1101"/>
      <point x="756" y="1082"/>
      <point x="793" y="1063" type="qcurve" smooth="yes"/>
      <point x="823" y="1047"/>
      <point x="876" y="1003"/>
      <point x="899" y="974" type="qcurve"/>
      <point x="947" y="1234" type="line"/>
      <point x="703" y="1234" type="line"/>
      <point x="730" y="1385" type="line"/>
      <point x="975" y="1385" type="line"/>
      <point x="1003" y="1536" type="line"/>
      <point x="1184" y="1536" type="line"/>
      <point x="1158" y="1385" type="line"/>
      <point x="1349" y="1385" type="line"/>
    </contour>
    <contour>
      <point x="304" y="522" type="line" smooth="yes"/>
      <point x="299" y="482"/>
      <point x="299" y="394"/>
      <point x="306" y="352" type="qcurve" smooth="yes" name="inserted"/>
      <point x="312" y="309"/>
      <point x="340" y="233"/>
      <point x="365" y="204" type="qcurve" smooth="yes" name="inserted"/>
      <point x="390" y="174"/>
      <point x="464" y="138"/>
      <point x="515" y="137" type="qcurve" smooth="yes"/>
      <point x="560" y="135"/>
      <point x="638" y="158"/>
      <point x="671" y="178" type="qcurve" smooth="yes"/>
      <point x="704" y="199"/>
      <point x="762" y="257"/>
      <point x="787" y="291" type="qcurve"/>
      <point x="874" y="796" type="line"/>
      <point x="858" y="835"/>
      <point x="809" y="895"/>
      <point x="777" y="914" type="qcurve" smooth="yes"/>
      <point x="753" y="929"/>
      <point x="695" y="945"/>
      <point x="661" y="946" type="qcurve" smooth="yes"/>
      <point x="577" y="949"/>
      <point x="453" y="877"/>
      <point x="410" y="819" type="qcurve" smooth="yes" name="inserted"/>
      <point x="367" y="760"/>
      <point x="316" y="615"/>
      <point x="307" y="543" type="qcurve" smooth="yes"/>
    </contour>
  </outline>
</glyph>
<glyph name="Eogonek" format="2">
  <advance width="1202"/>
  <unicode hex="0118"/>
  <outline>
    <contour>
      <point x="959" y="673" type="line"/>
      <point x="370" y="673" type="line"/>
      <point x="280" y="157" type="line"/>
      <point x="968" y="157" type="line"/>
      <point x="940" y="0" type="line"/>
      <point x="866" y="0" type="line"/>
      <point x="859" y="-3" type="line"/>
      <point x="827" y="-20"/>
      <point x="761" y="-65"/>
      <point x="733" y="-92" type="qcurve" smooth="yes" name="inserted"/>
      <point x="705" y="-120"/>
      <point x="666" y="-187"/>
      <point x="662" y="-226" type="qcurve" smooth="yes"/>
      <point x="659" y="-259" name="inserted"/>
      <point x="688" y="-292"/>
      <point x="719" y="-293" type="qcurve"/>
      <point x="745" y="-295"/>
      <point x="795" y="-279"/>
      <point x="818" y="-268" type="qcurve"/>
      <point x="839" y="-391" type="line"/>
      <point x="801" y="-413"/>
      <point x="716" y="-433"/>
      <point x="672" y="-432" type="qcurve" smooth="yes"/>
      <point x="626" y="-431"/>
      <point x="556" y="-398"/>
      <point x="534" y="-368" type="qcurve" smooth="yes"/>
      <point x="517" y="-345"/>
      <point x="500" y="-285"/>
      <point x="501" y="-250" type="qcurve" smooth="yes"/>
      <point x="502" y="-210"/>
      <point x="531" y="-138"/>
      <point x="555" y="-106" type="qcurve" smooth="yes" name="inserted"/>
      <point x="578" y="-75"/>
      <point x="639" y="-22"/>
      <point x="672" y="0" type="qcurve"/>
      <point x="72" y="0" type="line"/>
      <point x="325" y="1456" type="line"/>
      <point x="1185" y="1456" type="line"/>
      <point x="1157" y="1298" type="line"/>
      <point x="478" y="1298" type="line"/>
      <point x="397" y="830" type="line"/>
      <point x="987" y="830" type="line"/>
    </contour>
  </outline>
</glyph>
<glyph name="eogonek" format="2">
  <advance width="1202"/>
  <unicode hex="0119"/>
  <outline>
    <contour>
      <point x="977" y="187" type="line"/>
      <point x="929" y="121"/>
      <point x="798" y="30"/>
      <point x="723" y="6" type="qcurve"/>
      <point x="693" y="-11"/>
      <point x="631" y="-54"/>
      <point x="605" y="-80" type="qcurve" smooth="yes" name="inserted"/>
      <point x="579" y="-107"/>
      <point x="544" y="-171"/>
      <point x="541" y="-208" type="qcurve" smooth="yes"/>
      <point x="538" y="-241" name="inserted"/>
      <point x="567" y="-274"/>
      <point x="598" y="-275" type="qcurve"/>
      <point x="624" y="-277"/>
      <point x="674" y="-261"/>
      <point x="697" y="-250" type="qcurve"/>
      <point x="718" y="-373" type="line"/>
      <point x="680" y="-395"/>
      <point x="595" y="-415"/>
      <point x="551" y="-414" type="qcurve" smooth="yes"/>
      <point x="513" y="-414"/>
      <point x="451" y="-390"/>
      <point x="429" y="-368" type="qcurve" smooth="yes"/>
      <point x="404" y="-344"/>
      <point x="379" y="-275"/>
      <point x="380" y="-232" type="qcurve" smooth="yes"/>
      <point x="382" y="-166"/>
      <point x="452" y="-60"/>
      <point x="503" y="-18" type="qcurve" smooth="yes"/>
      <point x="503" y="-18"/>
      <point x="503" y="-18"/>
      <point x="503" y="-18" type="qcurve"/>
      <point x="402" y="-9"/>
      <point x="249" y="81"/>
      <point x="200" y="151" type="qcurve" smooth="yes" name="inserted"/>
      <point x="150" y="221"/>
      <point x="108" y="401"/>
      <point x="117" y="500" type="qcurve" smooth="yes"/>
      <point x="122" y="543" type="line" smooth="yes"/>
      <point x="130" y="614"/>
      <point x="176" y="753"/>
      <point x="213" y="816" type="qcurve" smooth="yes" name="inserted"/>
      <point x="249" y="879"/>
      <point x="346" y="985"/>
      <point x="406" y="1024" type="qcurve" smooth="yes" name="inserted"/>
      <point x="465" y="1062"/>
      <point x="604" y="1104"/>
      <point x="681" y="1102" type="qcurve" smooth="yes"/>
      <point x="793" y="1099"/>
      <point x="947" y="1008"/>
      <point x="992" y="934" type="qcurve" smooth="yes" name="inserted"/>
      <point x="1037" y="860"/>
      <point x="1067" y="671"/>
      <point x="1054" y="571" type="qcurve" smooth="yes"/>
      <point x="1041" y="488" type="line"/>
      <point x="296" y="488" type="line"/>
      <point x="295" y="482" type="line"/>
      <point x="295" y="477"/>
      <point x="294" y="469"/>
      <point x="294" y="464" type="qcurve" smooth="yes"/>
      <point x="290" y="404"/>
      <point x="316" y="291"/>
      <point x="345" y="246" type="qcurve" smooth="yes" name="inserted"/>
      <point x="377" y="196"/>
      <point x="483" y="134"/>
      <point x="556" y="132" type="qcurve" smooth="yes"/>
      <point x="650" y="129"/>
      <point x="809" y="209"/>
      <point x="873" y="275" type="qcurve"/>
    </contour>
    <contour>
      <point x="672" y="950" type="qcurve" smooth="yes"/>
      <point x="602" y="953"/>
      <point x="490" y="900"/>
      <point x="446.5" y="856.0" type="qcurve" smooth="yes" name="inserted"/>
      <point x="403" y="812"/>
      <point x="339" y="698"/>
      <point x="318" y="640" type="qcurve"/>
      <point x="882" y="638" type="line"/>
      <point x="886" y="656" type="line"/>
      <point x="895" y="711"/>
      <point x="875" y="815"/>
      <point x="847.0" y="856.0" type="qcurve" smooth="yes" name="inserted"/>
      <point x="819" y="897"/>
      <point x="731" y="948"/>
    </contour>
  </outline>
</glyph>
<glyph name="hbar" format="2">
  <advance width="1202"/>
  <unicode hex="0127"/>
  <outline>
    <contour>
      <point x="740" y="1234" type="line"/>
      <point x="470" y="1234" type="line"/>
      <point x="411" y="920" type="line"/>
      <point x="444" y="960"/>
      <point x="521" y="1028"/>
      <point x="565" y="1052.0" type="qcurve" smooth="yes" name="inserted"/>
      <point x="608" y="1076"/>
      <point x="705" y="1103"/>
      <point x="759" y="1102" type="qcurve" smooth="yes"/>
      <point x="851" y="1100"/>
      <point x="975" y="1030"/>
      <point x="1011.0" y="972.0" type="qcurve" smooth="yes" name="inserted"/>
      <point x="1047" y="914"/>
      <point x="1071" y="763"/>
      <point x="1062" y="681" type="qcurve"/>
      <point x="948" y="0" type="line"/>
      <point x="767" y="0" type="line"/>
      <point x="882" y="684" type="line"/>
      <point x="888" y="737"/>
      <point x="876" y="830"/>
      <point x="854.0" y="866" type="qcurve" smooth="yes" name="inserted"/>
      <point x="832" y="901"/>
      <point x="755" y="942"/>
      <point x="696" y="944" type="qcurve" smooth="yes"/>
      <point x="650" y="945"/>
      <point x="567" y="922"/>
      <point x="530" y="901" type="qcurve" smooth="yes" name="inserted"/>
      <point x="492" y="879"/>
      <point x="425" y="821"/>
      <point x="397" y="787" type="qcurve"/>
      <point x="260" y="0" type="line"/>
      <point x="79" y="0" type="line"/>
      <point x="293" y="1234" type="line"/>
      <point x="121" y="1234" type="line"/>
      <point x="148" y="1385" type="line"/>
      <point x="319" y="1385" type="line"/>
      <point x="346" y="1536" type="line"/>
      <point x="527" y="1536" type="line"/>
      <point x="498" y="1385" type="line"/>
      <point x="767" y="1385" type="line"/>
    </contour>
  </outline>
</glyph>
